<?xml version="1.0" encoding="UTF-8"?>
<svg width="14px" height="16px" viewBox="0 0 14 16" version="1.1" xmlns="http://www.w3.org/2000/svg" xmlns:xlink="http://www.w3.org/1999/xlink">
    <!-- Generator: Sketch 62 (91390) - https://sketch.com -->
    <title>Logo-cozmos-icon-07</title>
    <desc>Created with Sketch.</desc>
    <defs>
        <linearGradient x1="-0.0169253964%" y1="49.9970855%" x2="99.9881457%" y2="49.9970855%" id="linearGradient-1">
            <stop stop-color="#F18300" offset="0%"></stop>
            <stop stop-color="#EE4BAE" offset="37.89%"></stop>
            <stop stop-color="#173AF6" offset="73.04%"></stop>
            <stop stop-color="#5FEEBA" offset="100%"></stop>
        </linearGradient>
    </defs>
    <g id="Page-1" stroke="none" stroke-width="1" fill="none" fill-rule="evenodd">
        <g id="Desktop-HD" transform="translate(-1299.000000, -2578.000000)" fill="url(#linearGradient-1)" fill-rule="nonzero">
            <g id="Logo-cozmos-icon-07" transform="translate(1299.000000, 2578.000000)">
                <path d="M0.382650602,15.8775904 C0.431807229,15.8303614 0.478072289,15.7812048 0.521445783,15.7291566 C0.57253012,15.6693976 0.618795181,15.6057831 0.664096386,15.5412048 C0.757590361,15.4091566 0.844337349,15.2713253 0.933012048,15.1354217 C1.02361446,14.9956627 1.11228916,14.8559036 1.21253012,14.7228916 C1.25975904,14.6612048 1.30891566,14.6014458 1.36192771,14.5436145 L1.39180723,14.5118072 C1.37445783,14.5291566 1.41012048,14.4944578 1.41493976,14.4896386 L1.51421687,14.4048193 L1.60385542,14.3392771 L1.63277108,14.3209639 L1.66457831,14.3045783 L1.76578313,14.2592771 L1.81879518,14.2409639 L1.81975904,14.2409639 L1.84963855,14.2342169 L1.93156627,14.2245783 L1.97012048,14.2245783 L2.02698795,14.2284337 C2.11277108,14.2361446 2.19759036,14.2506024 2.28240964,14.2660241 C2.46072289,14.3026506 2.64289157,14.3180723 2.82506024,14.3113253 C3.01975904,14.293012 3.20289157,14.213012 3.34939759,14.0838554 C3.72337349,13.7773494 3.69156627,13.1768675 3.67807229,12.7440964 L3.6626506,12.3787952 L3.65686747,12.2072289 L3.65590361,12.1339759 L3.65590361,12.0828916 C3.65590361,11.9816867 3.6626506,11.8804819 3.67614458,11.7812048 L3.68771084,11.7175904 L3.69156627,11.7012048 L3.72337349,11.6212048 L3.73590361,11.6048193 L3.73879518,11.6028916 L3.7426506,11.6009639 L3.76385542,11.5980723 L3.79855422,11.6019277 L3.84192771,11.6096386 L3.84674699,11.6115663 C3.92771084,11.6385542 4.00578313,11.6722892 4.08,11.7137349 C4.20819277,11.766747 4.3546988,11.7050602 4.40771084,11.5768675 C4.41638554,11.5566265 4.42216867,11.5354217 4.42409639,11.513253 C4.42891566,11.2192771 4.37879518,10.9272289 4.27566265,10.6515663 C4.17542169,10.3508434 4.04337349,10.0607229 3.91518072,9.77156627 C3.78313253,9.47277108 3.64915663,9.1739759 3.54024096,8.86554217 L3.49108434,8.71807229 C3.6713253,9.03421687 3.8660241,9.34168675 4.06072289,9.64433735 C4.24289157,9.92674699 4.43084337,10.2053012 4.60819277,10.4915663 C4.80481928,10.8106024 4.99951807,11.1296386 5.21831325,11.433253 C5.52,11.92 5.9546988,12.3093976 6.4713253,12.5571084 C6.60240964,12.6091566 6.75084337,12.5445783 6.80289157,12.413494 C6.81831325,12.3739759 6.82409639,12.3306024 6.81831325,12.2881928 C6.76144578,11.9026506 6.63710843,11.5306024 6.44915663,11.1893976 C6.25253012,10.8154217 6.03084337,10.4559036 5.78698795,10.1108434 C5.57879518,9.80915663 5.36,9.51518072 5.15566265,9.20963855 C4.92722892,8.86843373 4.70746988,8.51951807 4.4539759,8.19566265 C4.17927711,7.8226506 3.82554217,7.51421687 3.41879518,7.29253012 L3.40240964,7.28481928 L3.35710843,7.1460241 L3.33783133,7.08048193 L3.33493976,7.06987952 L3.33204819,7.05927711 L3.29927711,6.93108434 C3.27807229,6.84048193 3.26072289,6.74795181 3.24722892,6.65542169 C3.2346988,6.57253012 3.22795181,6.48963855 3.22313253,6.40578313 L3.22216867,6.37493976 L3.22216867,6.33253012 L3.22987952,6.19180723 C3.2346988,6.12819277 3.24433735,6.06554217 3.25686747,6.00385542 L3.2626506,5.97590361 L3.28,5.91421687 L3.32626506,5.79566265 L3.34939759,5.74939759 L3.35710843,5.73590361 L3.41975904,5.65590361 L3.46120482,5.62120482 L3.48722892,5.60289157 L3.49301205,5.6 L3.57108434,5.56722892 L3.58072289,5.5653012 L3.62987952,5.55662651 L3.68096386,5.55084337 L3.71373494,5.54987952 C3.78216867,5.55277108 3.84963855,5.56144578 3.91614458,5.57493976 L3.97493976,5.58843373 L3.97975904,5.59036145 L4.11566265,5.6346988 C4.29783133,5.70313253 4.47518072,5.78698795 4.64289157,5.88433735 L4.69975904,5.91807229 L4.72771084,5.93445783 C4.89156627,6.33253012 5.05542169,6.73060241 5.22409639,7.12674699 C5.89590361,8.85108434 6.81349398,10.4693976 7.94698795,11.9315663 C8.1253012,12.146506 8.28433735,12.3749398 8.47325301,12.5812048 C8.64481928,12.7971084 8.86457831,12.9686747 9.11518072,13.0833735 C9.24722892,13.1344578 9.39373494,13.1363855 9.52771084,13.0881928 C9.66361446,13.026506 9.77349398,12.9175904 9.83614458,12.7826506 L9.8660241,12.7238554 L10.0163855,12.9291566 C10.6419277,13.8583133 11.4727711,14.6303614 12.4453012,15.1874699 C12.5754217,15.2414458 12.7248193,15.1807229 12.779759,15.0506024 C12.779759,15.0506024 12.779759,15.0506024 12.779759,15.0496386 C12.9060241,14.5985542 12.8848193,14.1195181 12.7190361,13.6809639 C12.5898795,13.2587952 12.4154217,12.8443373 12.2496386,12.4346988 C11.9749398,11.7571084 11.6636145,11.0939759 11.3281928,10.4443373 C11.4939759,10.5975904 11.6636145,10.7450602 11.8448193,10.8828916 C12.086747,11.0978313 12.4009639,11.2154217 12.7248193,11.2125301 C13.0313253,11.1759036 13.1961446,10.8693976 13.2559036,10.5985542 C13.3098795,10.2843373 13.3040964,9.96337349 13.2395181,9.65204819 C13.1961446,9.37927711 13.1286747,9.1113253 13.066988,8.84144578 C12.9763855,8.44048193 12.8636145,8.0453012 12.7344578,7.65493976 C12.4684337,6.85783133 12.1291566,6.08674699 11.7214458,5.3513253 C10.9060241,3.84192771 9.80433735,2.5060241 8.47807229,1.41879518 C7.94024096,0.978313253 7.35228916,0.600481928 6.72771084,0.294939759 C6.19662651,-0.0385542169 5.53156627,-0.08 4.96385542,0.186987952 C4.69975904,0.378795181 4.51759036,0.66313253 4.45301205,0.98313253 C4.38650602,1.26939759 4.37012048,1.56626506 4.40578313,1.85831325 C4.31903614,1.8746988 4.24578313,1.93349398 4.21108434,2.01542169 C3.9113253,2.88481928 3.9286747,3.8313253 4.26024096,4.68915663 C4.31421687,4.86361446 4.37493976,5.03614458 4.43855422,5.20674699 C4.22457831,5.10746988 3.99325301,5.05060241 3.75710843,5.03903614 C3.55951807,5.0313253 3.36289157,5.08048193 3.19325301,5.1826506 C3.03807229,5.28674699 2.91662651,5.43421687 2.8453012,5.60674699 C2.73927711,5.86506024 2.69204819,6.14361446 2.70650602,6.42313253 C2.72192771,6.80192771 2.79903614,7.17493976 2.9339759,7.5286747 L2.97445783,7.64048193 C2.84048193,8.12626506 2.88096386,8.64385542 3.09108434,9.1026506 C3.3060241,9.70891566 3.62216867,10.2756627 3.82554217,10.886747 L3.85156627,10.9686747 L3.86120482,11.0014458 L3.8660241,11.019759 L3.88915663,11.1171084 C3.7773494,11.0968675 3.6626506,11.106506 3.55566265,11.1440964 C3.35710843,11.2404819 3.22216867,11.4313253 3.19807229,11.6501205 C3.16144578,11.8727711 3.15180723,12.0992771 3.16915663,12.3248193 L3.18457831,12.6862651 L3.1913253,12.8616867 L3.19325301,12.9484337 L3.19421687,12.9918072 L3.19421687,13.0043373 C3.19518072,13.1151807 3.19036145,13.226988 3.17879518,13.3368675 L3.15662651,13.4843373 L3.1460241,13.5315663 L3.13156627,13.5759036 L3.10746988,13.6346988 L3.09204819,13.6636145 L3.07180723,13.6925301 L3.05638554,13.7108434 L2.98024096,13.7744578 L2.94457831,13.7975904 L2.90698795,13.8149398 L2.85783133,13.833253 C2.89831325,13.819759 2.84337349,13.8361446 2.8346988,13.8380723 L2.72192771,13.8515663 L2.68144578,13.8515663 L2.62168675,13.8477108 L2.50120482,13.8342169 C2.41445783,13.8226506 2.32771084,13.8062651 2.24096386,13.7927711 C2.07228916,13.7580723 1.89879518,13.7580723 1.73108434,13.7937349 C1.39084337,13.8978313 1.09590361,14.1146988 0.894457831,14.4077108 C0.818313253,14.5079518 0.749879518,14.6139759 0.684337349,14.7219277 L0.645783133,14.7884337 C0.667951807,14.7479518 0.635180723,14.8048193 0.633253012,14.8086747 L0.564819277,14.9262651 L0.468433735,15.0987952 C0.402891566,15.2163855 0.37686747,15.2636145 0.300722892,15.3821687 L0.199518072,15.5296386 L0.133012048,15.6250602 C0.152289157,15.5913253 0.100240964,15.6501205 0.0925301205,15.6578313 C0.0308433735,15.7387952 0.0462650602,15.853494 0.12626506,15.9161446 C0.205301205,15.9701205 0.319036145,15.9556627 0.382650602,15.8775904 Z M9.46409639,12.3122892 L9.45060241,12.3768675 L9.44578313,12.3971084 L9.44289157,12.4077108 C9.42843373,12.4587952 9.40915663,12.5089157 9.38506024,12.5580723 L9.3513253,12.6091566 L9.34843373,12.6120482 L9.33879518,12.619759 L9.33686747,12.619759 L9.32722892,12.6187952 L9.31566265,12.6168675 L9.31180723,12.6159036 L9.24819277,12.5889157 L9.23566265,12.5821687 L9.22987952,12.5783133 C9.17879518,12.5455422 9.13060241,12.5089157 9.0853012,12.4693976 L9.01686747,12.4086747 L8.98313253,12.3759036 L8.98120482,12.3739759 C8.93108434,12.3238554 8.88289157,12.2708434 8.83662651,12.2178313 C8.74216867,12.1108434 8.65253012,11.9980723 8.56481928,11.8843373 C8.33445783,11.586506 8.10024096,11.2925301 7.88048193,10.986988 C7.74746988,10.8019277 7.61927711,10.613012 7.49590361,10.4212048 C7.43614458,10.3296386 7.3773494,10.2361446 7.32048193,10.1426506 L7.2346988,10.0019277 L7.19228916,9.93156627 L7.17012048,9.8939759 L7.15662651,9.87084337 C6.69879518,9.07180723 6.28722892,8.24771084 5.92289157,7.40144578 C5.79277108,7.10457831 5.66554217,6.80578313 5.54120482,6.5060241 C5.8486747,6.7460241 6.14361446,7.00240964 6.43084337,7.26457831 C6.54168675,7.36578313 6.65156627,7.46891566 6.76048193,7.5739759 L6.96771084,7.9739759 C7.42554217,8.84722892 7.91421687,9.70506024 8.43180723,10.5455422 C8.77108434,11.0987952 9.12,11.6481928 9.48722892,12.1850602 L9.46409639,12.3122892 Z M9.01493976,10.3431325 C9.11228916,10.5127711 9.19903614,10.6891566 9.27614458,10.8693976 C9.30313253,10.9339759 9.32915663,11.0004819 9.35228916,11.066988 L9.17012048,10.7816867 C8.82409639,10.2390361 8.49253012,9.6886747 8.17349398,9.12963855 C8.36048193,9.37542169 8.54554217,9.62120482 8.72,9.87662651 C8.77301205,9.9546988 8.82506024,10.0337349 8.87614458,10.1146988 L8.9513253,10.2351807 L8.98216867,10.2862651 L9.01493976,10.3431325 Z M11.8293976,12.773012 C11.973012,13.1306024 12.1204819,13.4910843 12.2380723,13.8592771 L12.253494,13.9103614 L12.2689157,13.9604819 L12.3036145,14.100241 C12.3248193,14.1918072 12.340241,14.2853012 12.3498795,14.3787952 L12.3585542,14.5040964 L12.3585542,14.5127711 L12.3575904,14.5349398 L12.3566265,14.5551807 C12.2766265,14.5060241 12.1985542,14.453012 12.1214458,14.3990361 C11.946988,14.2746988 11.7792771,14.1407229 11.620241,13.9971084 C11.4698795,13.8631325 11.3262651,13.7204819 11.1903614,13.5701205 C11.0438554,13.4110843 10.9031325,13.2453012 10.7672289,13.0766265 C10.4983133,12.7431325 10.2448193,12.3961446 10.0009639,12.0443373 C10.006747,11.9171084 10.0038554,11.7898795 9.99325301,11.6626506 C9.8746988,10.8616867 9.54891566,10.1060241 9.04771084,9.47084337 C8.76144578,9.04674699 8.44915663,8.64096386 8.11373494,8.25445783 C7.81108434,7.91518072 7.49590361,7.58554217 7.16722892,7.26650602 C6.90216867,6.7460241 6.64578313,6.21879518 6.39903614,5.68674699 C6.14939759,5.14891566 5.86698795,4.62650602 5.61927711,4.0886747 C5.47084337,3.76578313 5.33204819,3.43903614 5.21060241,3.10554217 C5.14987952,2.94072289 5.09493976,2.77493976 5.04578313,2.60626506 L5.04385542,2.60048193 L5.07180723,2.61879518 C5.15277108,2.67180723 5.23084337,2.7286747 5.3060241,2.79036145 C5.3773494,2.84819277 5.44578313,2.90795181 5.5113253,2.97060241 L5.56144578,3.01879518 L5.5739759,3.03036145 L5.57879518,3.03614458 L5.69156627,3.15373494 C5.8226506,3.29445783 5.94698795,3.44096386 6.06843373,3.59036145 C6.61204819,4.25542169 7.16433735,4.91373494 7.68,5.60192771 C8.26024096,6.37686747 8.80096386,7.17879518 9.31566265,7.99807229 C9.83228916,8.81927711 10.3026506,9.61156627 10.7566265,10.4713253 C11.1556627,11.2183133 11.5122892,11.9874699 11.8293976,12.773012 L11.8293976,12.773012 Z M4.86746988,1.58072289 L4.86650602,1.55759036 L4.86650602,1.52192771 C4.86746988,1.44771084 4.8713253,1.37349398 4.88,1.30024096 C4.88674699,1.2346988 4.8973494,1.17012048 4.91084337,1.10554217 L4.92144578,1.06120482 L4.92240964,1.05831325 L4.95710843,0.953253012 L4.99084337,0.86746988 L5.01301205,0.822168675 L5.0313253,0.788433735 C5.06409639,0.735421687 5.1026506,0.68626506 5.14506024,0.64 C5.12963855,0.657349398 5.18650602,0.604337349 5.19903614,0.594698795 L5.2626506,0.550361446 C5.2346988,0.568674699 5.30506024,0.529156627 5.32048193,0.522409639 L5.40144578,0.49253012 C5.42361446,0.488674699 5.44578313,0.483855422 5.46698795,0.478072289 L5.55951807,0.465542169 L5.63373494,0.461686747 L5.72240964,0.466506024 C5.78987952,0.472289157 5.85638554,0.481927711 5.92289157,0.494457831 L6.02409639,0.516626506 L6.03277108,0.518554217 L6.10024096,0.537831325 C6.24289157,0.582168675 6.3826506,0.635180723 6.51951807,0.697831325 C6.65156627,0.756626506 6.78072289,0.82313253 6.90795181,0.89253012 L6.99373494,0.940722892 L7.03325301,0.962891566 L7.03903614,0.966746988 L7.20963855,1.06891566 C7.55855422,1.27807229 7.8939759,1.50939759 8.21493976,1.76096386 C8.86650602,2.2746988 9.46216867,2.85783133 9.98939759,3.49783133 C11.0689157,4.79807229 11.9036145,6.28433735 12.4520482,7.88337349 C12.5792771,8.25638554 12.6814458,8.63325301 12.7778313,9.01493976 C12.8443373,9.27807229 12.9098795,9.54120482 12.9513253,9.81012048 C13.0120482,10.093494 13.0072289,10.386506 12.9378313,10.666988 C12.9214458,10.7180723 12.8983133,10.7653012 12.8674699,10.8096386 C12.8395181,10.8501205 12.8038554,10.8848193 12.7624096,10.9108434 C12.7219277,10.933012 12.6766265,10.9455422 12.6293976,10.9446301 C12.5638554,10.9426506 12.4983133,10.9310843 12.4356627,10.9089157 C12.2053012,10.820241 11.9922892,10.6910843 11.8072289,10.5291566 C11.6404819,10.3961446 11.4853012,10.2506024 11.3301205,10.1040964 C11.2771084,10.0636145 11.2009639,10.0713253 11.1575904,10.1224096 L11.0024096,9.83518072 C10.5320482,8.97445783 10.0240964,8.1339759 9.49493976,7.30891566 C8.97349398,6.49445783 8.42216867,5.70024096 7.83325301,4.9339759 C7.56144578,4.58024096 7.28289157,4.2313253 6.99373494,3.89301205 C6.77012048,3.63084337 6.56385542,3.35421687 6.34120482,3.09108434 C5.96915663,2.59180723 5.47373494,2.19855422 4.90313253,1.94987952 C4.89060241,1.86313253 4.88096386,1.7773494 4.87421687,1.68963855 L4.86746988,1.58072289 Z M4.7026506,4.32674699 L4.69686747,4.30650602 L4.69204819,4.29108434 L4.67180723,4.2139759 L4.63421687,4.05975904 C4.60819277,3.94891566 4.5860241,3.83710843 4.56771084,3.72433735 C4.55036145,3.62216867 4.53783133,3.51807229 4.52915663,3.41493976 L4.51951807,3.26072289 L4.51662651,3.18361446 C4.51566265,3.15180723 4.51566265,3.14891566 4.51662651,3.17783133 L4.51759036,3.12674699 C4.51951807,2.9773494 4.53493976,2.82795181 4.56096386,2.68048193 C4.68048193,3.0939759 4.8260241,3.49975904 4.99855422,3.8939759 C5.24722892,4.48289157 5.53831325,5.05156627 5.81975904,5.6260241 C5.93831325,5.86891566 6.05108434,6.1146988 6.16481928,6.36048193 L6.11277108,6.31614458 C5.8139759,6.06457831 5.49975904,5.83036145 5.17301205,5.61542169 C5.08337349,5.39662651 4.99566265,5.17590361 4.91277108,4.95421687 C4.83566265,4.74795181 4.7653012,4.53879518 4.7026506,4.32674699 L4.7026506,4.32674699 Z M4.04048193,8.48674699 C4.29783133,8.80771084 4.51759036,9.15759036 4.74506024,9.49975904 C4.94843373,9.80433735 5.16722892,10.0992771 5.37638554,10.4009639 C5.49204819,10.5677108 5.60578313,10.7363855 5.71373494,10.9089157 C5.82361446,11.0833735 5.89686747,11.2096386 5.99903614,11.4091566 C6.05590361,11.52 6.10795181,11.6337349 6.15518072,11.7493976 L6.12433735,11.7204819 L6.11277108,11.7098795 L6.1060241,11.7031325 C6.03566265,11.6318072 5.96915663,11.5566265 5.90361446,11.4795181 C5.65493976,11.1749398 5.42939759,10.853012 5.22698795,10.5166265 C4.85204819,9.91518072 4.45590361,9.32722892 4.09253012,8.71903614 L4.07036145,8.68048193 L4.04144578,8.63228916 L3.97012048,8.50698795 C3.91807229,8.41638554 3.86795181,8.32385542 3.81975904,8.2313253 L3.81879518,8.2313253 L3.83325301,8.24674699 C3.90554217,8.32289157 3.9739759,8.40385542 4.04048193,8.48674699 Z" id="Shape"></path>
            </g>
        </g>
    </g>
</svg>