<svg id="Layer_1" data-name="Layer 1" xmlns="http://www.w3.org/2000/svg" viewBox="0 0 2967.45 560"><defs><style>.cls-1{fill:#fff;}</style></defs><polygon class="cls-1" points="484.97 420 484.97 140 242.49 280 484.97 420"/><polygon class="cls-1" points="242.49 280 242.49 0 0 140 0 420 242.49 560 242.49 280 242.49 280"/><path class="cls-1" d="M884.58,451.42,839,364.7h-60.8v86.72H696.4V138.08H837.2c83.14,0,130.52,40.23,130.52,110,0,47.38-19.67,82.25-55.88,101l65.27,102.36Zm-106.39-152h59.45c33.08,0,52.3-17,52.3-48.72,0-30.84-19.22-47.38-52.3-47.38H778.19Z"/><path class="cls-1" d="M1277.1,209.6V451.42h-79.57V421c-16.54,21.46-41.12,33.53-71.07,33.53-68,0-112.64-50.06-112.64-125.16,0-73.75,43.8-122.47,110.4-122.47,30.84-.45,56.32,12.06,73.31,34V209.6Zm-79.57,130.08v-16.1c-3.13-31.73-22.8-52.3-51.41-52.3-31.28,0-52.29,24.58-52.29,60.35s21,60.34,52.29,60.34C1174.73,392,1194.4,371,1197.53,339.68Z"/><path class="cls-1" d="M1508.69,206.47v72.86c-44.26-4.47-73.76,15.19-77.78,48.72V451.42h-79.56V209.6h79.56v40.23C1447.45,222.11,1474.72,206.47,1508.69,206.47Z"/><path class="cls-1" d="M1734,364.7l44.69,40.23c-28.16,33.08-65.25,49.17-110.85,49.17-78.22,0-130.52-48.72-130.52-122.47,0-74.21,48.73-124.26,126-124.71,72.41-.45,120.24,43.8,122,115.33l-161.81,38.87c8.94,21,26.82,33.09,50.06,33.09C1695.11,394.21,1716.11,383.92,1734,364.7Zm-116.67-47.38L1707.18,295c-5.82-21.45-20.57-31.73-40.23-31.73C1638.34,263.24,1620,282.46,1617.33,317.32Z"/><path class="cls-1" d="M1977.65,438.9c-17.43,10.28-41.57,16.1-64.36,16.1-47.83,0-81.35-29.5-81.35-80.91V154.17h78.66v67.05h63V274h-63v87.6c0,19.67,8.94,29.06,23.69,29.06q12.74,0,28.16-8.05Z"/><path class="cls-1" d="M2272.69,330.29c0,74.64-52.74,123.81-132.31,123.81s-131.86-49.17-131.86-123.81c0-74.21,52.3-123.37,131.86-123.37S2272.69,256.08,2272.69,330.29Zm-184.16.89c0,36.21,21,60.34,51.85,60.34,31.3,0,52.3-24.13,52.3-60.34,0-35.76-21-59.9-52.3-59.9C2109.54,271.28,2088.53,295.42,2088.53,331.18Z"/><path class="cls-1" d="M2411.3,261.45c-13.41,0-22.79,4.91-22.79,15.19,0,31.74,126.94,16.55,126.49,100.58,0,49.62-43.36,77.78-102.36,77.78-40.67,0-79.56-11.62-109.06-34.42l25-51.4c27.71,19.22,59,29.94,85.82,29.94,14.75,0,25.48-4.91,25.48-14.75,0-33.08-124.71-16.53-124.71-100.12,0-50.51,42.46-78.22,99.23-78.22A196.32,196.32,0,0,1,2515,234.19L2488.18,286C2458.23,270.39,2431,261.45,2411.3,261.45Z"/><path class="cls-1" d="M2821.23,299V451.42h-79.56V321.8c0-27.28-15.65-44.26-41.12-44.26-29.51.45-47.39,22.8-47.39,54.54V451.42H2573.6V119.76h79.56V248.93c17-27.71,44.7-42.46,80-42.46C2786.37,206.47,2821.23,242.23,2821.23,299Z"/><path class="cls-1" d="M2967.45,209.6V451.42h-79.12V209.6Zm-3.13-67.95c0,21-15.2,36.22-36.21,36.22s-36.2-15.21-36.2-36.22c0-21.45,15.19-36.65,36.2-36.65S2964.32,120.2,2964.32,141.65Z"/></svg>