<?xml version="1.0" encoding="utf-8"?>
<!-- Generator: Adobe Illustrator 25.4.0, SVG Export Plug-In . SVG Version: 6.00 Build 0)  -->
<svg version="1.1" id="Layer_1" xmlns="http://www.w3.org/2000/svg" xmlns:xlink="http://www.w3.org/1999/xlink" x="0px" y="0px"
	 viewBox="0 0 500 500" style="enable-background:new 0 0 500 500;" xml:space="preserve">
<style type="text/css">
	.st0{fill:url(#SVGID_1_);}
	.st1{fill:url(#SVGID_00000099659761351201557610000010745738951063080858_);}
	.st2{fill:url(#SVGID_00000062158075382559221330000018402918444581092001_);}
	.st3{fill:url(#SVGID_00000126302400480718970950000007409167639928790202_);}
	.st4{fill:url(#SVGID_00000084532080694018755500000009006822660178682013_);}
	.st5{fill:url(#SVGID_00000167382909411187584000000015001149379262178945_);}
	.st6{fill:url(#SVGID_00000072984617062830492310000003708241016727453344_);}
	.st7{fill:url(#SVGID_00000022531038219212198240000001124054705485164936_);}
	.st8{fill:url(#SVGID_00000014609195167062390100000013883139828113937578_);}
	.st9{fill:url(#SVGID_00000000936160042032275300000005996473618821990842_);}
	.st10{fill:url(#SVGID_00000024703931269250950570000011105582848887557525_);}
	.st11{fill:url(#SVGID_00000021809786106176486000000004935250824588803765_);}
	.st12{fill:url(#SVGID_00000067231782680472670620000009111691741938798750_);}
	.st13{fill:url(#SVGID_00000148626149960550710080000009761848368704471196_);}
	.st14{fill:url(#SVGID_00000143618636657650628740000005573588882351895978_);}
	.st15{fill:url(#SVGID_00000143577176632026356030000008207037283513366967_);}
	.st16{fill:url(#SVGID_00000083775400919515569300000016070331165237061275_);}
	.st17{fill:url(#SVGID_00000025439058685999140810000003075515244003379621_);}
	.st18{fill:url(#SVGID_00000019663576812796259570000004484054603598483100_);}
	.st19{fill:url(#SVGID_00000161603930723253818360000005741824855304328369_);}
	.st20{fill:url(#SVGID_00000008835688985385598020000010943224900909866927_);}
	.st21{fill:#FFFFFF;}
	.st22{fill-rule:evenodd;clip-rule:evenodd;}
	.st23{fill-rule:evenodd;clip-rule:evenodd;fill:#FFFFFF;}
	.st24{fill:#F1F1F1;}
	.st25{fill:#EFED00;}
	.st26{fill:url(#SVGID_00000057855647882258176600000006423568038773262754_);}
	.st27{fill:url(#SVGID_00000171000084207236112340000010388481266094815627_);}
	.st28{fill:url(#SVGID_00000147940620806975371700000008452417372514702989_);}
	.st29{fill:url(#SVGID_00000115482348792197612990000008508236865407128728_);}
</style>
<path d="M341.1,213.77c0-0.02,0-0.03,0-0.05v-24.47c0-12.23-9.94-22.19-22.19-22.19h-26.54v-11.78c0-2.49-2.02-4.53-4.53-4.53
	s-4.54,2.02-4.54,4.53v11.78h-67.28v-11.77c0-2.49-2.05-4.52-4.54-4.52s-4.53,2.02-4.53,4.52v11.77h-25.84
	c-12.23,0-22.19,9.96-22.19,22.19v24.17c-0.01,0.12-0.04,0.23-0.04,0.35s0.03,0.23,0.04,0.35v112.93c0,12.23,9.96,22.19,22.19,22.19
	h137.79c12.25,0,22.21-9.94,22.19-22.19V213.81C341.1,213.8,341.1,213.78,341.1,213.77z M181.12,176.13h25.84v9.98
	c0,2.49,2.02,4.53,4.53,4.53c2.49,0,4.52-2.04,4.54-4.53v-9.98h67.28v9.98c0,2.49,2.04,4.52,4.54,4.52s4.54-2.04,4.53-4.52v-9.98
	h26.54c7.25,0,13.14,5.89,13.14,13.12v19.99H168v-19.99C168,182.02,173.89,176.13,181.12,176.13z M318.91,340.17H181.12
	c-7.23,0-13.12-5.89-13.12-13.12V218.29h164.05v108.75C332.05,334.28,326.14,340.17,318.91,340.17z"/>
</svg>
