<?xml version="1.0" encoding="utf-8"?>
<!-- Generator: Adobe Illustrator 25.4.0, SVG Export Plug-In . SVG Version: 6.00 Build 0)  -->
<svg version="1.1" id="Layer_1" xmlns="http://www.w3.org/2000/svg" xmlns:xlink="http://www.w3.org/1999/xlink" x="0px" y="0px"
	 viewBox="0 0 500 500" style="enable-background:new 0 0 500 500;" xml:space="preserve">
<style type="text/css">
	.st0{fill:url(#SVGID_1_);}
	.st1{fill:url(#SVGID_00000010280728427887218380000007335530763104724116_);}
	.st2{fill:url(#SVGID_00000125603116680742210230000009162384617288612266_);}
	.st3{fill:url(#SVGID_00000170993183019620538470000005743658833628163495_);}
	.st4{fill:url(#SVGID_00000070094897180491195880000018133456486940950935_);}
	.st5{fill:url(#SVGID_00000085954218034533671790000009860715704811735697_);}
	.st6{fill:url(#SVGID_00000158002540435718747020000015857180801130883240_);}
	.st7{fill:url(#SVGID_00000071522703242192821660000013431588067511898502_);}
	.st8{fill:url(#SVGID_00000176753108604285546090000003592294992249286051_);}
	.st9{fill:url(#SVGID_00000099660100738967406460000003760598140805788849_);}
	.st10{fill:url(#SVGID_00000122688434837928800720000017372807663304900482_);}
	.st11{fill:url(#SVGID_00000173872067244587548890000001704816625194511550_);}
	.st12{fill:url(#SVGID_00000157999706663093338330000007513898632091856773_);}
	.st13{fill:url(#SVGID_00000166638016169811033870000014051204134680143498_);}
	.st14{fill:url(#SVGID_00000183961573644506963970000017725405499962859958_);}
	.st15{fill:url(#SVGID_00000074417526368357022930000003544406857215220873_);}
	.st16{fill:url(#SVGID_00000114785732788202614930000005873219459881805983_);}
	.st17{fill:url(#SVGID_00000124153286593036476960000005387964213441644453_);}
	.st18{fill:url(#SVGID_00000011739066618721376270000014803441842755961474_);}
	.st19{fill:url(#SVGID_00000180329622584386364440000014518680943461046178_);}
	.st20{fill:url(#SVGID_00000173860107317819304820000000921779686900613782_);}
	.st21{fill:#FFFFFF;}
	.st22{fill-rule:evenodd;clip-rule:evenodd;}
	.st23{fill-rule:evenodd;clip-rule:evenodd;fill:#FFFFFF;}
	.st24{fill:#F1F1F1;}
	.st25{fill:#EFED00;}
	.st26{fill:url(#SVGID_00000161601938378975001060000013974414846651037345_);}
	.st27{fill:url(#SVGID_00000034089024536201637910000017534345464984596656_);}
	.st28{fill:url(#SVGID_00000141448932295578455180000003600820454935757968_);}
	.st29{fill:url(#SVGID_00000033357520617603068070000001658316564179327669_);}
</style>
<g>
	<path class="st21" d="M70.11,261.04c0-19.59,11-33.91,29.9-33.91c15.52,0,25.83,9.48,27.48,24.1h-14.82
		c-0.95-7.44-5.98-11.45-12.6-11.45c-9.29,0-14.76,8.65-14.76,21.25c0,12.4,5.34,21.49,14.69,21.49c7.12,0,12.28-5.28,12.85-14.05
		h14.89c-1.21,15.97-11.64,26.72-27.86,26.72C81.81,295.19,70.11,281.33,70.11,261.04z"/>
	<path class="st21" d="M134.99,261.16c0-20.03,11.9-34.03,30.72-34.03c18.96,0,30.79,14.12,30.79,34.03
		c0,20.1-11.96,34.04-30.72,34.04C146.89,295.19,134.99,281.07,134.99,261.16z M181.3,261.16c0-12.27-5.73-21.37-15.58-21.37
		c-9.99,0-15.52,9.41-15.52,21.37c0,12.09,5.53,21.37,15.52,21.37C175.77,282.53,181.3,273.37,181.3,261.16z"/>
	<path class="st21" d="M209.1,204.81h15.27v15.07H209.1V204.81z M209.22,228.78h15.01v64.76h-15.01V228.78z"/>
	<path class="st21" d="M241.03,228.78h14.44v11.2l-0.57-0.57c2.99-7.77,10.88-12.28,18.83-12.28c13.36,0,21.82,8.91,21.82,24.81
		v41.6H280.6v-38.49c0-10.3-4.64-15.27-11.96-15.27c-7.44,0-12.6,5.73-12.6,15.91v37.84h-15.01V228.78z"/>
	<path class="st25" d="M307.76,261.16c0-20.03,11.9-34.03,30.72-34.03c18.96,0,30.79,14.12,30.79,34.03
		c0,20.1-11.96,34.04-30.72,34.04C319.65,295.19,307.76,281.07,307.76,261.16z M354.07,261.16c0-12.27-5.73-21.37-15.58-21.37
		c-9.99,0-15.52,9.41-15.52,21.37c0,12.09,5.53,21.37,15.52,21.37C348.53,282.53,354.07,273.37,354.07,261.16z"/>
	<path class="st25" d="M376.91,272.04h14.57c0.13,7.38,5.28,11,12.79,11c6.11,0,10.81-2.8,10.81-7.63c0-6.87-7.57-7.57-15.2-9.22
		c-11.32-2.49-21.76-6.62-21.76-19.28c0-13.8,11.13-19.78,24.81-19.78c14.63,0,24.36,6.94,24.74,21.19H413.1
		c-0.13-6.24-4.64-9.04-10.43-9.04c-6.49,0-9.73,2.93-9.73,6.94c0,5.67,5.66,6.17,15.46,8.46c11.58,2.73,21.5,6.99,21.5,19.4
		c0,14.5-12.28,21.12-26.08,21.12C387.46,295.19,377.22,286.42,376.91,272.04z"/>
</g>
</svg>
