<?xml version="1.0" encoding="utf-8"?>
<!-- Generator: Adobe Illustrator 25.4.0, SVG Export Plug-In . SVG Version: 6.00 Build 0)  -->
<svg version="1.1" id="Layer_1" xmlns="http://www.w3.org/2000/svg" xmlns:xlink="http://www.w3.org/1999/xlink" x="0px" y="0px"
	 viewBox="0 0 500 500" style="enable-background:new 0 0 500 500;" xml:space="preserve">
<style type="text/css">
	.st0{fill:url(#SVGID_1_);}
	.st1{fill:url(#SVGID_00000173853721526043778130000008208248089050031771_);}
	.st2{fill:url(#SVGID_00000162317588955469054620000000137122809201394367_);}
	.st3{fill:url(#SVGID_00000098933918985194815200000015698355000605657005_);}
	.st4{fill:url(#SVGID_00000151535755857526334050000002739102183722193292_);}
	.st5{fill:url(#SVGID_00000127728680899587576530000010306341565247759024_);}
	.st6{fill:url(#SVGID_00000001625351877620303440000001364113369082580654_);}
	.st7{fill:url(#SVGID_00000111191363846721600700000009214824686513779602_);}
	.st8{fill:url(#SVGID_00000135682159916568474150000012694093301381624238_);}
	.st9{fill:url(#SVGID_00000065059214414077932390000001455058365509110206_);}
	.st10{fill:url(#SVGID_00000102536552686658858700000011733172818085769897_);}
	.st11{fill:url(#SVGID_00000088849369152929154320000013981075136845391497_);}
	.st12{fill:url(#SVGID_00000052090640133267425240000008205672920801252278_);}
	.st13{fill:url(#SVGID_00000108272718691381877600000017305114782774508725_);}
	.st14{fill:url(#SVGID_00000085943479857305050380000018127367811294780829_);}
	.st15{fill:url(#SVGID_00000062188016037863612550000003610738025761877439_);}
	.st16{fill:url(#SVGID_00000076564842689686592630000017251614578275091369_);}
	.st17{fill:url(#SVGID_00000077326608217490845150000006256146238318840230_);}
	.st18{fill:url(#SVGID_00000124138306602168868320000001561905659008049842_);}
	.st19{fill:url(#SVGID_00000026850000276013625600000010431118382791171512_);}
	.st20{fill:url(#SVGID_00000083063737435094474730000014336989779147483558_);}
	.st21{fill:#FFFFFF;}
	.st22{fill-rule:evenodd;clip-rule:evenodd;}
	.st23{fill-rule:evenodd;clip-rule:evenodd;fill:#FFFFFF;}
	.st24{fill:#F1F1F1;}
	.st25{fill:#EFED00;}
	.st26{fill:url(#SVGID_00000072273342579716127070000000803640385178443186_);}
	.st27{fill:url(#SVGID_00000118383408848580397760000012637886974824727694_);}
	.st28{fill:url(#SVGID_00000022554963979988262990000006987628956194648236_);}
	.st29{fill:url(#SVGID_00000152254950329134497580000012309260164645687183_);}
</style>
<g>
	<circle cx="241.44" cy="250" r="111.15"/>
	<path d="M429.14,267.74c0.56-5.84,0.87-11.76,0.87-17.74c0-103.97-84.59-188.56-188.56-188.56C137.47,61.44,52.88,146.03,52.88,250
		c0,103.97,84.59,188.56,188.56,188.56c79.08,0,146.81-49,174.76-118.18c1.17,0.15,2.32,0.36,3.54,0.36
		c15.12,0,27.37-12.26,27.37-27.37C447.12,281.56,439.61,271.59,429.14,267.74z M241.44,431.83
		c-100.27,0-181.83-81.57-181.83-181.83S141.18,68.17,241.44,68.17c100.27,0,181.83,81.57,181.83,181.83c0,5.49-0.3,10.9-0.79,16.26
		c-0.91-0.09-1.8-0.28-2.74-0.28c-15.12,0-27.37,12.26-27.37,27.37c0,11.54,7.16,21.36,17.26,25.39
		C382.45,385,317.37,431.83,241.44,431.83z"/>
</g>
</svg>
