<?xml version="1.0" encoding="utf-8"?>
<!-- Generator: Adobe Illustrator 25.4.0, SVG Export Plug-In . SVG Version: 6.00 Build 0)  -->
<svg version="1.1" id="Layer_1" xmlns="http://www.w3.org/2000/svg" xmlns:xlink="http://www.w3.org/1999/xlink" x="0px" y="0px"
	 viewBox="0 0 500 500" style="enable-background:new 0 0 500 500;" xml:space="preserve">
<style type="text/css">
	.st0{fill:url(#SVGID_1_);}
	.st1{fill:url(#SVGID_00000031886957011048281870000014018091765043472060_);}
	.st2{fill:url(#SVGID_00000164477917642668627220000005481153315000042662_);}
	.st3{fill:url(#SVGID_00000013156195249811926070000008622371369371742885_);}
	.st4{fill:url(#SVGID_00000173133461971470458640000001904657383245971856_);}
	.st5{fill:url(#SVGID_00000101820453640958815680000009691019359186261146_);}
	.st6{fill:url(#SVGID_00000029761625913385281210000006189203198749267336_);}
	.st7{fill:url(#SVGID_00000045620961821210936870000004126731330073959075_);}
	.st8{fill:url(#SVGID_00000142158603616262380820000011316662302972701079_);}
	.st9{fill:url(#SVGID_00000140714915691196304160000009093426008719042742_);}
	.st10{fill:url(#SVGID_00000160878862862258402370000012411113690782010258_);}
	.st11{fill:url(#SVGID_00000111894428044404228760000006920909120494156961_);}
	.st12{fill:url(#SVGID_00000139271712291135603890000004268695012034768294_);}
	.st13{fill:url(#SVGID_00000165195148768263303900000003661968446534020275_);}
	.st14{fill:url(#SVGID_00000161629429391868039250000014153853942578944915_);}
	.st15{fill:url(#SVGID_00000005250210421750256400000009073510811115892634_);}
	.st16{fill:url(#SVGID_00000163767779953055529090000016119489418002118038_);}
	.st17{fill:url(#SVGID_00000080890886207950544190000017590446675395757477_);}
	.st18{fill:url(#SVGID_00000096037917582378849050000003843988165884897175_);}
	.st19{fill:url(#SVGID_00000083786761735352007820000006249884940110696880_);}
	.st20{fill:url(#SVGID_00000089548484495252724230000007492929424309220235_);}
	.st21{fill:#FFFFFF;}
	.st22{fill-rule:evenodd;clip-rule:evenodd;}
	.st23{fill-rule:evenodd;clip-rule:evenodd;fill:#FFFFFF;}
	.st24{fill:#F1F1F1;}
	.st25{fill:#EFED00;}
	.st26{fill:url(#SVGID_00000124144808678910774630000013125332432582964120_);}
	.st27{fill:url(#SVGID_00000071541783950723948090000014638828283992233143_);}
	.st28{fill:url(#SVGID_00000001654377989206441460000008389976967159673526_);}
	.st29{fill:url(#SVGID_00000117655176918759630550000006740262540583389593_);}
</style>
<path class="st22" d="M387.36,200.58c0.01-4.72-0.53-9.36-2.01-13.84c-4.33-13.07-11.6-23.91-23.8-30.96
	c-28.33-16.36-56.68-32.68-84.94-49.15c-7.68-4.48-15.87-6.73-24.67-6.97c-9.69-0.25-18.91,1.5-27.44,6.46
	c-28.53,16.55-57.23,32.83-85.63,49.61c-16.93,10.01-25.84,25.39-26.05,45.05c-0.35,32.86-0.08,65.72-0.11,98.58
	c0,5.06,0.62,10.01,2.3,14.78c4.47,12.7,11.69,23.24,23.64,30.12c28.11,16.19,56.22,32.37,84.23,48.72
	c7.36,4.3,15.11,6.84,23.57,7.3c10.33,0.57,20.15-1.11,29.25-6.39c28.34-16.45,56.68-32.88,85.12-49.17
	c7.93-4.55,14.05-10.74,18.71-18.48c4.49-7.47,7.66-15.44,7.74-24.27c0.14-17.31,0.04-34.63,0.04-51.94h0.04
	C387.35,233.54,387.33,217.05,387.36,200.58z"/>
<g>
	<g>
		<path class="st21" d="M297.27,206.63c-8.69-3.99-18.02-6.93-27.76-8.61c-0.18-0.03-0.35,0.05-0.45,0.21
			c-1.2,2.13-2.53,4.91-3.46,7.1c-10.48-1.57-20.91-1.57-31.18,0c-0.93-2.24-2.31-4.97-3.51-7.1c-0.09-0.16-0.27-0.24-0.45-0.21
			c-9.74,1.68-19.07,4.62-27.76,8.61c-0.08,0.03-0.14,0.09-0.18,0.16c-17.68,26.42-22.53,52.19-20.15,77.64
			c0.01,0.12,0.08,0.24,0.18,0.32c11.67,8.57,22.97,13.77,34.06,17.22c0.18,0.05,0.37-0.01,0.48-0.16
			c2.62-3.58,4.96-7.36,6.97-11.33c0.12-0.23,0.01-0.51-0.24-0.6c-3.71-1.41-7.24-3.12-10.64-5.07c-0.27-0.16-0.29-0.54-0.04-0.73
			c0.72-0.54,1.43-1.09,2.11-1.66c0.12-0.1,0.3-0.12,0.44-0.06c22.32,10.19,46.49,10.19,68.55,0c0.15-0.07,0.32-0.05,0.45,0.05
			c0.68,0.56,1.4,1.13,2.12,1.66c0.25,0.18,0.23,0.57-0.04,0.73c-3.4,1.99-6.93,3.66-10.65,5.07c-0.24,0.09-0.35,0.37-0.23,0.61
			c2.05,3.97,4.39,7.75,6.96,11.33c0.11,0.15,0.3,0.22,0.48,0.16c11.15-3.45,22.45-8.65,34.11-17.22c0.1-0.08,0.17-0.19,0.18-0.31
			c2.84-29.42-4.76-54.98-20.17-77.64C297.41,206.72,297.35,206.67,297.27,206.63z M227.38,268.93c-6.72,0-12.26-6.17-12.26-13.75
			s5.43-13.75,12.26-13.75c6.88,0,12.37,6.22,12.26,13.75C239.64,262.76,234.21,268.93,227.38,268.93z M272.7,268.93
			c-6.72,0-12.26-6.17-12.26-13.75s5.43-13.75,12.26-13.75c6.88,0,12.37,6.22,12.26,13.75C284.96,262.76,279.59,268.93,272.7,268.93
			z"/>
	</g>
</g>
</svg>
