<?xml version="1.0" encoding="utf-8"?>
<!-- Generator: Adobe Illustrator 25.4.0, SVG Export Plug-In . SVG Version: 6.00 Build 0)  -->
<svg version="1.1" id="Layer_1" xmlns="http://www.w3.org/2000/svg" xmlns:xlink="http://www.w3.org/1999/xlink" x="0px" y="0px"
	 viewBox="0 0 500 500" style="enable-background:new 0 0 500 500;" xml:space="preserve">
<style type="text/css">
	.st0{fill:url(#SVGID_1_);}
	.st1{fill:url(#SVGID_00000000189453235821181290000015283303017893785989_);}
	.st2{fill:url(#SVGID_00000061445861675180199380000018046668923779145895_);}
	.st3{fill:url(#SVGID_00000160876427413022432020000017653886325405737132_);}
	.st4{fill:url(#SVGID_00000147908539880913616260000005130563583715447464_);}
	.st5{fill:url(#SVGID_00000178907213952518691840000004882936686519758777_);}
	.st6{fill:url(#SVGID_00000119102858450158472140000012418639512531915651_);}
	.st7{fill:url(#SVGID_00000083796285345728506640000014436011806812467849_);}
	.st8{fill:url(#SVGID_00000107546360920739514170000005974479226822345134_);}
	.st9{fill:url(#SVGID_00000065062786885728385840000010351222648486783897_);}
	.st10{fill:url(#SVGID_00000035518383600782089920000013611890599920789913_);}
	.st11{fill:url(#SVGID_00000066499253021501151090000009224866529395240366_);}
	.st12{fill:url(#SVGID_00000134930503736173456520000000167633837105759151_);}
	.st13{fill:url(#SVGID_00000154405225907169461090000007950490071433827468_);}
	.st14{fill:url(#SVGID_00000163034430824597756570000001444754756767028354_);}
	.st15{fill:url(#SVGID_00000142871720100036740360000009658829993561871790_);}
	.st16{fill:url(#SVGID_00000041288196261578432360000013362333042277168269_);}
	.st17{fill:url(#SVGID_00000049193102669335154790000013696803205473502344_);}
	.st18{fill:url(#SVGID_00000029038024778562494410000013176849980528302504_);}
	.st19{fill:url(#SVGID_00000111179645471828210200000013933441737531041440_);}
	.st20{fill:url(#SVGID_00000097498930051402026900000015917891157116853637_);}
	.st21{fill:#FFFFFF;}
	.st22{fill-rule:evenodd;clip-rule:evenodd;}
	.st23{fill-rule:evenodd;clip-rule:evenodd;fill:#FFFFFF;}
	.st24{fill:#F1F1F1;}
	.st25{fill:#EFED00;}
	.st26{fill:url(#SVGID_00000141425259673404075210000010496865973644745624_);}
	.st27{fill:url(#SVGID_00000051345394182804153280000006489423113561148808_);}
	.st28{fill:url(#SVGID_00000116940290624273889010000001321748167170569916_);}
	.st29{fill:url(#SVGID_00000056428675561147102770000003384257296362616225_);}
</style>
<g>
	<path class="st23" d="M387.36,200.58c0.01-4.72-0.53-9.36-2.01-13.84c-4.33-13.07-11.6-23.91-23.8-30.96
		c-28.33-16.36-56.68-32.68-84.94-49.15c-7.68-4.48-15.87-6.73-24.67-6.97c-9.69-0.25-18.91,1.5-27.44,6.46
		c-28.53,16.55-57.23,32.83-85.63,49.61c-16.93,10.01-25.84,25.39-26.05,45.05c-0.35,32.86-0.08,65.72-0.11,98.58
		c0,5.06,0.62,10.01,2.3,14.78c4.47,12.7,11.69,23.24,23.64,30.12c28.11,16.19,56.22,32.37,84.23,48.72
		c7.36,4.3,15.11,6.84,23.57,7.3c10.33,0.57,20.15-1.11,29.25-6.39c28.34-16.45,56.68-32.88,85.12-49.17
		c7.93-4.55,14.05-10.74,18.71-18.48c4.49-7.47,7.66-15.44,7.74-24.27c0.14-17.31,0.04-34.63,0.04-51.94h0.04
		C387.35,233.54,387.33,217.05,387.36,200.58z"/>
	<path class="st22" d="M233.08,250.51v62.96c0,0.91,0.73,1.64,1.64,1.64h23.38c0.91,0,1.64-0.73,1.64-1.64v-63.99h16.95
		c0.85,0,1.56-0.65,1.63-1.5l1.63-19.28c0.08-0.96-0.67-1.78-1.63-1.78h-18.58v-13.68c0-3.21,2.6-5.8,5.81-5.8h13.06
		c0.91,0,1.64-0.73,1.64-1.64v-19.28c0-0.91-0.73-1.64-1.64-1.64h-22.07c-12.95,0-23.45,10.5-23.45,23.45v18.59h-11.69
		c-0.91,0-1.64,0.73-1.64,1.64v19.28c0,0.91,0.73,1.64,1.64,1.64h11.69V250.51z"/>
</g>
</svg>
