<?xml version="1.0" encoding="utf-8"?>
<!-- Generator: Adobe Illustrator 25.4.0, SVG Export Plug-In . SVG Version: 6.00 Build 0)  -->
<svg version="1.1" id="Layer_1" xmlns="http://www.w3.org/2000/svg" xmlns:xlink="http://www.w3.org/1999/xlink" x="0px" y="0px"
	 viewBox="0 0 500 500" style="enable-background:new 0 0 500 500;" xml:space="preserve">
<style type="text/css">
	.st0{fill:url(#SVGID_1_);}
	.st1{fill:url(#SVGID_00000081619497709526816010000017401723725561021577_);}
	.st2{fill:url(#SVGID_00000017495444493982260370000010412071242960752831_);}
	.st3{fill:url(#SVGID_00000094590405213742915750000016883311858733239992_);}
	.st4{fill:url(#SVGID_00000080923475156557079870000014648265401481970079_);}
	.st5{fill:url(#SVGID_00000179608196726154935260000007612325652025331091_);}
	.st6{fill:url(#SVGID_00000098906302212819040460000010503959343955933337_);}
	.st7{fill:url(#SVGID_00000133512746797776452080000009018100979123181982_);}
	.st8{fill:url(#SVGID_00000123403050734082508560000018107341847343520174_);}
	.st9{fill:url(#SVGID_00000022534962528155519310000012947727028729642369_);}
	.st10{fill:url(#SVGID_00000054956983114830889080000007304857570625644928_);}
	.st11{fill:url(#SVGID_00000151530439212553180400000000719156829012951426_);}
	.st12{fill:url(#SVGID_00000068676967432297779290000010931943105978734212_);}
	.st13{fill:url(#SVGID_00000036218503155618086020000004025772935079018889_);}
	.st14{fill:url(#SVGID_00000107565568615367409950000011079310018785832375_);}
	.st15{fill:url(#SVGID_00000092425338915527594330000012154207932025588354_);}
	.st16{fill:url(#SVGID_00000101089936885189341870000013830914504072876423_);}
	.st17{fill:url(#SVGID_00000090262870255168629090000000849341458809681287_);}
	.st18{fill:url(#SVGID_00000078041282975177863800000008560809358978126516_);}
	.st19{fill:url(#SVGID_00000031206776244678352040000009574134030876654218_);}
	.st20{fill:url(#SVGID_00000109720000229074091280000010304258654656570017_);}
	.st21{fill:#FFFFFF;}
	.st22{fill-rule:evenodd;clip-rule:evenodd;}
	.st23{fill-rule:evenodd;clip-rule:evenodd;fill:#FFFFFF;}
	.st24{fill:#F1F1F1;}
	.st25{fill:#EFED00;}
	.st26{fill:url(#SVGID_00000042715743267494519660000016876400430898569383_);}
	.st27{fill:url(#SVGID_00000010277689199445558660000003161685823448720034_);}
	.st28{fill:url(#SVGID_00000125599603943455489770000017570010587940117130_);}
	.st29{fill:url(#SVGID_00000124867068749888880380000005175418928077998244_);}
</style>
<path class="st22" d="M387.36,200.58c0.01-4.72-0.53-9.36-2.01-13.84c-4.33-13.07-11.6-23.91-23.8-30.96
	c-28.33-16.36-56.68-32.68-84.94-49.15c-7.68-4.48-15.87-6.73-24.67-6.97c-9.69-0.25-18.91,1.5-27.44,6.46
	c-28.53,16.55-57.23,32.83-85.63,49.61c-16.93,10.01-25.84,25.39-26.05,45.05c-0.35,32.86-0.08,65.72-0.11,98.58
	c0,5.06,0.62,10.01,2.3,14.78c4.47,12.7,11.69,23.24,23.64,30.12c28.11,16.19,56.22,32.37,84.23,48.72
	c7.36,4.3,15.11,6.84,23.57,7.3c10.33,0.57,20.15-1.11,29.25-6.39c28.34-16.45,56.68-32.88,85.12-49.17
	c7.93-4.55,14.05-10.74,18.71-18.48c4.49-7.47,7.66-15.44,7.74-24.27c0.14-17.31,0.04-34.63,0.04-51.94h0.04
	C387.35,233.54,387.33,217.05,387.36,200.58z"/>
<path class="st23" d="M233.08,250.51v62.96c0,0.91,0.73,1.64,1.64,1.64h23.38c0.91,0,1.64-0.73,1.64-1.64v-63.99h16.95
	c0.85,0,1.56-0.65,1.63-1.5l1.63-19.28c0.08-0.96-0.67-1.78-1.63-1.78h-18.58v-13.68c0-3.21,2.6-5.8,5.81-5.8h13.06
	c0.91,0,1.64-0.73,1.64-1.64v-19.28c0-0.91-0.73-1.64-1.64-1.64h-22.07c-12.95,0-23.45,10.5-23.45,23.45v18.59h-11.69
	c-0.91,0-1.64,0.73-1.64,1.64v19.28c0,0.91,0.73,1.64,1.64,1.64h11.69V250.51z"/>
</svg>
