<?xml version="1.0" ?><!DOCTYPE svg  PUBLIC '-//W3C//DTD SVG 1.1//EN'  'http://www.w3.org/Graphics/SVG/1.1/DTD/svg11.dtd'><svg id="Capa_1" style="enable-background:new 0 0 59.997 59.997;" version="1.1" viewBox="0 0 59.997 59.997" xml:space="preserve" xmlns="http://www.w3.org/2000/svg" xmlns:xlink="http://www.w3.org/1999/xlink"><path d="M59.206,0.293c-0.391-0.391-1.023-0.391-1.414,0L54.084,4H30.802L1.532,33.511c-0.667,0.666-1.034,1.553-1.034,2.495  s0.367,1.829,1.034,2.495l20.466,20.466c0.687,0.687,1.588,1.03,2.491,1.03c0.906,0,1.814-0.346,2.508-1.04l28.501-29.271V5.414  l3.707-3.707C59.596,1.316,59.596,0.684,59.206,0.293z M23.412,57.553L2.946,37.087c-0.289-0.289-0.448-0.673-0.448-1.081  s0.159-0.792,0.451-1.084l8.85-8.923l22.545,22.546l-8.771,9.008C24.978,58.148,24.008,58.148,23.412,57.553z M53.499,28.874  L35.74,47.112L13.208,24.579L31.635,6h20.45l-4.833,4.833C46.461,10.309,45.516,10,44.499,10c-2.757,0-5,2.243-5,5s2.243,5,5,5  s5-2.243,5-5c0-1.017-0.309-1.962-0.833-2.753l4.833-4.833V28.874z M47.499,15c0,1.654-1.346,3-3,3s-3-1.346-3-3s1.346-3,3-3  c0.462,0,0.894,0.114,1.285,0.301l-1.992,1.992c-0.391,0.391-0.391,1.023,0,1.414C43.987,15.902,44.243,16,44.499,16  s0.512-0.098,0.707-0.293l1.992-1.992C47.385,14.106,47.499,14.538,47.499,15z"/><g/><g/><g/><g/><g/><g/><g/><g/><g/><g/><g/><g/><g/><g/><g/></svg>
