<?xml version="1.0" encoding="utf-8"?>
<!-- Generator: Adobe Illustrator 25.4.0, SVG Export Plug-In . SVG Version: 6.00 Build 0)  -->
<svg version="1.1" id="Layer_1" xmlns="http://www.w3.org/2000/svg" xmlns:xlink="http://www.w3.org/1999/xlink" x="0px" y="0px"
	 viewBox="0 0 500 500" style="enable-background:new 0 0 500 500;" xml:space="preserve">
<style type="text/css">
	.st0{fill:url(#SVGID_1_);}
	.st1{fill:url(#SVGID_00000180336724225804245740000000495946489444725683_);}
	.st2{fill:url(#SVGID_00000147191521249483604300000013854270542080635014_);}
	.st3{fill:url(#SVGID_00000145036813727668408930000015054390258093344945_);}
	.st4{fill:url(#SVGID_00000074403630700918116680000015963285501671915425_);}
	.st5{fill:url(#SVGID_00000056405309128571532530000007779880377342175650_);}
	.st6{fill:url(#SVGID_00000155109075482281211470000003691016977200919211_);}
	.st7{fill:url(#SVGID_00000171699964308475224960000015706273355220719767_);}
	.st8{fill:url(#SVGID_00000133500229029569002320000009609648267336731550_);}
	.st9{fill:url(#SVGID_00000149365131296407752180000005031788660498361753_);}
	.st10{fill:url(#SVGID_00000144301840791962426010000012349868162090293133_);}
	.st11{fill:url(#SVGID_00000108998151709163472570000005018725535636036495_);}
	.st12{fill:url(#SVGID_00000176020884082376732980000002892820829416448436_);}
	.st13{fill:url(#SVGID_00000033327257419114876440000010534277558368983949_);}
	.st14{fill:url(#SVGID_00000000939772198608074400000012710217153402210457_);}
	.st15{fill:url(#SVGID_00000159449276918439381230000017289649016799353743_);}
	.st16{fill:url(#SVGID_00000139265581446379287490000010167530668511903665_);}
	.st17{fill:url(#SVGID_00000151534875873079445530000004528947507204808604_);}
	.st18{fill:url(#SVGID_00000125599434616076092440000003454825310093743763_);}
	.st19{fill:url(#SVGID_00000133521780470931302520000010950881597079117983_);}
	.st20{fill:url(#SVGID_00000051362185185247890550000013457572182081566889_);}
	.st21{fill:#FFFFFF;}
	.st22{fill-rule:evenodd;clip-rule:evenodd;}
	.st23{fill-rule:evenodd;clip-rule:evenodd;fill:#FFFFFF;}
	.st24{fill:#F1F1F1;}
	.st25{fill:#EFED00;}
	.st26{fill:url(#SVGID_00000001663438659981881530000015736437111019418011_);}
	.st27{fill:url(#SVGID_00000181058531676568448100000006141649931972184232_);}
	.st28{fill:url(#SVGID_00000174563463277717282760000014399851163641024132_);}
	.st29{fill:url(#SVGID_00000163056319756439594560000004452532448451675060_);}
</style>
<g>
	<path d="M382.06,263.66c7.14-7.79,7.15-19.53-0.07-27.4l-65.22-68.49c-3.94-3.94-8.93-6.11-14.07-6.11l-145.18,0
		c-12.06,0-23.36,4.65-31.81,13.11c-8.72,8.72-13.37,20.06-13.11,31.81l0,86.36c0,12.07,4.66,23.36,13.11,31.81
		c8.72,8.72,20.06,13.37,31.8,13.11l145.2,0.46c5.14,0,10.13-2.17,14.07-6.11L382.06,263.66z M303.94,180.41l65.22,68.49
		c0.58,0.58,0.58,1.62-0.1,2.3l-65.25,68.52c-0.34,0.34-0.63,0.47-0.71,0.46l-145.81-0.04c-7.21,0-13.98-2.8-19.08-7.9
		s-7.9-11.87-7.89-19.07l0-86.36c0-7.2,2.8-13.98,7.89-19.07c5.09-5.09,11.87-7.9,19.08-7.9l145.19,0
		C302.75,179.85,303.44,179.91,303.94,180.41z"/>
	<path d="M254.38,275.22c6.68,6.68,15.56,10.37,24.99,10.36c19.62,0,35.58-15.97,35.58-35.58c0-9.43-3.68-18.3-10.36-24.99
		c-6.68-6.68-15.56-10.37-24.99-10.36c-9.35,0-18.24,3.74-25.04,10.54c-6.52,6.52-10.27,15.36-10.54,25.04
		C244.01,259.66,247.69,268.53,254.38,275.22z M279.59,232.6c9.44,0,17.4,7.97,17.4,17.4c0,5.76-2.9,9.87-5.33,12.31
		c-3.24,3.24-7.64,5.09-12.07,5.1c-9.41,0-17.21-7.82-17.4-17.45C262.22,240.54,270.18,232.6,279.59,232.6z"/>
</g>
</svg>
