<?xml version="1.0" encoding="utf-8"?>
<!-- Generator: Adobe Illustrator 25.4.0, SVG Export Plug-In . SVG Version: 6.00 Build 0)  -->
<svg version="1.1" id="Layer_1" xmlns="http://www.w3.org/2000/svg" xmlns:xlink="http://www.w3.org/1999/xlink" x="0px" y="0px"
	 viewBox="0 0 500 500" style="enable-background:new 0 0 500 500;" xml:space="preserve">
<style type="text/css">
	.st0{fill:url(#SVGID_1_);}
	.st1{fill:url(#SVGID_00000074434461391147997080000012573111410817512638_);}
	.st2{fill:url(#SVGID_00000036243097297665544490000002934589562684990875_);}
	.st3{fill:url(#SVGID_00000098208955296842692740000007611202201828479882_);}
	.st4{fill:url(#SVGID_00000176008422103962411320000004221024568959034040_);}
	.st5{fill:url(#SVGID_00000053513191076763671030000017502245641213135786_);}
	.st6{fill:url(#SVGID_00000075134894547014963090000000773235297700354185_);}
	.st7{fill:url(#SVGID_00000065039001817126354810000017635534161613650336_);}
	.st8{fill:url(#SVGID_00000112616097991364922870000006580976728819999157_);}
	.st9{fill:url(#SVGID_00000121985347851041508220000006290333515071910273_);}
	.st10{fill:url(#SVGID_00000034053294503496249660000006205028442595102607_);}
	.st11{fill:url(#SVGID_00000047750658932196432050000015414522542914559912_);}
	.st12{fill:url(#SVGID_00000178203409965453982900000006197888811144760221_);}
	.st13{fill:url(#SVGID_00000057854690389410273030000013820027545796891041_);}
	.st14{fill:url(#SVGID_00000026881034117556324180000013566484144101840575_);}
	.st15{fill:url(#SVGID_00000004513855530015422320000010369037511063568554_);}
	.st16{fill:url(#SVGID_00000168803523872558973380000016932344857673444495_);}
	.st17{fill:url(#SVGID_00000036248777533103222150000014120182267200063658_);}
	.st18{fill:url(#SVGID_00000086677104001952111640000008850833150358485157_);}
	.st19{fill:url(#SVGID_00000153705908663226444610000013631345000083952772_);}
	.st20{fill:url(#SVGID_00000174577573605158643820000005528754519783135876_);}
	.st21{fill:#FFFFFF;}
	.st22{fill-rule:evenodd;clip-rule:evenodd;}
	.st23{fill-rule:evenodd;clip-rule:evenodd;fill:#FFFFFF;}
	.st24{fill:#F1F1F1;}
	.st25{fill:#EFED00;}
	.st26{fill:url(#SVGID_00000079464301352218902260000002125961087917518994_);}
	.st27{fill:url(#SVGID_00000142872389256803588170000014497916635782277786_);}
	.st28{fill:url(#SVGID_00000044900784958506034050000007806361105309011332_);}
	.st29{fill:url(#SVGID_00000134943609082640877930000000928381851486503608_);}
</style>
<g>
	
		<linearGradient id="SVGID_1_" gradientUnits="userSpaceOnUse" x1="-753.4445" y1="-1616.3634" x2="-507.0025" y2="-1616.3634" gradientTransform="matrix(0.7071 0.7071 -0.7071 0.7071 -472.4492 1838.4606)">
		<stop  offset="0" style="stop-color:#DF7800"/>
		<stop  offset="0.3789" style="stop-color:#DA3AA7"/>
		<stop  offset="0.7304" style="stop-color:#243DF5"/>
		<stop  offset="1" style="stop-color:#7DEBB2"/>
	</linearGradient>
	<path class="st0" d="M382.06,263.66c7.14-7.79,7.15-19.53-0.07-27.4l-65.22-68.49c-3.94-3.94-8.93-6.11-14.07-6.11l-145.18,0
		c-12.06,0-23.36,4.65-31.81,13.11c-8.72,8.72-13.37,20.06-13.11,31.81l0,86.36c0,12.07,4.66,23.36,13.11,31.81
		c8.72,8.72,20.06,13.37,31.8,13.11l145.2,0.46c5.14,0,10.13-2.17,14.07-6.11L382.06,263.66z M303.94,180.41l65.22,68.49
		c0.58,0.58,0.58,1.62-0.1,2.3l-65.25,68.52c-0.34,0.34-0.63,0.47-0.71,0.46l-145.81-0.04c-7.21,0-13.98-2.8-19.08-7.9
		s-7.9-11.87-7.89-19.07l0-86.36c0-7.2,2.8-13.98,7.89-19.07c5.09-5.09,11.87-7.9,19.08-7.9l145.19,0
		C302.75,179.85,303.44,179.91,303.94,180.41z"/>
	
		<linearGradient id="SVGID_00000072986356574158221640000012955465944924807068_" gradientUnits="userSpaceOnUse" x1="-626.6831" y1="-1654.8196" x2="-556.0352" y2="-1654.8196" gradientTransform="matrix(0.7071 0.7071 -0.7071 0.7071 -472.4492 1838.4606)">
		<stop  offset="0" style="stop-color:#DF7800"/>
		<stop  offset="0.3789" style="stop-color:#DA3AA7"/>
		<stop  offset="0.7304" style="stop-color:#243DF5"/>
		<stop  offset="1" style="stop-color:#7DEBB2"/>
	</linearGradient>
	<path style="fill:url(#SVGID_00000072986356574158221640000012955465944924807068_);" d="M254.38,275.22
		c6.68,6.68,15.56,10.37,24.99,10.36c19.62,0,35.58-15.97,35.58-35.58c0-9.43-3.68-18.3-10.36-24.99
		c-6.68-6.68-15.56-10.37-24.99-10.36c-9.35,0-18.24,3.74-25.04,10.54c-6.52,6.52-10.27,15.36-10.54,25.04
		C244.01,259.66,247.69,268.53,254.38,275.22z M279.59,232.6c9.44,0,17.4,7.97,17.4,17.4c0,5.76-2.9,9.87-5.33,12.31
		c-3.24,3.24-7.64,5.09-12.07,5.1c-9.41,0-17.21-7.82-17.4-17.45C262.22,240.54,270.18,232.6,279.59,232.6z"/>
</g>
</svg>
