<?xml version="1.0" encoding="utf-8"?>
<!-- Generator: Adobe Illustrator 25.4.0, SVG Export Plug-In . SVG Version: 6.00 Build 0)  -->
<svg version="1.1" id="Layer_1" xmlns="http://www.w3.org/2000/svg" xmlns:xlink="http://www.w3.org/1999/xlink" x="0px" y="0px"
	 viewBox="0 0 500 500" style="enable-background:new 0 0 500 500;" xml:space="preserve">
<style type="text/css">
	.st0{fill:url(#SVGID_1_);}
	.st1{fill:url(#SVGID_00000180347288449246253150000005383896952320367521_);}
	.st2{fill:url(#SVGID_00000020371553028829757750000015693687954840291729_);}
	.st3{fill:url(#SVGID_00000148642103106060981750000016734890139687864502_);}
	.st4{fill:url(#SVGID_00000163073999947494025080000015527215227100531872_);}
	.st5{fill:url(#SVGID_00000172418120945985688440000001411003798182761890_);}
	.st6{fill:url(#SVGID_00000019643433516944670340000002826432820013696424_);}
	.st7{fill:url(#SVGID_00000149348087666729911260000007253925979940161928_);}
	.st8{fill:url(#SVGID_00000172441840557998098560000009576544630059420836_);}
	.st9{fill:url(#SVGID_00000029031116000847788130000003462077322540802194_);}
	.st10{fill:url(#SVGID_00000079452967112514568820000017991134214614795688_);}
	.st11{fill:url(#SVGID_00000134225510409299164160000005034949444956756911_);}
	.st12{fill:url(#SVGID_00000145770180899662858600000001512615538921178040_);}
	.st13{fill:url(#SVGID_00000022559375141560890050000006471476269182741179_);}
	.st14{fill:url(#SVGID_00000003795166568881776620000005899541054953628302_);}
	.st15{fill:url(#SVGID_00000123437738868700780170000008366415606122103961_);}
	.st16{fill:url(#SVGID_00000049942714072079028840000015601098745672929207_);}
	.st17{fill:url(#SVGID_00000047039398142689061370000005415593221624427922_);}
	.st18{fill:url(#SVGID_00000139261497510490150780000012595142623688154499_);}
	.st19{fill:url(#SVGID_00000124856198258929591430000006674356609933747840_);}
	.st20{fill:url(#SVGID_00000155144477666540855800000016614279242230430909_);}
	.st21{fill:#FFFFFF;}
	.st22{fill-rule:evenodd;clip-rule:evenodd;}
	.st23{fill-rule:evenodd;clip-rule:evenodd;fill:#FFFFFF;}
	.st24{fill:#F1F1F1;}
	.st25{fill:#EFED00;}
	.st26{fill:url(#SVGID_00000041982020200871190410000001506823341669860008_);}
	.st27{fill:url(#SVGID_00000021801717628914458300000009156297961729922211_);}
	.st28{fill:url(#SVGID_00000085210408477694767120000011557461678885251980_);}
	.st29{fill:url(#SVGID_00000009576828959132834060000009775488130130137266_);}
</style>
<g>
	<g>
		<rect x="100.82" y="174.88" class="st21" width="110.67" height="53.68"/>
		<path class="st21" d="M312.33,143.24c10.78-11.14,10.78-29.39,0-40.52c-5.21-5.33-11.97-8.29-19.31-8.29
			c-7.23,0-14.1,2.96-19.31,8.29c-7.47,7.7-13.39,36.38-16.23,57.23C277.61,156.98,304.86,150.82,312.33,143.24L312.33,143.24z"/>
		<path class="st21" d="M242.53,159.95c-2.84-20.85-8.77-49.53-16.23-57.23c-5.21-5.33-11.97-8.29-19.31-8.29
			c-7.23,0-14.1,2.96-19.31,8.29c-10.78,11.14-10.78,29.39,0,40.52l0,0C195.14,150.82,222.39,156.98,242.53,159.95z"/>
		<rect x="288.51" y="174.88" class="st21" width="110.67" height="53.68"/>
		<rect x="113.38" y="241.82" class="st21" width="98.11" height="163.76"/>
		<rect x="288.51" y="241.82" class="st21" width="98.11" height="163.76"/>
		<polygon class="st21" points="275.36,235.19 275.36,228.67 275.36,174.88 224.64,174.88 224.64,228.67 224.64,235.19 
			224.64,405.58 275.36,405.58 		"/>
	</g>
</g>
</svg>
