<svg viewBox="0 0 96 96" xmlns="http://www.w3.org/2000/svg" xmlns:xlink="http://www.w3.org/1999/xlink" id="Icons_BarGraphUpwardTrend_LTR" overflow="hidden"><style>
.MsftOfcThm_Accent2_Fill {
 fill:#64C24A; 
}
</style>
<path d="M20 13 14 13 14 83 83 83 83 77 20 77 20 13Z" class="MsftOfcThm_Accent2_Fill" stroke-width="0.999947" fill="#64C24A"/><rect x="68" y="13" width="15" height="58" class="MsftOfcThm_Accent2_Fill" stroke-width="0.999947" fill="#64C24A" transform="matrix(-1 -1.22465e-16 1.22465e-16 -1 151 84)"/><rect x="47" y="33" width="15" height="38" class="MsftOfcThm_Accent2_Fill" stroke-width="0.999947" fill="#64C24A" transform="matrix(-1 -1.22465e-16 1.22465e-16 -1 109 104)"/><rect x="26" y="51" width="15" height="20" class="MsftOfcThm_Accent2_Fill" stroke-width="0.999947" fill="#64C24A" transform="matrix(-1 -1.22465e-16 1.22465e-16 -1 67 122)"/><path d="M58 26.74 58 13 44.26 13 49.72 18.46 25.59 42.59 28.41 45.41 52.54 21.29 58 26.74Z" class="MsftOfcThm_Accent2_Fill" stroke-width="0.999947" fill="#64C24A"/></svg>