<svg viewBox="0 0 96 96" xmlns="http://www.w3.org/2000/svg" xmlns:xlink="http://www.w3.org/1999/xlink" id="Icons_ArrowCircle" overflow="hidden"><style>
.MsftOfcThm_Accent3_Fill {
 fill:#297D53; 
}
</style>
<path d="M45.22 72.81C32.676 70.7444 23.4835 59.8829 23.52 47.17 23.5389 45.5954 23.6995 44.0258 24 42.48L24.08 42.48 25.91 45.65C26.4623 46.6082 27.6868 46.9373 28.645 46.385 29.6032 45.8327 29.9323 44.6082 29.38 43.65L25.13 36.3C24.8654 35.8423 24.4304 35.5079 23.92 35.37 23.4069 35.2321 22.86 35.3041 22.4 35.57L15 39.84C14.0213 40.352 13.6429 41.5605 14.1549 42.5392 14.6669 43.518 15.8754 43.8963 16.8541 43.3843 16.9039 43.3583 16.9526 43.3302 17 43.3L20.06 41.53C19.7041 43.389 19.5233 45.2773 19.52 47.17 19.4746 61.8256 30.0618 74.3524 44.52 76.75L44.86 76.75C45.9646 76.8384 46.9316 76.0146 47.02 74.91 47.1084 73.8054 46.2846 72.8384 45.18 72.75Z" class="MsftOfcThm_Accent3_Fill" fill="#297D53"/><path d="M79.52 47.17C79.5241 43.5966 78.8909 40.0511 77.65 36.7 77.2634 35.6645 76.1105 35.1384 75.075 35.525 74.0395 35.9116 73.5134 37.0645 73.9 38.1 78.9073 51.558 72.0567 66.5272 58.5986 71.5345 58.5026 71.5703 58.4064 71.6054 58.31 71.64L58.31 71.64 60.13 68.46C60.6823 67.499 60.351 66.2723 59.39 65.72 58.429 65.1677 57.2023 65.499 56.65 66.46L52.45 73.83C51.9005 74.7882 52.2317 76.0104 53.1899 76.5599 53.1899 76.56 53.19 76.56 53.19 76.56L60.56 80.77C61.521 81.3223 62.7477 80.991 63.3 80.03 63.8523 79.069 63.521 77.8423 62.56 77.29L59.44 75.52C71.5057 71.3344 79.5755 59.9409 79.52 47.17Z" class="MsftOfcThm_Accent3_Fill" fill="#297D53"/><path d="M62.52 27.14C61.4154 27.14 60.52 28.0354 60.52 29.14 60.52 30.2446 61.4154 31.14 62.52 31.14L70.74 31.14C70.8166 31.1449 70.8934 31.1449 70.97 31.14 71.3549 31.1401 71.731 31.0252 72.05 30.81L72.19 30.72 72.25 30.67 72.25 30.67 72.38 30.57C72.7715 30.1968 72.9952 29.6809 73 29.14L73 20.66C73 19.5554 72.1046 18.66 71 18.66 69.8954 18.66 69 19.5554 69 20.66L69 24.31 69 24.31C56.389 13.5639 37.4543 15.0757 26.7082 27.6867 26.6619 27.7409 26.6159 27.7954 26.57 27.85 25.8576 28.695 25.965 29.9576 26.81 30.67 27.655 31.3824 28.9176 31.275 29.63 30.43 38.8139 19.4911 55.1023 18.0088 66.11 27.11Z" class="MsftOfcThm_Accent3_Fill" fill="#297D53"/></svg>