<svg viewBox="0 0 96 96" xmlns="http://www.w3.org/2000/svg" xmlns:xlink="http://www.w3.org/1999/xlink" id="Icons_Avocado" overflow="hidden"><style>
.MsftOfcThm_Accent1_Fill {
 fill:#9ACB39; 
}
</style>
<path d="M82.92 29.77C79.0551 25.8307 73.1961 24.6107 68.08 26.68 61.1533 29.4133 55.1267 31.9367 50 34.25 48.33 30.09 46.56 25.87 44.81 21.85 43.0563 17.7199 39.1185 14.936 34.64 14.66 34.91 12.34 35.64 9.35 37.49 7.3 38.0972 6.73642 38.1325 5.78733 37.569 5.18015 37.0054 4.57297 36.0563 4.53762 35.4491 5.1012 35.3836 5.162 35.3237 5.22853 35.27 5.3 34.524 6.14164 33.895 7.08011 33.4 8.09 31.7161 7.93995 30.019 8.11305 28.4 8.6 23.68 7 17.3 6.29 13.55 7.91 9.52356 9.61796 6.66737 13.2875 6 17.61 6 17.61 16.23 20 22.91 17.16 25.51 16.08 27.86 12.69 29.23 10.41 30.3316 10.115 31.47 9.98027 32.61 10.01 32.0971 11.5707 31.7616 13.1842 31.61 14.82 27.6459 15.4825 24.2938 18.1219 22.72 21.82 16.22 36.8 9.27 54.48 9.27 61.69 9.27 75.221 20.239 86.19 33.77 86.19 34.31 86.19 34.85 86.17 35.39 86.13 45.6397 92.3045 58.7766 90.7088 67.25 82.26 71.54 78 77.85 65.3 86 44.6 88.0673 39.4887 86.8516 33.6354 82.92 29.77ZM82.29 43.14C72.38 68.27 67.11 76.75 64.42 79.43 55.8126 88.0346 41.8596 88.0324 33.255 79.425 24.6504 70.8176 24.6526 56.8646 33.26 48.26 35.94 45.58 44.42 40.31 69.55 30.4 70.7122 29.9406 71.9503 29.7032 73.2 29.7 78.6398 29.7455 83.0128 34.1922 82.9673 39.632 82.9573 40.8328 82.7277 42.0217 82.29 43.14Z" class="MsftOfcThm_Accent1_Fill" fill="#9ACB39"/><path d="M42.17 56.52C38.3 60.39 37.69 67.26 41.56 71.13 45.43 75 52.3 74.39 56.16 70.52 60.02 66.65 63.07 57.35 59.21 53.52 55.35 49.69 46 52.66 42.17 56.52Z" class="MsftOfcThm_Accent1_Fill" fill="#9ACB39"/></svg>