<svg viewBox="0 0 96 96" xmlns="http://www.w3.org/2000/svg" xmlns:xlink="http://www.w3.org/1999/xlink" id="Icons_TanabataTree_M" overflow="hidden"><style>
.MsftOfcThm_Accent3_Fill {
 fill:#297D53; 
}
</style>
<g id="Icons"><path d="M83.832 76.419C83.638 76.281 64.426 62.365 60.073 43.867L59.8 42.723 49.168 47.123C47.635 45.923 42.088 40.865 40.31 29.823 42.9528 28.1356 45.7764 26.75 48.728 25.692 50.379 26.726 57.477 30.982 63.728 31.777 64.5666 31.8817 65.4109 31.9335 66.256 31.932 70.3996 31.8219 74.4834 30.9161 78.285 29.264L79.72 28.605 78.511 27.589C78.255 27.375 72.16 22.309 65.121 21.414 63.0504 21.187 60.9605 21.2005 58.893 21.454 60.4414 20.3091 61.8703 19.0108 63.158 17.579 67.852 12.2 69.168 4.335 69.222 4L69.474 2.442 67.958 2.879C67.634 2.973 59.984 5.227 55.291 10.609 51.931 14.461 49.615 20.409 48.526 23.638 47.914 23.848 47.309 24.066 46.716 24.3L46.643 24.331C40.1581 27.0337 34.3102 31.063 29.475 36.16 28.8899 26.8706 27.3194 17.6696 24.79 8.712L24.576 8 8.481 8 8.869 9.289C12.178 20.264 14 34.9 14 50.5 14 65.583 12.282 79.869 9.163 90.724L8.8 92 24.875 92 25.083 91.276C28.254 80.235 30 65.754 30 50.5 30 46.552 29.884 42.664 29.658 38.878 32.314 35.9538 35.2786 33.3255 38.5 31.039 40.277 40.757 44.767 45.915 47.084 47.988L38.831 51.4 39.031 52.228C39.217 53.02 43.853 71.816 65.224 88.688L65.771 89.121 85.059 77.3ZM26.292 75.631C24.5387 75.8771 22.7704 76.0004 21 76 18.7679 76.0038 16.5401 75.805 14.344 75.406 15.3851 67.7719 15.9339 60.0786 15.987 52.374 18.301 52.7938 20.6482 53.0033 23 53 24.6664 53 26.3313 52.8971 27.985 52.692 27.9195 60.367 27.354 68.0295 26.292 75.631ZM28 50.655C26.3427 50.8795 24.6724 50.9948 23 51 20.651 51.0048 18.3069 50.7841 16 50.341 16.0099 42.636 15.5343 34.9381 14.576 27.293 17.0225 27.7648 19.5085 28.0015 22 28 23.5428 27.9942 25.084 27.9001 26.616 27.718 27.5541 35.2755 28.0164 42.8845 28 50.5 28 50.552 28 50.6 28 50.655ZM23.086 10C24.546 15.1652 25.6381 20.4274 26.354 25.747 22.3291 26.1982 18.2582 26.0126 14.291 25.197 13.5867 20.0674 12.5411 14.9904 11.161 10ZM23.365 90 11.441 90C12.5447 85.8469 13.417 81.6358 14.054 77.386 16.3464 77.7974 18.671 78.0029 21 78 22.6647 78.0008 24.3279 77.8986 25.98 77.694 25.3395 81.8417 24.4665 85.9502 23.365 90ZM64.875 23.4C69.452 23.982 73.73 26.6 75.846 28.085 73.407 28.964 68.574 30.385 63.986 29.795 59.416 29.214 54.15 26.518 51.386 24.942 52.222 24.716 53.258 24.457 54.411 24.211 57.8354 23.397 61.3661 23.1234 64.875 23.4ZM56.8 11.926C59.856 8.42 64.454 6.309 66.88 5.375 66.249 7.904 64.721 12.75 61.657 16.263 59.5097 18.5858 57.0216 20.5685 54.278 22.143 53.1253 22.351 52.0007 22.6057 50.904 22.907 52.072 19.7 54.085 15.036 56.8 11.926ZM65.916 86.686C48.016 72.329 42.338 56.333 41.205 52.586L58.415 45.465C62.739 61.615 77.17 73.805 81.474 77.148Z" class="MsftOfcThm_Accent3_Fill" fill="#297D53"/><circle cx="52" cy="55" r="2" class="MsftOfcThm_Accent3_Fill" fill="#297D53"/></g></svg>