<svg viewBox="0 0 96 96" xmlns="http://www.w3.org/2000/svg" xmlns:xlink="http://www.w3.org/1999/xlink" id="Icons_Dollar" overflow="hidden"><style>
.MsftOfcThm_Accent3_Fill {
 fill:#297D53; 
}
</style>
<path d="M62.93 50C59.55 47.12 55.16 45.77 51 44.47L51 20.29C55.039 20.6738 58.8135 22.469 61.66 25.36L66.46 20.76C62.3522 16.5813 56.8477 14.064 51 13.69L51 5 45 5 45 14.07C42.9454 14.4699 40.9631 15.1779 39.12 16.17 31.54 20.3 27.67 30 30.78 38.17 33.19 44.47 39 47.28 45 49.39L45 75.57C40.35 75 36.49 72.33 33.29 69L28.49 73.59C30.7755 76.1834 33.5006 78.3534 36.54 80 39.1965 81.2637 42.0657 82.02 45 82.23L45 91 51 91 51 82C57.88 80.85 64.2 76.62 66.92 70 69.64 63.38 68.65 54.89 62.93 50ZM40 39.73C34.5 35.09 35.84 26.11 41.67 22.39 42.7033 21.7273 43.8241 21.2123 45 20.86L45 42.55C43.1895 41.8915 41.5002 40.9387 40 39.73ZM58.09 71.55C56.1382 73.4581 53.6757 74.7605 51 75.3L51 51.41C55 52.78 59.59 54.52 61.22 58.78 62.85 63.04 61.21 68.37 58.09 71.55Z" class="MsftOfcThm_Accent3_Fill" fill="#297D53"/></svg>