<svg viewBox="0 0 96 96" xmlns="http://www.w3.org/2000/svg" xmlns:xlink="http://www.w3.org/1999/xlink" id="Icons_HillScene_M" overflow="hidden"><style>
.MsftOfcThm_Text1_Fill {
 
}
</style>
<g id="Icons"><path d="M44.323 53.12C50.6148 53.3084 56.6998 55.409 61.768 59.142 62.178 59.133 62.587 59.12 63 59.12 63.283 59.12 64.1 59.136 65.05 59.169L64.05 58.34C58.4455 53.8564 51.5324 51.3218 44.358 51.12 39.5857 51.133 34.8713 52.165 30.53 54.147 30.364 54.226 30.03 54.4 29.62 54.62 30.369 54.972 31.115 55.347 31.855 55.753 35.7842 54.0227 40.0297 53.1262 44.323 53.12Z" class="MsftOfcThm_Text1_Fill"/><path d="M40.239 65.055C28.1 50.666 6.577 51.886 5 52L5 54 5.076 54C5.291 53.984 27.019 52.519 38.722 66.361 39.261 65.961 39.822 65.591 40.389 65.227 40.34 65.169 40.286 65.106 40.239 65.055Z" class="MsftOfcThm_Text1_Fill"/><path d="M84.686 66.966C84.454 66.828 84.2253 66.6947 84 66.566L84 55.915C84.3374 55.8639 84.6714 55.7921 85 55.7 88.3886 54.5271 90.6183 51.2839 90.5 47.7 90.5 42.7 84.62 31.52 83 31.52 81.38 31.52 75.5 42.74 75.5 47.7 75.3817 51.2839 77.6114 54.5271 81 55.7 81.3286 55.7921 81.6626 55.8639 82 55.915L82 65.471C81.675 65.301 81.461 65.193 81.432 65.178 79.1466 64.0984 76.7708 63.2217 74.332 62.558 72.2495 62.0204 70.1344 61.6179 68 61.353L68 41.932C68.573 41.861 69 41.76 69 41.76 73.64 40.76 77.14 36.06 77.14 29.51 77.14 22.05 69.43 6 67 6 64.57 6 56.86 22.05 56.86 29.51 56.86 36.06 60.36 40.72 65 41.76 65 41.76 65.427 41.86 66 41.932L66 61.208C64.627 61.144 63.276 61.12 63 61.12 53.561 61.12 44.669 63.984 38.624 68.962 37.703 69.652 29.147 75.74 12.732 77.02L5 77 5 79 12.808 79.017C29.865 77.69 38.854 71.288 39.876 70.522 45.588 65.822 54.017 63.122 63 63.122 63.346 63.122 65.645 63.167 67.264 63.287 69.4762 63.5287 71.6677 63.9321 73.821 64.494 76.1322 65.1228 78.3838 65.9529 80.55 66.975 80.565 66.983 82.107 67.761 83.664 68.687 86.002 70.2927 88.23 72.0529 90.333 73.956L91 74.556 91 71.877C89.0154 70.0912 86.9053 68.45 84.686 66.966ZM66.048 22 66.048 29.591 62.939 26.482 61.525 27.9 66.048 32.423 66.048 39.923C65.706 39.872 65.456 39.814 65.437 39.81 61.503 38.928 58.86 34.79 58.86 29.51 58.86 23.493 64.501 11.264 67 8.388 69.5 11.264 75.14 23.488 75.14 29.51 75.14 34.822 72.503 38.959 68.54 39.81 68.54 39.81 68.34 39.857 68.05 39.903L68.05 36.273 73.183 31.14 71.767 29.73 68.048 33.449 68.048 22ZM83 54C82.5295 53.9863 82.0623 53.9172 81.608 53.794 79.0666 52.9008 77.4019 50.458 77.5 47.766L77.5 47.7C77.5 44.283 81.081 36.8 83 34.157 84.883 36.741 88.5 44.057 88.5 47.7L88.5 47.766C88.5991 50.4578 86.9345 52.9006 84.393 53.793 83.9385 53.917 83.4709 53.9865 83 54Z" class="MsftOfcThm_Text1_Fill"/><rect x="16" y="18" width="5" height="2" class="MsftOfcThm_Text1_Fill"/><path d="M22.84 14.34 19.36 10.79 20.78 9.34 24.25 12.89 22.84 14.34Z" class="MsftOfcThm_Text1_Fill"/><path d="M29 15.12C31.2091 15.12 33 16.9109 33 19.12 33 21.3291 31.2091 23.12 29 23.12 26.7909 23.12 25 21.3291 25 19.12 25 16.9109 26.7909 15.12 29 15.12M29 13.12C25.6863 13.12 23 15.8063 23 19.12 23 22.4337 25.6863 25.12 29 25.12 32.3137 25.12 35 22.4337 35 19.12 35 15.8063 32.3137 13.12 29 13.12Z" class="MsftOfcThm_Text1_Fill"/><rect x="28" y="6" width="2" height="5" class="MsftOfcThm_Text1_Fill"/><rect x="37" y="18" width="5" height="2" class="MsftOfcThm_Text1_Fill"/><path d="M35.16 14.34 38.64 10.79 37.22 9.34 33.75 12.89 35.16 14.34Z" class="MsftOfcThm_Text1_Fill"/><path d="M22.84 23.77 19.36 27.33 20.78 28.77 24.25 25.22 22.84 23.77Z" class="MsftOfcThm_Text1_Fill"/><rect x="28" y="27.12" width="2" height="5" class="MsftOfcThm_Text1_Fill"/><path d="M35.16 23.77 38.64 27.33 37.22 28.77 33.75 25.22 35.16 23.77Z" class="MsftOfcThm_Text1_Fill"/></g></svg>