<?xml version="1.0" encoding="utf-8"?>
<!-- Generator: Adobe Illustrator 25.4.0, SVG Export Plug-In . SVG Version: 6.00 Build 0)  -->
<svg version="1.1" id="Layer_1" xmlns="http://www.w3.org/2000/svg" xmlns:xlink="http://www.w3.org/1999/xlink" x="0px" y="0px"
	 viewBox="0 0 500 500" style="enable-background:new 0 0 500 500;" xml:space="preserve">
<style type="text/css">
	.st0{fill:url(#SVGID_1_);}
	.st1{fill:url(#SVGID_00000132798202407984025080000015195798000435961500_);}
	.st2{fill:url(#SVGID_00000072966134601805938150000005038954115010839973_);}
	.st3{fill:url(#SVGID_00000182498562721063694570000013849364472877883837_);}
	.st4{fill:url(#SVGID_00000145032140217729940740000004109213586810474133_);}
	.st5{fill:url(#SVGID_00000015328968595150774790000013351399090331645874_);}
	.st6{fill:url(#SVGID_00000009571452090653027550000016664275122174896818_);}
	.st7{fill:url(#SVGID_00000085964352293864472000000001649693069980603310_);}
	.st8{fill:url(#SVGID_00000132794433474626886210000008761522596724648065_);}
	.st9{fill:url(#SVGID_00000064346825070716677300000011715185236861909677_);}
	.st10{fill:url(#SVGID_00000078043792381438945040000013902475276713891977_);}
	.st11{fill:url(#SVGID_00000044156394677025189660000014520237045335244207_);}
	.st12{fill:url(#SVGID_00000111896936549640924440000003729875900225131199_);}
	.st13{fill:url(#SVGID_00000149381459351230982940000000515963309333140653_);}
	.st14{fill:url(#SVGID_00000041267528029442689340000009824905446973811112_);}
	.st15{fill:url(#SVGID_00000052104295666236802360000016794712432657672327_);}
	.st16{fill:url(#SVGID_00000037684181161032031650000006280080715558028930_);}
	.st17{fill:url(#SVGID_00000105414566812421132110000007420568367597243822_);}
	.st18{fill:url(#SVGID_00000116228465024248417000000012466035348710559677_);}
	.st19{fill:url(#SVGID_00000016052433573362297850000001896834464198425250_);}
	.st20{fill:url(#SVGID_00000090275502372367956840000005145823366800474806_);}
	.st21{fill:#FFFFFF;}
	.st22{fill-rule:evenodd;clip-rule:evenodd;}
	.st23{fill-rule:evenodd;clip-rule:evenodd;fill:#FFFFFF;}
	.st24{fill:#F1F1F1;}
	.st25{fill:#EFED00;}
	.st26{fill:url(#SVGID_00000005957795277952307270000017788896946923292808_);}
	.st27{fill:url(#SVGID_00000086671647698058387610000000596214773846771371_);}
	.st28{fill:url(#SVGID_00000180343460281380712900000015163299602742409866_);}
	.st29{fill:url(#SVGID_00000158734637300808271350000009397714705683116176_);}
</style>
<path class="st22" d="M387.36,200.58c0.01-4.72-0.53-9.36-2.01-13.84c-4.33-13.07-11.6-23.91-23.8-30.96
	c-28.33-16.36-56.68-32.68-84.94-49.15c-7.68-4.48-15.87-6.73-24.67-6.97c-9.69-0.25-18.91,1.5-27.44,6.46
	c-28.53,16.55-57.23,32.83-85.63,49.61c-16.93,10.01-25.84,25.39-26.05,45.05c-0.35,32.86-0.08,65.72-0.11,98.58
	c0,5.06,0.62,10.01,2.3,14.78c4.47,12.7,11.69,23.24,23.64,30.12c28.11,16.19,56.22,32.37,84.23,48.72
	c7.36,4.3,15.11,6.84,23.57,7.3c10.33,0.57,20.15-1.11,29.25-6.39c28.34-16.45,56.68-32.88,85.12-49.17
	c7.93-4.55,14.05-10.74,18.71-18.48c4.49-7.47,7.66-15.44,7.74-24.27c0.14-17.31,0.04-34.63,0.04-51.94h0.04
	C387.35,233.54,387.33,217.05,387.36,200.58z"/>
<g>
	<g>
		<g>
			<path class="st21" d="M273.85,309.39l-47.69,0c-21.16,0-38.38-17.22-38.38-38.39l0-42.02c0-21.16,17.22-38.38,38.38-38.38
				l47.69,0c21.16,0,38.38,17.22,38.38,38.38l0,42.02C312.23,292.18,295.01,309.4,273.85,309.39z M226.16,199.13
				c-16.46,0-29.85,13.39-29.85,29.85l0,42.02c0,16.46,13.39,29.85,29.85,29.85l47.69,0c16.46,0,29.85-13.39,29.85-29.85l0-42.02
				c0-16.46-13.39-29.85-29.85-29.85L226.16,199.13z"/>
		</g>
		<g>
			<path class="st21" d="M250,284.17c-18.84,0-34.17-15.33-34.17-34.17c0-18.84,15.32-34.17,34.17-34.17
				c18.84,0,34.17,15.32,34.17,34.17C284.17,268.84,268.84,284.17,250,284.17z M250,224.36c-14.14,0-25.64,11.5-25.64,25.64
				c0,14.14,11.5,25.64,25.64,25.64c14.14,0,25.64-11.5,25.64-25.64C275.64,235.86,264.14,224.36,250,224.36z"/>
		</g>
		<g>
			<path class="st21" d="M290.73,216.88c0,3.91-3.17,7.09-7.09,7.09c-3.92,0-7.09-3.17-7.09-7.09c0-3.92,3.18-7.09,7.09-7.09
				C287.56,209.79,290.73,212.97,290.73,216.88z"/>
		</g>
	</g>
</g>
</svg>
