<?xml version="1.0" encoding="utf-8"?>
<!-- Generator: Adobe Illustrator 25.4.0, SVG Export Plug-In . SVG Version: 6.00 Build 0)  -->
<svg version="1.1" id="Layer_1" xmlns="http://www.w3.org/2000/svg" xmlns:xlink="http://www.w3.org/1999/xlink" x="0px" y="0px"
	 viewBox="0 0 500 500" style="enable-background:new 0 0 500 500;" xml:space="preserve">
<style type="text/css">
	.st0{fill:url(#SVGID_1_);}
	.st1{fill:url(#SVGID_00000104699875685551434370000012729182276349446796_);}
	.st2{fill:url(#SVGID_00000056424934192387422760000003634379264402714041_);}
	.st3{fill:url(#SVGID_00000041982001875672193440000012018589044331816631_);}
	.st4{fill:url(#SVGID_00000069378212988302410480000000377610857258267059_);}
	.st5{fill:url(#SVGID_00000116223233354527657430000004464885692731187329_);}
	.st6{fill:url(#SVGID_00000128458841001939904840000002409059023792726462_);}
	.st7{fill:url(#SVGID_00000045614131183101919670000011611923397309018790_);}
	.st8{fill:url(#SVGID_00000018210032947748269440000004865219500572538038_);}
	.st9{fill:url(#SVGID_00000039819826775806801420000016477700152010815672_);}
	.st10{fill:url(#SVGID_00000021829966634370279740000006254723685254962347_);}
	.st11{fill:url(#SVGID_00000130617764060261917950000004359534010222753970_);}
	.st12{fill:url(#SVGID_00000083060755244557353320000016309049279151120564_);}
	.st13{fill:url(#SVGID_00000166663387406011334660000015850899035603319733_);}
	.st14{fill:url(#SVGID_00000054985668627294094890000005491063354292629650_);}
	.st15{fill:url(#SVGID_00000134947774348049307570000013745232805605381276_);}
	.st16{fill:url(#SVGID_00000003798716962568824010000007175510884408515988_);}
	.st17{fill:url(#SVGID_00000129180964944278015380000010453235980075234747_);}
	.st18{fill:url(#SVGID_00000134972345263736830890000013972971212941838482_);}
	.st19{fill:url(#SVGID_00000013899162934138166100000006100075411622832548_);}
	.st20{fill:url(#SVGID_00000182486012060864092040000012506565088971212979_);}
	.st21{fill:#FFFFFF;}
	.st22{fill-rule:evenodd;clip-rule:evenodd;}
	.st23{fill-rule:evenodd;clip-rule:evenodd;fill:#FFFFFF;}
	.st24{fill:#F1F1F1;}
	.st25{fill:#EFED00;}
	.st26{fill:url(#SVGID_00000140699053068043065880000011760231515440046523_);}
	.st27{fill:url(#SVGID_00000170240198875813926650000001274541816730019753_);}
	.st28{fill:url(#SVGID_00000018224770911365390890000010693681796586406035_);}
	.st29{fill:url(#SVGID_00000063615755884707682430000008127891119288806834_);}
</style>
<path class="st23" d="M387.36,200.58c0.01-4.72-0.53-9.36-2.01-13.84c-4.33-13.07-11.6-23.91-23.8-30.96
	c-28.33-16.36-56.68-32.68-84.94-49.15c-7.68-4.48-15.87-6.73-24.67-6.97c-9.69-0.25-18.91,1.5-27.44,6.46
	c-28.53,16.55-57.23,32.83-85.63,49.61c-16.93,10.01-25.84,25.39-26.05,45.05c-0.35,32.86-0.08,65.72-0.11,98.58
	c0,5.06,0.62,10.01,2.3,14.78c4.47,12.7,11.69,23.24,23.64,30.12c28.11,16.19,56.22,32.37,84.23,48.72
	c7.36,4.3,15.11,6.84,23.57,7.3c10.33,0.57,20.15-1.11,29.25-6.39c28.34-16.45,56.68-32.88,85.12-49.17
	c7.93-4.55,14.05-10.74,18.71-18.48c4.49-7.47,7.66-15.44,7.74-24.27c0.14-17.31,0.04-34.63,0.04-51.94h0.04
	C387.35,233.54,387.33,217.05,387.36,200.58z"/>
<g>
	<g>
		<g>
			<path d="M273.85,309.39l-47.69,0c-21.16,0-38.38-17.22-38.38-38.39l0-42.02c0-21.16,17.22-38.38,38.38-38.38l47.69,0
				c21.16,0,38.38,17.22,38.38,38.38l0,42.02C312.23,292.18,295.01,309.4,273.85,309.39z M226.16,199.13
				c-16.46,0-29.85,13.39-29.85,29.85l0,42.02c0,16.46,13.39,29.85,29.85,29.85l47.69,0c16.46,0,29.85-13.39,29.85-29.85l0-42.02
				c0-16.46-13.39-29.85-29.85-29.85L226.16,199.13z"/>
		</g>
		<g>
			<path d="M250,284.17c-18.84,0-34.17-15.33-34.17-34.17c0-18.84,15.32-34.17,34.17-34.17c18.84,0,34.17,15.32,34.17,34.17
				C284.17,268.84,268.84,284.17,250,284.17z M250,224.36c-14.14,0-25.64,11.5-25.64,25.64c0,14.14,11.5,25.64,25.64,25.64
				c14.14,0,25.64-11.5,25.64-25.64C275.64,235.86,264.14,224.36,250,224.36z"/>
		</g>
		<g>
			<path d="M290.73,216.88c0,3.91-3.17,7.09-7.09,7.09c-3.92,0-7.09-3.17-7.09-7.09c0-3.92,3.18-7.09,7.09-7.09
				C287.56,209.79,290.73,212.97,290.73,216.88z"/>
		</g>
	</g>
</g>
</svg>
