<?xml version="1.0" encoding="UTF-8"?>
<svg width="130px" height="40px" viewBox="0 0 130 40" version="1.1" xmlns="http://www.w3.org/2000/svg" xmlns:xlink="http://www.w3.org/1999/xlink">
    <title>liquid_logo</title>
    <g id="Symbols" stroke="none" stroke-width="1" fill="none" fill-rule="evenodd">
        <g id="Modules-/-footer-/-desktop" transform="translate(-255.000000, -158.000000)" fill-rule="nonzero">
            <g id="Group" transform="translate(255.000000, 158.000000)">
                <g transform="translate(43.628405, 4.100439)" fill="#2CCCBF">
                    <path d="M13.5732815,0.12508558 C13.0674449,0.12508558 12.6880674,0.542037513 12.6880674,1.00068464 L12.6880674,12.6336436 L15.0486381,12.6336436 L15.0486381,0.12508558 L13.5732815,0.12508558 Z" id="Path"></path>
                    <path d="M33.2587549,0.12508558 C32.7529183,0.12508558 32.3735409,0.542037513 32.3735409,1.00068464 L32.3735409,8.38073386 C32.3735409,10.9241407 34.3125811,12.7587292 37.0103761,12.7587292 C39.7081712,12.7587292 41.6472114,10.9241407 41.6472114,8.38073386 L41.6472114,0.12508558 L40.2140078,0.12508558 C39.7081712,0.12508558 39.3287938,0.542037513 39.3287938,1.00068464 L39.3287938,8.25564828 C39.3287938,9.71498005 38.4435798,10.6322743 37.0525292,10.6322743 C35.6614786,10.6322743 34.7762646,9.71498005 34.7762646,8.25564828 L34.7762646,0.0833903867 L33.2587549,0.0833903867 L33.2587549,0.12508558 Z" id="Path"></path>
                    <path d="M46.9163424,0.12508558 C46.4105058,0.12508558 46.0311284,0.542037513 46.0311284,1.00068464 L46.0311284,12.6336436 L48.3916991,12.6336436 L48.3916991,0.12508558 L46.9163424,0.12508558 Z" id="Path"></path>
                    <path d="M52.9020752,12.6336436 L57.4546044,12.6336436 C58.845655,12.6336436 59.9837873,12.2166916 60.7846952,11.424483 C62.0914397,10.131932 62.0914397,8.50581944 62.0492866,6.79631651 C62.0492866,6.62953574 62.0492866,6.46275497 62.0492866,6.33766939 C62.0492866,6.17088861 62.0492866,6.00410784 62.0492866,5.87902226 C62.0492866,4.21121453 62.0492866,2.62679718 60.7846952,1.33424619 C59.9837873,0.542037513 58.845655,0.166780773 57.4546044,0.166780773 L53.8294423,0.166780773 C53.3236057,0.166780773 52.9442283,0.583732707 52.9442283,1.04237983 L52.9442283,12.6336436 L52.9020752,12.6336436 Z M55.2626459,2.20984525 L57.2016861,2.20984525 C58.0447471,2.20984525 58.6770428,2.46001641 59.1407263,3.00205392 L59.1407263,3.00205392 C59.6044099,3.58578663 59.688716,4.33630011 59.688716,6.33766939 C59.688716,8.29734347 59.6044099,9.17294253 59.1407263,9.75667524 C58.6770428,10.2987128 58.0869001,10.5488839 57.2016861,10.5488839 L55.2626459,10.5488839 L55.2626459,2.20984525 Z" id="Shape"></path>
                    <path d="M2.36057069,10.5905791 L2.36057069,0.166780773 L0.885214008,0.166780773 C0.379377432,0.166780773 0,0.583732707 0,1.04237983 L0,12.6753388 L8.05123217,12.6753388 L9.06290532,10.5905791 L2.36057069,10.5905791 Z" id="Path"></path>
                    <path d="M27.5259403,11.0492262 C28.4533074,9.88176082 28.4954604,8.42242905 28.4954604,6.50445016 L28.4954604,6.29597419 C28.4954604,4.16951933 28.4954604,2.62679718 27.230869,1.37594138 C26.3035019,0.458647127 25.2075227,0 23.8164721,0 C22.4254215,0 21.3294423,0.458647127 20.4020752,1.37594138 C19.1796368,2.58510199 19.1796368,4.12782414 19.1796368,6.21258381 L19.1796368,6.54614535 C19.1796368,8.63090502 19.1796368,10.131932 20.4020752,11.3827878 C21.3294423,12.300082 22.4675746,12.7587292 23.8164721,12.7587292 L23.8164721,12.7587292 L29.0434501,12.7587292 L29.0434501,11.0492262 L27.5259403,11.0492262 L27.5259403,11.0492262 Z M21.4980545,6.37936458 C21.4980545,4.00273856 21.6245136,3.33561547 22.1303502,2.79357795 C22.5097276,2.33493083 23.1420233,2.08475967 23.8164721,2.08475967 C24.4909209,2.08475967 25.0810636,2.33493083 25.460441,2.79357795 C25.9662776,3.33561547 26.0927367,3.91934817 26.0927367,6.37936458 C26.0927367,8.88107618 25.9241245,9.42311369 25.460441,9.96515121 C25.0810636,10.4237983 24.4909209,10.6739695 23.8164721,10.6739695 C23.1420233,10.6739695 22.5518807,10.4237983 22.1303502,9.96515121 C21.6245136,9.42311369 21.4980545,8.79768579 21.4980545,6.37936458 Z" id="Shape"></path>
                </g>
                <g transform="translate(43.670558, 23.780570)" fill="#FFFFFF">
                    <path d="M21.2451362,2.20984525 L21.2451362,0.12508558 L13.8683528,0.12508558 C13.3625162,0.12508558 12.9831388,0.542037513 12.9831388,1.00068464 L12.9831388,12.6336436 L21.2872892,12.6336436 L21.2872892,10.5488839 L15.3437095,10.5488839 L15.3437095,7.33835403 L20.4020752,7.33835403 L20.4020752,5.25359436 L15.3437095,5.25359436 L15.3437095,2.16815005 L21.2451362,2.16815005 L21.2451362,2.20984525 L21.2451362,2.20984525 Z" id="Path"></path>
                    <path d="M57.5810636,0 C56.190013,0 55.0940337,0.458647127 54.1666667,1.37594138 C52.9442283,2.58510199 52.9442283,4.12782414 52.9442283,6.21258381 L52.9442283,6.54614535 C52.9442283,8.63090502 52.9442283,10.131932 54.1666667,11.3827878 C55.0940337,12.300082 56.232166,12.7587292 57.5810636,12.7587292 C58.9299611,12.7587292 60.0680934,12.300082 60.9954604,11.3827878 C62.2600519,10.131932 62.2600519,8.58920983 62.2600519,6.46275497 L62.2600519,6.29597419 C62.2600519,4.16951933 62.2600519,2.62679718 60.9954604,1.37594138 C60.0680934,0.458647127 58.9721141,0 57.5810636,0 Z M59.2250324,9.96515121 C58.845655,10.4237983 58.2555123,10.6739695 57.5810636,10.6739695 C56.9066148,10.6739695 56.3164721,10.4237983 55.8949416,9.96515121 C55.3891051,9.3814185 55.2626459,8.7559906 55.2626459,6.37936458 C55.2626459,4.00273856 55.3891051,3.33561547 55.8949416,2.79357795 C56.2743191,2.33493083 56.9066148,2.08475967 57.5810636,2.08475967 C58.2555123,2.08475967 58.845655,2.33493083 59.2250324,2.79357795 C59.730869,3.33561547 59.8573281,3.91934817 59.8573281,6.37936458 C59.8994812,8.88107618 59.730869,9.42311369 59.2250324,9.96515121 Z" id="Shape"></path>
                    <path d="M86.3294423,12.6336436 L82.2405966,5.96241265 L82.2405966,5.92071745 L85.6549935,0.12508558 L83.463035,0.12508558 C83.1258106,0.12508558 82.8307393,0.291866353 82.6621271,0.583732707 L79.7535668,5.71224149 L79.7535668,0.12508558 L78.2782101,0.12508558 C77.7723735,0.12508558 77.3929961,0.542037513 77.3929961,1.00068464 L77.3929961,12.6336436 L79.7535668,12.6336436 L79.7535668,6.17088861 L83.5894942,12.6336436 L86.3294423,12.6336436 L86.3294423,12.6336436 Z" id="Path"></path>
                    <path d="M9.06290532,12.6336436 L9.06290532,0.12508558 L7.58754864,0.12508558 C7.08171206,0.12508558 6.70233463,0.542037513 6.70233463,1.00068464 L6.70233463,8.04717231 L2.1076524,0.12508558 L0.885214008,0.12508558 C0.379377432,0.12508558 0,0.542037513 0,1.00068464 L0,12.6336436 L2.36057069,12.6336436 L2.36057069,4.66986165 L6.95525292,12.6336436 L9.06290532,12.6336436 Z" id="Path"></path>
                    <path d="M33.8910506,0.12508558 L25.9241245,0.12508558 C24.7438392,0.12508558 23.8164721,1.04237983 23.7743191,2.20984525 L27.6523995,2.20984525 L27.6523995,12.6753388 L30.0129702,12.6753388 L30.0129702,2.20984525 L31.7412451,2.20984525 C32.8793774,2.20984525 33.8488975,1.29255099 33.8910506,0.12508558 Z" id="Path"></path>
                    <path d="M71.6601816,12.6336436 L74.3579767,12.6336436 L71.154345,7.38004922 L71.2386511,7.38004922 C71.5337224,7.33835403 71.7444877,7.25496364 71.997406,7.17157325 C73.4306096,6.67123093 74.2736706,5.42037513 74.2736706,3.91934817 C74.2736706,1.66780773 72.5875486,0.12508558 70.1848249,0.12508558 L66.1381323,0.12508558 C65.6744488,0.12508558 65.2529183,0.50034232 65.2529183,1.00068464 L65.2529183,12.6336436 L67.613489,12.6336436 L67.613489,7.58852519 L68.6251621,7.58852519 L71.6601816,12.6336436 Z M67.655642,2.20984525 L70.0583658,2.20984525 C71.154345,2.20984525 71.9552529,2.91866353 71.9552529,3.96104337 C71.9552529,5.0034232 71.1964981,5.71224149 70.0583658,5.71224149 L67.655642,5.71224149 L67.655642,2.20984525 Z" id="Shape"></path>
                    <path d="M48.8553826,0.37525674 L46.8741894,8.25564828 L44.6822309,0.792208673 C44.5557717,0.37525674 44.1763943,0.0833903867 43.7127108,0.0833903867 L43.4597925,0.0833903867 C42.9961089,0.0833903867 42.6167315,0.37525674 42.4902724,0.792208673 L40.2983139,8.25564828 L38.2749676,0.0833903867 L36.2516213,0.0833903867 C36.040856,0.0833903867 35.8722438,0.291866353 35.9143969,0.50034232 L39.1601816,12.5919484 L41.1413748,12.5919484 L43.5440986,4.75325204 L43.6284047,4.96172801 L45.9468223,12.5919484 L47.9280156,12.5919484 L51.3424125,0.0833903867 L49.150454,0.0833903867 C49.0239948,0.12508558 48.8975357,0.25017116 48.8553826,0.37525674 Z" id="Path"></path>
                </g>
                <g id="Path">
                    <path d="M7.58754864,27.3663564 C6.87094682,27.3663564 6.19649805,26.9494045 5.90142672,26.2405862 C4.88975357,23.9056554 4.38391699,21.4039438 4.38391699,18.8188418 C4.38391699,9.27064251 11.5920882,1.14007981 21.2029831,0.014309593 C22.2146563,-0.110775987 23.1420233,0.5980423 23.2684825,1.59872694 C23.3949416,2.59941158 22.6783398,3.51670583 21.6666667,3.64179141 C13.9105058,4.60078086 8.09338521,11.105231 8.09338521,18.860537 C8.09338521,20.9452966 8.51491569,22.9466659 9.31582361,24.8646448 C9.69520104,25.7819391 9.27367056,26.8660141 8.3463035,27.2412708 C8.09338521,27.282966 7.84046693,27.3663564 7.58754864,27.3663564 Z" fill="#2CCCBF"></path>
                    <path d="M11.5499351,17.2761196 C11.4656291,17.2761196 11.381323,17.2761196 11.2548638,17.2344244 C10.6647211,17.0676437 10.2853437,16.483911 10.4539559,15.9001783 C12.0557717,9.81268003 17.577821,5.55977031 23.9429313,5.55977031 C27.188716,5.55977031 30.3501946,6.68554053 32.8372244,8.728605 C33.3009079,9.10386174 33.385214,9.81268003 32.9636835,10.2713272 C32.5843061,10.7299743 31.8677043,10.8133647 31.4040208,10.3964127 C29.2963684,8.68690981 26.6828794,7.72792036 23.9429313,7.72792036 C18.6316472,7.72792036 13.9526589,11.2720118 12.6459144,16.4005206 C12.5194553,16.9425581 12.0557717,17.2761196 11.5499351,17.2761196 Z" fill="#9EF2ED"></path>
                    <path d="M15.8916991,40 C15.7652399,40 15.6809339,40 15.5544747,39.9583048 C6.40726329,37.206422 0,28.4087363 0,18.6103658 C0,14.3991513 1.22243839,10.3547175 3.49870298,6.81062611 C3.83592737,6.31028379 4.51037613,6.14350301 5.05836576,6.47706456 C5.56420233,6.81062611 5.73281453,7.4777492 5.39559014,8.01978671 C3.33009079,11.1886214 2.27626459,14.8577984 2.27626459,18.6103658 C2.27626459,27.4497468 8.00907912,35.3718335 16.2289235,37.8318499 C16.8190661,37.9986307 17.1562905,38.6240586 16.9876783,39.2077913 C16.8190661,39.6664385 16.3553826,40 15.8916991,40 Z" fill="#9EF2ED"></path>
                    <path d="M23.6057069,37.0813365 C18.0836576,37.0813365 13.0252918,34.9965768 9.65304799,31.3273998 C9.10505837,30.7436671 9.14721141,29.8263728 9.73735409,29.2843353 C10.3274968,28.7422978 11.2548638,28.783993 11.8028534,29.3677257 C14.7957198,32.6199508 19.3904021,34.3711489 24.4066148,34.1626729 C25.2075227,34.1209777 25.8819715,34.7464056 25.9241245,35.5386143 C25.9662776,36.330823 25.3339818,36.9979461 24.5330739,37.0396413 C24.1958495,37.0813365 23.9007782,37.0813365 23.6057069,37.0813365 Z" fill="#2CCCBF"></path>
                    <path d="M32.8793774,27.0744901 C32.457847,26.6158429 31.7833982,26.5741477 31.3197147,26.9910997 C30.3923476,27.7833084 29.3806744,28.4504314 28.2425422,28.9090786 C28.1582361,28.9507738 28.116083,28.9507738 28.0317769,28.992469 C27.8631647,29.0758593 27.7367056,29.1175545 27.5680934,29.1592497 L27.5259403,29.1592497 C27.3151751,29.2426401 27.1465629,29.2843353 26.9357977,29.3677257 C26.5142672,29.4928113 26.0505837,29.6178969 25.6290532,29.7012872 C25.6290532,29.7012872 25.6290532,29.7012872 25.5869001,29.7012872 C25.460441,29.7429824 25.3339818,29.7429824 25.2075227,29.7429824 C25.1232166,29.7429824 25.0810636,29.7429824 24.9967575,29.7846776 C24.9124514,29.7846776 24.7859922,29.8263728 24.7016861,29.8263728 C24.5330739,29.8263728 24.3644617,29.868068 24.1958495,29.868068 C24.1536965,29.868068 24.1115435,29.868068 24.0272374,29.868068 C23.9007782,29.868068 23.732166,29.868068 23.6057069,29.868068 C23.5635538,29.868068 23.4792477,29.868068 23.4370947,29.868068 C22.2568093,29.868068 21.076524,29.6595921 19.9383917,29.3260305 C19.348249,29.1175545 18.7159533,29.4511161 18.5473411,30.0348488 C18.3365759,30.6185815 18.6738003,31.2440094 19.2639429,31.4107902 C20.5706874,31.8277421 21.919585,32.0362181 23.3106355,32.0779133 C23.3106355,32.0779133 23.3106355,32.0779133 23.3527886,32.0779133 C23.4370947,32.0779133 23.5214008,32.0779133 23.5635538,32.0779133 L23.5635538,32.0779133 L23.5635538,32.0779133 L23.5635538,32.0779133 C23.7743191,32.0779133 23.9850843,32.0779133 24.1958495,32.0779133 C24.2801556,32.0779133 24.3223087,32.0779133 24.4066148,32.0779133 C24.5330739,32.0779133 24.7016861,32.0779133 24.8281453,32.0362181 C24.9967575,32.0362181 25.2075227,31.9945229 25.3761349,31.9528277 C25.460441,31.9528277 25.502594,31.9528277 25.5869001,31.9111325 C25.7555123,31.8694373 25.8819715,31.8694373 26.0505837,31.8277421 C26.0927367,31.8277421 26.0927367,31.8277421 26.1348898,31.8277421 C26.8514916,31.7026565 27.5680934,31.4941806 28.2846952,31.2440094 C28.3268482,31.2440094 28.3268482,31.2023142 28.3690013,31.2023142 C28.5376135,31.1189238 28.7062257,31.0772286 28.8748379,30.9938382 C28.959144,30.952143 29.0434501,30.9104479 29.1277562,30.8687527 C29.1699092,30.8270575 29.2542153,30.8270575 29.2963684,30.7853623 C29.2963684,30.7853623 29.3385214,30.7853623 29.3385214,30.7436671 C30.5609598,30.2016296 31.6990921,29.4511161 32.7529183,28.5338218 C33.2587549,28.2002603 33.3009079,27.5331372 32.8793774,27.0744901 Z" fill="#9EF2ED"></path>
                </g>
            </g>
        </g>
    </g>
</svg>