<svg viewBox="0 0 96 96" xmlns="http://www.w3.org/2000/svg" xmlns:xlink="http://www.w3.org/1999/xlink" id="Icons_Lock" overflow="hidden"><style>
.MsftOfcThm_Accent2_Fill {
 fill:#64C24A; 
}
</style>
<path d="M50 69.2 50 74.5 46 74.5 46 69.2C43.7 68.4 42 66.2 42 63.5 42 60.2 44.7 57.5 48 57.5 51.3 57.5 54 60.2 54 63.5 54 66.1 52.3 68.3 50 69.2ZM33 32.5C33 24.2 39.7 17.5 48 17.5 56.3 17.5 63 24.2 63 32.5L63 43.6 48 42.5 33 43.6 33 32.5ZM69 44 69 32.5C69 20.9 59.6 11.5 48 11.5 36.4 11.5 27 20.9 27 32.5L27 44 20 44.5 20 82.5 48 84.5 76 82.5 76 44.5 69 44Z" class="MsftOfcThm_Accent2_Fill" stroke="#42C93B" stroke-width="0.999947" fill="#64C24A"/></svg>