<?xml version="1.0" encoding="utf-8"?>
<!-- Generator: Adobe Illustrator 25.4.0, SVG Export Plug-In . SVG Version: 6.00 Build 0)  -->
<svg version="1.1" id="Layer_1" xmlns="http://www.w3.org/2000/svg" xmlns:xlink="http://www.w3.org/1999/xlink" x="0px" y="0px"
	 viewBox="0 0 500 500" style="enable-background:new 0 0 500 500;" xml:space="preserve">
<style type="text/css">
	.st0{fill:url(#SVGID_1_);}
	.st1{fill:url(#SVGID_00000107563218279466476430000010245181586739316394_);}
	.st2{fill:url(#SVGID_00000022557125622489299420000017667187728081103278_);}
	.st3{fill:url(#SVGID_00000135683188412024244570000017448438172687445946_);}
	.st4{fill:url(#SVGID_00000033365711656139959370000000131108712098583712_);}
	.st5{fill:url(#SVGID_00000042703348361243715260000000086427244561943712_);}
	.st6{fill:url(#SVGID_00000145747844133380327120000001011828939102197679_);}
	.st7{fill:url(#SVGID_00000131340343270990074160000009980392746232530855_);}
	.st8{fill:url(#SVGID_00000178185344976468244450000000065127259108559235_);}
	.st9{fill:url(#SVGID_00000028325360987143271910000014611679590437249197_);}
	.st10{fill:url(#SVGID_00000028324140178797937360000017743564628271610288_);}
	.st11{fill:url(#SVGID_00000107584712588281775210000014514540637798911912_);}
	.st12{fill:url(#SVGID_00000128447992540667087590000005079982174574560439_);}
	.st13{fill:url(#SVGID_00000044883964737420607340000010590168839799309998_);}
	.st14{fill:url(#SVGID_00000145041838653480793090000008470193476199238292_);}
	.st15{fill:url(#SVGID_00000072269611342871325100000004655965136512423599_);}
	.st16{fill:url(#SVGID_00000033347680445336180400000011340849916698427574_);}
	.st17{fill:url(#SVGID_00000040538663350159621720000009326896286724300947_);}
	.st18{fill:url(#SVGID_00000168114019528216783150000003786247503202147751_);}
	.st19{fill:url(#SVGID_00000018940110354199083800000008116444180993813637_);}
	.st20{fill:url(#SVGID_00000088116572798785359770000006681498544535530632_);}
	.st21{fill:#FFFFFF;}
	.st22{fill-rule:evenodd;clip-rule:evenodd;}
	.st23{fill-rule:evenodd;clip-rule:evenodd;fill:#FFFFFF;}
	.st24{fill:#F1F1F1;}
	.st25{fill:#EFED00;}
	.st26{fill:url(#SVGID_00000036252665965426543340000017670465447358338239_);}
	.st27{fill:url(#SVGID_00000073715321937042145740000002674880602335648685_);}
	.st28{fill:url(#SVGID_00000116938367821731029490000015226639625748341657_);}
	.st29{fill:url(#SVGID_00000032647056239208452020000005077557676754353043_);}
</style>
<g>
	<g>
		<g>
			
				<linearGradient id="SVGID_1_" gradientUnits="userSpaceOnUse" x1="-8631.7598" y1="-1577.1925" x2="-8466.1514" y2="-1577.1925" gradientTransform="matrix(-0.9262 0.3771 -0.3771 -0.9262 -8262.4971 2013.3955)">
				<stop  offset="0" style="stop-color:#DF7800"/>
				<stop  offset="0.3789" style="stop-color:#DA3AA7"/>
				<stop  offset="0.7304" style="stop-color:#243DF5"/>
				<stop  offset="1" style="stop-color:#7DEBB2"/>
			</linearGradient>
			<path class="st0" d="M209.78,191.22c17.62-7.18,38.59-9.6,59.54-5.67c25.55,4.79,46.66,18.15,57.91,36.64
				c8.35,13.71,10.43,28.74,6.01,43.46c-10.66,35.52-56.67,57.41-102.56,48.81c-25.55-4.79-46.66-18.14-57.91-36.64
				c-8.35-13.72-10.43-28.74-6.01-43.46C172.56,215.05,188.8,199.76,209.78,191.22z M289.99,308.2
				c20.81-8.47,36.9-23.61,42.65-42.74c4.37-14.54,2.31-29.4-5.94-42.96c-11.16-18.34-32.12-31.59-57.49-36.34
				c-45.58-8.55-91.26,13.15-101.84,48.37c-4.37,14.54-2.31,29.4,5.94,42.96c11.16,18.34,32.12,31.59,57.49,36.34
				C251.62,317.74,272.48,315.33,289.99,308.2z"/>
		</g>
	</g>
	<g>
		<g>
			
				<linearGradient id="SVGID_00000171703323155723208580000005657813682688623760_" gradientUnits="userSpaceOnUse" x1="-8633.6641" y1="-1577.1924" x2="-8464.2471" y2="-1577.1924" gradientTransform="matrix(-0.9262 0.3771 -0.3771 -0.9262 -8262.4971 2013.3955)">
				<stop  offset="0" style="stop-color:#DF7800"/>
				<stop  offset="0.3789" style="stop-color:#DA3AA7"/>
				<stop  offset="0.7304" style="stop-color:#243DF5"/>
				<stop  offset="1" style="stop-color:#7DEBB2"/>
			</linearGradient>
			<path style="fill:url(#SVGID_00000171703323155723208580000005657813682688623760_);" d="M214.27,185.61
				c12.28-5,26.06-7.68,40.47-7.34c25.43,0.59,48.77,10.5,64.04,27.2c12.05,13.17,18.07,29.7,16.96,46.53
				c-2.62,39.55-43.2,70.84-90.47,69.75c-25.43-0.59-48.77-10.5-64.04-27.2c-12.05-13.17-18.07-29.7-16.96-46.53
				C166.08,220.52,186.26,197.01,214.27,185.61z M335.41,251.97l-0.33-0.02c1.1-16.65-4.86-33-16.79-46.04
				c-15.15-16.57-38.32-26.4-63.57-26.98c-46.92-1.08-87.21,29.93-89.8,69.14c-1.1,16.65,4.86,33,16.79,46.04
				c15.15,16.57,38.32,26.4,63.58,26.98c46.92,1.08,87.21-29.94,89.8-69.14L335.41,251.97z"/>
		</g>
	</g>
	<g>
		<g>
			
				<linearGradient id="SVGID_00000088842444545394678530000015446231564883737242_" gradientUnits="userSpaceOnUse" x1="-8634.7373" y1="-1577.1926" x2="-8463.1738" y2="-1577.1926" gradientTransform="matrix(-0.9262 0.3771 -0.3771 -0.9262 -8262.4971 2013.3955)">
				<stop  offset="0" style="stop-color:#DF7800"/>
				<stop  offset="0.3789" style="stop-color:#DA3AA7"/>
				<stop  offset="0.7304" style="stop-color:#243DF5"/>
				<stop  offset="1" style="stop-color:#7DEBB2"/>
			</linearGradient>
			<path style="fill:url(#SVGID_00000088842444545394678530000015446231564883737242_);" d="M217.14,179.01
				c6.75-2.75,13.97-4.77,21.55-5.92c24.06-3.65,48.47,2.1,66.97,15.8c16.21,12,26.69,29.11,29.49,48.18l-0.34,0.05l0.34-0.05
				c6.23,42.41-26.9,82.71-73.85,89.84c-24.06,3.65-48.47-2.1-66.97-15.8c-16.21-12-26.69-29.11-29.49-48.18
				C159.62,227.37,182.07,193.29,217.14,179.01z M282.6,320.36c34.79-14.17,57.06-47.94,51.88-83.19
				c-2.78-18.89-13.15-35.84-29.22-47.73c-18.36-13.58-42.58-19.3-66.46-15.67c-46.58,7.07-79.46,47.03-73.28,89.06
				c2.78,18.89,13.15,35.84,29.22,47.73c18.36,13.58,42.58,19.3,66.46,15.67C268.73,325.09,275.9,323.09,282.6,320.36z"/>
		</g>
	</g>
	<g>
		<g>
			
				<linearGradient id="SVGID_00000183241512010307296410000009917176428037807542_" gradientUnits="userSpaceOnUse" x1="-8635.1055" y1="-1577.1921" x2="-8462.8057" y2="-1577.1921" gradientTransform="matrix(-0.9262 0.3771 -0.3771 -0.9262 -8262.4971 2013.3955)">
				<stop  offset="0" style="stop-color:#DF7800"/>
				<stop  offset="0.3789" style="stop-color:#DA3AA7"/>
				<stop  offset="0.7304" style="stop-color:#243DF5"/>
				<stop  offset="1" style="stop-color:#7DEBB2"/>
			</linearGradient>
			<path style="fill:url(#SVGID_00000183241512010307296410000009917176428037807542_);" d="M217.65,171.96
				c1.33-0.54,2.67-1.05,4.04-1.53c44.81-15.79,93.96,7.05,109.57,50.93c7.46,20.96,6.24,43.65-3.41,63.89
				c-9.93,20.83-27.53,36.57-49.54,44.33c-44.81,15.79-93.96-7.05-109.57-50.93c-7.46-20.96-6.24-43.65,3.41-63.89
				C181.47,195.22,197.53,180.15,217.65,171.96z M282.08,327.38c19.96-8.13,35.89-23.07,45.13-42.45
				c9.57-20.07,10.77-42.57,3.38-63.34c-15.48-43.51-64.23-66.16-108.67-50.5c-21.83,7.7-39.28,23.31-49.14,43.97
				c-9.57,20.07-10.77,42.57-3.38,63.34c15.48,43.51,64.23,66.16,108.67,50.5C279.42,328.43,280.76,327.92,282.08,327.38z"/>
		</g>
	</g>
	<g>
		<g>
			
				<linearGradient id="SVGID_00000063603199714665874580000009690099404711613887_" gradientUnits="userSpaceOnUse" x1="-8635.1416" y1="-1577.1924" x2="-8462.7695" y2="-1577.1924" gradientTransform="matrix(-0.9262 0.3771 -0.3771 -0.9262 -8262.4971 2013.3955)">
				<stop  offset="0" style="stop-color:#DF7800"/>
				<stop  offset="0.3789" style="stop-color:#DA3AA7"/>
				<stop  offset="0.7304" style="stop-color:#243DF5"/>
				<stop  offset="1" style="stop-color:#7DEBB2"/>
			</linearGradient>
			<path style="fill:url(#SVGID_00000063603199714665874580000009690099404711613887_);" d="M215.71,164.84
				c16.2-6.6,34.15-7.79,51.69-3.26c23.72,6.12,43.79,21.68,56.51,43.79c25.2,43.79,12.55,99.44-28.2,124.04
				c-18.92,11.42-41.33,14.61-63.11,8.99c-23.72-6.12-43.79-21.68-56.52-43.79c-25.2-43.79-12.55-99.44,28.2-124.04
				C207.97,168.35,211.79,166.44,215.71,164.84z M284.01,334.47c3.88-1.58,7.66-3.48,11.32-5.68
				c40.41-24.4,52.94-79.59,27.94-123.04c-12.63-21.94-32.53-37.37-56.06-43.45c-21.59-5.57-43.8-2.41-62.55,8.91
				c-40.41,24.4-52.94,79.59-27.94,123.04c12.63,21.94,32.54,37.37,56.06,43.45C250.17,342.18,267.96,341.01,284.01,334.47z"/>
		</g>
	</g>
	<g>
		<g>
			
				<linearGradient id="SVGID_00000163751231431700040460000016296196132276254631_" gradientUnits="userSpaceOnUse" x1="-8635.3145" y1="-1577.1925" x2="-8462.5967" y2="-1577.1925" gradientTransform="matrix(-0.9262 0.3771 -0.3771 -0.9262 -8262.4971 2013.3955)">
				<stop  offset="0" style="stop-color:#DF7800"/>
				<stop  offset="0.3789" style="stop-color:#DA3AA7"/>
				<stop  offset="0.7304" style="stop-color:#243DF5"/>
				<stop  offset="1" style="stop-color:#7DEBB2"/>
			</linearGradient>
			<path style="fill:url(#SVGID_00000163751231431700040460000016296196132276254631_);" d="M210.78,158.43
				c10.49-4.27,21.97-6.17,33.83-5.46c25.51,1.51,50.47,14.91,68.49,36.76c34.65,42.02,34.55,103.24-0.22,136.48
				c-15.4,14.72-35.81,22.11-57.49,20.83c-25.51-1.51-50.47-14.91-68.49-36.76c-34.65-42.02-34.55-103.24,0.22-136.48
				C194.09,167.13,202.1,161.97,210.78,158.43z M288.93,340.85c8.59-3.5,16.51-8.61,23.42-15.21
				c34.48-32.96,34.55-93.71,0.16-135.42c-17.88-21.69-42.65-34.98-67.94-36.48c-21.46-1.27-41.67,6.05-56.91,20.62
				c-34.48,32.96-34.56,93.71-0.16,135.42c17.88,21.69,42.65,34.98,67.94,36.48C267.18,346.96,278.55,345.08,288.93,340.85z"/>
		</g>
	</g>
	<g>
		<g>
			
				<linearGradient id="SVGID_00000003816930795269450510000008368888318726546820_" gradientUnits="userSpaceOnUse" x1="-8636.2051" y1="-1577.1924" x2="-8461.7061" y2="-1577.1924" gradientTransform="matrix(-0.9262 0.3771 -0.3771 -0.9262 -8262.4971 2013.3955)">
				<stop  offset="0" style="stop-color:#DF7800"/>
				<stop  offset="0.3789" style="stop-color:#DA3AA7"/>
				<stop  offset="0.7304" style="stop-color:#243DF5"/>
				<stop  offset="1" style="stop-color:#7DEBB2"/>
			</linearGradient>
			<path style="fill:url(#SVGID_00000003816930795269450510000008368888318726546820_);" d="M203.64,152.94
				c5.56-2.26,11.47-3.84,17.64-4.68c26.07-3.54,54.37,6.22,77.65,26.77c43.59,38.48,57.14,103.42,30.2,144.75
				c-11.58,17.77-29.48,29.12-50.41,31.96c-26.07,3.54-54.37-6.22-77.65-26.77c-43.59-38.48-57.14-103.42-30.2-144.75
				C179.04,167.69,190.35,158.35,203.64,152.94z M298.39,175.63c-23.1-20.4-51.17-30.08-77-26.57
				c-20.69,2.81-38.39,14.03-49.84,31.6c-26.73,41.01-13.24,105.48,30.06,143.7c23.1,20.4,51.17,30.08,77,26.57
				c20.69-2.81,38.39-14.03,49.84-31.6C355.18,278.33,341.69,213.86,298.39,175.63z"/>
		</g>
	</g>
	<g>
		<g>
			
				<linearGradient id="SVGID_00000008146704452965854030000007527449730046638480_" gradientUnits="userSpaceOnUse" x1="-8638.4531" y1="-1577.1924" x2="-8459.457" y2="-1577.1924" gradientTransform="matrix(-0.9262 0.3771 -0.3771 -0.9262 -8262.4971 2013.3955)">
				<stop  offset="0" style="stop-color:#DF7800"/>
				<stop  offset="0.3789" style="stop-color:#DA3AA7"/>
				<stop  offset="0.7304" style="stop-color:#243DF5"/>
				<stop  offset="1" style="stop-color:#7DEBB2"/>
			</linearGradient>
			<path style="fill:url(#SVGID_00000008146704452965854030000007527449730046638480_);" d="M194.76,148.69
				c1.24-0.51,2.5-0.98,3.79-1.41c25.06-8.52,55.35-3.19,83.11,14.65c51.63,33.17,79.49,99.65,62.1,148.19
				c-7.43,20.73-22.44,35.86-42.29,42.61c-25.06,8.52-55.35,3.19-83.11-14.65c-51.63-33.17-79.49-99.65-62.1-148.19
				C163.2,170.5,176.79,156,194.76,148.69z M304.92,350.53c17.75-7.23,31.17-21.55,38.03-40.71c17.27-48.2-10.44-114.23-61.76-147.2
				c-27.54-17.69-57.57-23-82.38-14.56c-19.59,6.67-34.43,21.62-41.77,42.1c-17.27,48.2,10.44,114.23,61.76,147.2
				c27.54,17.69,57.57,23,82.38,14.56C302.45,351.5,303.7,351.03,304.92,350.53z"/>
		</g>
	</g>
	<g>
		<g>
			
				<linearGradient id="SVGID_00000056399513939397367940000015258430393267030690_" gradientUnits="userSpaceOnUse" x1="-8642.5498" y1="-1577.1925" x2="-8455.3613" y2="-1577.1925" gradientTransform="matrix(-0.9262 0.3771 -0.3771 -0.9262 -8262.4971 2013.3955)">
				<stop  offset="0" style="stop-color:#DF7800"/>
				<stop  offset="0.3789" style="stop-color:#DA3AA7"/>
				<stop  offset="0.7304" style="stop-color:#243DF5"/>
				<stop  offset="1" style="stop-color:#7DEBB2"/>
			</linearGradient>
			<path style="fill:url(#SVGID_00000056399513939397367940000015258430393267030690_);" d="M184.93,145.8
				c21.76-8.86,49.18-7.08,76.73,5.25c58.39,26.13,100.73,91.73,94.37,146.25c-2.76,23.66-14.51,42.51-33.1,53.08
				c-22.78,12.95-53.62,12.43-84.6-1.43c-58.39-26.13-100.73-91.73-94.37-146.25c2.76-23.66,14.51-42.52,33.1-53.08
				C179.59,148.18,182.22,146.91,184.93,145.8z M314.74,353.39c2.68-1.09,5.27-2.35,7.77-3.76c18.34-10.43,29.94-29.04,32.66-52.42
				c6.31-54.16-35.79-119.37-93.86-145.35c-30.73-13.75-61.28-14.28-83.81-1.47c-18.34,10.43-29.94,29.05-32.66,52.42
				c-6.31,54.16,35.79,119.37,93.86,145.35C266.02,360.38,293.2,362.15,314.74,353.39z"/>
		</g>
	</g>
	<g>
		<g>
			
				<linearGradient id="SVGID_00000070120560609791081920000011489678581921902736_" gradientUnits="userSpaceOnUse" x1="-8648.6357" y1="-1577.1923" x2="-8449.2754" y2="-1577.1923" gradientTransform="matrix(-0.9262 0.3771 -0.3771 -0.9262 -8262.4971 2013.3955)">
				<stop  offset="0" style="stop-color:#DF7800"/>
				<stop  offset="0.3789" style="stop-color:#DA3AA7"/>
				<stop  offset="0.7304" style="stop-color:#243DF5"/>
				<stop  offset="1" style="stop-color:#7DEBB2"/>
			</linearGradient>
			<path style="fill:url(#SVGID_00000070120560609791081920000011489678581921902736_);" d="M174.8,144.37
				c18.08-7.36,40.67-7.96,64.7-1.35C303,160.5,359.45,222.65,365.32,281.56c2.64,26.49-5.34,49.04-22.47,63.49
				c-19.65,16.57-49.66,20.92-82.35,11.92C197,339.5,140.55,277.35,134.68,218.44c-2.64-26.49,5.34-49.04,22.46-63.49
				C162.35,150.55,168.28,147.02,174.8,144.37z M324.86,354.79c6.43-2.62,12.28-6.1,17.41-10.43c16.89-14.25,24.76-36.52,22.15-62.7
				c-5.84-58.57-61.99-120.37-125.16-137.75c-32.4-8.92-62.11-4.64-81.52,11.74c-16.89,14.25-24.76,36.52-22.14,62.7
				c5.84,58.57,61.99,120.37,125.16,137.75C284.58,362.66,306.96,362.07,324.86,354.79z"/>
		</g>
	</g>
	<g>
		<g>
			
				<linearGradient id="SVGID_00000144337026442253329100000002764700013900644246_" gradientUnits="userSpaceOnUse" x1="-8656.5039" y1="-1577.1923" x2="-8441.4072" y2="-1577.1923" gradientTransform="matrix(-0.9262 0.3771 -0.3771 -0.9262 -8262.4971 2013.3955)">
				<stop  offset="0" style="stop-color:#DF7800"/>
				<stop  offset="0.3789" style="stop-color:#DA3AA7"/>
				<stop  offset="0.7304" style="stop-color:#243DF5"/>
				<stop  offset="1" style="stop-color:#7DEBB2"/>
			</linearGradient>
			<path style="fill:url(#SVGID_00000144337026442253329100000002764700013900644246_);" d="M165.35,144.03
				c14.2-5.78,31.33-7.77,50.44-5.64c66.63,7.41,136.25,63.42,155.19,124.87c8.93,28.97,5.41,55.12-9.91,73.63
				c-16.26,19.65-43.56,28.43-76.88,24.72c-66.63-7.41-136.25-63.42-155.19-124.87c-8.93-28.97-5.41-55.12,9.91-73.63
				C145.85,154.73,154.79,148.33,165.35,144.03z M334.28,355.09c10.42-4.24,19.23-10.55,26.06-18.81
				c15.11-18.26,18.56-44.09,9.73-72.74c-18.84-61.12-88.1-116.83-154.39-124.2c-32.99-3.67-60,4.99-76.04,24.38
				c-15.11,18.26-18.56,44.09-9.73,72.74c18.84,61.12,88.1,116.83,154.39,124.2C303.25,362.77,320.23,360.81,334.28,355.09z"/>
		</g>
	</g>
	<g>
		<g>
			
				<linearGradient id="SVGID_00000168809552804854144160000011572661463544703625_" gradientUnits="userSpaceOnUse" x1="-8665.7666" y1="-1577.1925" x2="-8432.1445" y2="-1577.1925" gradientTransform="matrix(-0.9262 0.3771 -0.3771 -0.9262 -8262.4971 2013.3955)">
				<stop  offset="0" style="stop-color:#DF7800"/>
				<stop  offset="0.3789" style="stop-color:#DA3AA7"/>
				<stop  offset="0.7304" style="stop-color:#243DF5"/>
				<stop  offset="1" style="stop-color:#7DEBB2"/>
			</linearGradient>
			<path style="fill:url(#SVGID_00000168809552804854144160000011572661463544703625_);" d="M157.07,144.92
				c10.04-4.09,21.56-6.57,34.27-7.29c67.49-3.82,148.76,43.39,181.17,105.23c16.1,30.73,17.86,60.19,4.94,82.97
				c-12.33,21.75-36.77,34.73-68.8,36.54c-67.49,3.82-148.76-43.39-181.17-105.23c-16.1-30.73-17.86-60.19-4.94-82.97
				C129.98,161.05,141.82,151.13,157.07,144.92z M342.55,354.16c15.05-6.13,26.72-15.91,34.05-28.83
				c12.74-22.47,10.98-51.6-4.96-82.02c-32.24-61.53-113.09-108.5-180.23-104.7c-31.69,1.79-55.83,14.59-67.99,36.04
				c-12.74,22.47-10.98,51.6,4.96,82.02c32.24,61.53,113.09,108.5,180.23,104.7C321.2,360.66,332.61,358.21,342.55,354.16z"/>
		</g>
	</g>
	<g>
		<g>
			
				<linearGradient id="SVGID_00000097491481175809245540000012639410799030608512_" gradientUnits="userSpaceOnUse" x1="-8675.7627" y1="-1577.1923" x2="-8422.1484" y2="-1577.1923" gradientTransform="matrix(-0.9262 0.3771 -0.3771 -0.9262 -8262.4971 2013.3955)">
				<stop  offset="0" style="stop-color:#DF7800"/>
				<stop  offset="0.3789" style="stop-color:#DA3AA7"/>
				<stop  offset="0.7304" style="stop-color:#243DF5"/>
				<stop  offset="1" style="stop-color:#7DEBB2"/>
			</linearGradient>
			<path style="fill:url(#SVGID_00000097491481175809245540000012639410799030608512_);" d="M151.26,146.14
				c4.92-2.01,10.18-3.69,15.75-5.03c65.83-15.88,156.66,19.94,202.46,79.86c23.6,30.87,31.7,63.93,22.2,90.71
				c-8.26,23.31-29.11,40.08-58.69,47.22c-65.83,15.88-156.66-19.94-202.46-79.86c-23.6-30.87-31.7-63.93-22.2-90.71
				C115.03,169.4,130.03,154.79,151.26,146.14z M348.34,352.9c20.96-8.54,35.76-22.93,42.36-41.57
				c9.37-26.44,1.34-59.14-22.05-89.73c-45.58-59.62-135.93-95.27-201.4-79.48c-29.23,7.05-49.82,23.58-57.96,46.55
				c-9.37,26.44-1.33,59.14,22.05,89.73c45.58,59.62,135.93,95.27,201.4,79.48C338.26,356.55,343.47,354.88,348.34,352.9z"/>
		</g>
	</g>
	<g>
		<g>
			
				<linearGradient id="SVGID_00000037654162824061205840000017626446924017737146_" gradientUnits="userSpaceOnUse" x1="-8685.9551" y1="-1577.1924" x2="-8411.9561" y2="-1577.1924" gradientTransform="matrix(-0.9262 0.3771 -0.3771 -0.9262 -8262.4971 2013.3955)">
				<stop  offset="0" style="stop-color:#DF7800"/>
				<stop  offset="0.3789" style="stop-color:#DA3AA7"/>
				<stop  offset="0.7304" style="stop-color:#243DF5"/>
				<stop  offset="1" style="stop-color:#7DEBB2"/>
			</linearGradient>
			<path style="fill:url(#SVGID_00000037654162824061205840000017626446924017737146_);" d="M148.57,146.97
				c61.7-25.12,155.93-2.78,213.03,51.31c31.57,29.9,46.75,64.83,41.65,95.83c-4.03,24.52-20.72,44.69-46.99,56.81
				c-61.5,28.38-159.25,6.31-217.86-49.21c-31.57-29.9-46.75-64.83-41.65-95.83c4.03-24.52,20.72-44.69,46.99-56.81
				C145.32,148.34,146.94,147.64,148.57,146.97z M144.19,150.05l-0.23-0.49L144.19,150.05c-25.93,11.97-42.4,31.86-46.37,56.01
				c-5.04,30.64,10.02,65.22,41.33,94.87c58.32,55.24,155.5,77.24,216.67,49.02c25.93-11.97,42.4-31.86,46.37-56.01
				c5.04-30.64-10.02-65.22-41.33-94.87C302.53,143.82,205.33,121.83,144.19,150.05z"/>
		</g>
	</g>
	<g>
		<g>
			
				<linearGradient id="SVGID_00000081622384996164612550000016213796315084361405_" gradientUnits="userSpaceOnUse" x1="-8695.626" y1="-1577.1925" x2="-8402.2852" y2="-1577.1925" gradientTransform="matrix(-0.9262 0.3771 -0.3771 -0.9262 -8262.4971 2013.3955)">
				<stop  offset="0" style="stop-color:#DF7800"/>
				<stop  offset="0.3789" style="stop-color:#DA3AA7"/>
				<stop  offset="0.7304" style="stop-color:#243DF5"/>
				<stop  offset="1" style="stop-color:#7DEBB2"/>
			</linearGradient>
			<path style="fill:url(#SVGID_00000081622384996164612550000016213796315084361405_);" d="M149.34,146.6
				c56.81-23.13,139.46-12.46,199.43,29.01c39.11,27.05,61.93,62.48,62.6,97.2c0.51,25.89-11.21,48.57-33.87,65.59
				c-54.46,40.9-155.96,34.61-226.26-14.01c-39.11-27.05-61.93-62.48-62.6-97.2c-0.5-25.89,11.21-48.57,33.87-65.59
				C130.51,155.59,139.55,150.59,149.34,146.6z M350.19,352.38c9.72-3.96,18.68-8.91,26.63-14.88
				c22.36-16.79,33.92-39.15,33.42-64.66c-0.67-34.36-23.31-69.46-62.12-96.3c-69.93-48.37-170.84-54.66-224.95-14.03
				c-22.36,16.79-33.92,39.15-33.42,64.66c0.67,34.36,23.31,69.46,62.12,96.3C211.53,364.72,293.74,375.37,350.19,352.38z"/>
		</g>
	</g>
	<g>
		<g>
			
				<linearGradient id="SVGID_00000079474026912615275320000015436073740954885554_" gradientUnits="userSpaceOnUse" x1="-8704.1807" y1="-1577.1924" x2="-8393.7305" y2="-1577.1924" gradientTransform="matrix(-0.9262 0.3771 -0.3771 -0.9262 -8262.4971 2013.3955)">
				<stop  offset="0" style="stop-color:#DF7800"/>
				<stop  offset="0.3789" style="stop-color:#DA3AA7"/>
				<stop  offset="0.7304" style="stop-color:#243DF5"/>
				<stop  offset="1" style="stop-color:#7DEBB2"/>
			</linearGradient>
			<path style="fill:url(#SVGID_00000079474026912615275320000015436073740954885554_);" d="M153.83,144.06
				c50.72-20.65,119.49-18.46,177.21,9.75c45.43,22.21,75.99,56.37,83.85,93.71c5.63,26.77-1.01,52.31-19.2,73.85
				c-44.7,52.94-146.41,64.07-226.72,24.81c-45.43-22.21-75.99-56.37-83.85-93.71c-5.63-26.77,1.01-52.31,19.2-73.85l0.45,0.38
				l-0.45-0.38C116.89,163.73,133.97,152.14,153.83,144.06z M345.7,354.88c19.69-8.02,36.62-19.5,49.09-34.26
				c17.95-21.26,24.51-46.45,18.95-72.86c-7.78-36.99-38.12-70.85-83.22-92.9C273.1,126.8,204.7,124.6,154.3,145.12
				c-19.69,8.02-36.62,19.5-49.09,34.26c-17.95,21.26-24.51,46.45-18.95,72.85c7.78,36.99,38.12,70.85,83.22,92.9
				C226.9,373.2,295.31,375.4,345.7,354.88z"/>
		</g>
	</g>
	<g>
		<g>
			
				<linearGradient id="SVGID_00000062913390512423019700000015918396150757118650_" gradientUnits="userSpaceOnUse" x1="-8711.2422" y1="-1577.1924" x2="-8386.6689" y2="-1577.1924" gradientTransform="matrix(-0.9262 0.3771 -0.3771 -0.9262 -8262.4971 2013.3955)">
				<stop  offset="0" style="stop-color:#DF7800"/>
				<stop  offset="0.3789" style="stop-color:#DA3AA7"/>
				<stop  offset="0.7304" style="stop-color:#243DF5"/>
				<stop  offset="1" style="stop-color:#7DEBB2"/>
			</linearGradient>
			<path style="fill:url(#SVGID_00000062913390512423019700000015918396150757118650_);" d="M161.79,138.39
				c42.76-17.41,96.43-20.37,146.86-4.59c49.77,15.57,87.55,46.39,103.67,84.55c11.58,27.43,10.73,55.71-2.46,81.78
				c-32.37,64.01-130.4,93.64-218.53,66.07c-49.77-15.57-87.55-46.39-103.67-84.55c-11.58-27.43-10.73-55.71,2.46-81.78
				C103.98,172.49,129.84,151.4,161.79,138.39z M337.75,360.5c31.69-12.9,57.31-33.79,71.03-60.92
				c13.02-25.75,13.86-53.67,2.42-80.76c-15.98-37.83-53.48-68.39-102.9-83.85c-87.58-27.41-184.96,1.96-217.07,65.45l-0.55-0.28
				l0.55,0.28c-13.02,25.75-13.86,53.67-2.42,80.75c15.98,37.83,53.48,68.39,102.91,83.85C241.87,380.73,295.26,377.8,337.75,360.5z
				"/>
		</g>
	</g>
	<g>
		<g>
			
				<linearGradient id="SVGID_00000158715943389925855190000014808183810136587960_" gradientUnits="userSpaceOnUse" x1="-8716.5322" y1="-1577.1924" x2="-8381.3789" y2="-1577.1924" gradientTransform="matrix(-0.9262 0.3771 -0.3771 -0.9262 -8262.4971 2013.3955)">
				<stop  offset="0" style="stop-color:#DF7800"/>
				<stop  offset="0.3789" style="stop-color:#DA3AA7"/>
				<stop  offset="0.7304" style="stop-color:#243DF5"/>
				<stop  offset="1" style="stop-color:#7DEBB2"/>
			</linearGradient>
			<path style="fill:url(#SVGID_00000158715943389925855190000014808183810136587960_);" d="M171.46,129.3
				c32.93-13.41,71.51-18.6,110.62-12.81c51.57,7.64,95.3,32.99,119.97,69.54c18.32,27.13,24.38,58.77,17.09,89.07
				c-17.72,73.58-107.99,122.2-201.23,108.39c-51.57-7.64-95.3-32.99-119.97-69.54c-18.32-27.13-24.38-58.77-17.09-89.07l0.62,0.15
				l-0.62-0.15C91.14,182.17,125.88,147.86,171.46,129.3z M328.08,369.52c45.2-18.41,79.63-52.39,89.82-94.71
				c7.32-30.38,1.47-60.83-16.9-88.06c-24.48-36.26-67.89-61.41-119.1-69c-38.89-5.76-77.26-0.6-109.98,12.72
				c-45.2,18.4-79.63,52.39-89.82,94.71c-7.32,30.38-1.47,60.83,16.9,88.06c24.48,36.26,67.89,61.41,119.1,69
				C256.99,388,295.36,382.84,328.08,369.52z"/>
		</g>
	</g>
	<g>
		<g>
			
				<linearGradient id="SVGID_00000167363348838284858010000018342697279327730084_" gradientUnits="userSpaceOnUse" x1="-8719.9834" y1="-1577.1925" x2="-8377.9268" y2="-1577.1925" gradientTransform="matrix(-0.9262 0.3771 -0.3771 -0.9262 -8262.4971 2013.3955)">
				<stop  offset="0" style="stop-color:#DF7800"/>
				<stop  offset="0.3789" style="stop-color:#DA3AA7"/>
				<stop  offset="0.7304" style="stop-color:#243DF5"/>
				<stop  offset="1" style="stop-color:#7DEBB2"/>
			</linearGradient>
			<path style="fill:url(#SVGID_00000167363348838284858010000018342697279327730084_);" d="M179.91,117.43
				c22.01-8.96,46.42-14.18,72.06-14.63c50.69-0.9,98.38,17.12,130.84,49.45c26.22,26.1,40.39,59.74,39.92,94.71
				c-1.1,81.16-79.46,148.56-174.7,150.25c-50.69,0.9-98.38-17.12-130.84-49.45c-26.22-26.1-40.39-59.74-39.92-94.71
				C78.07,193.73,120.15,141.77,179.91,117.43z M319.6,381.33c59.28-24.14,101-75.63,101.8-134.4c0.47-34.6-13.57-67.9-39.53-93.74
				c-32.21-32.07-79.55-49.95-129.88-49.06c-94.52,1.68-172.3,68.49-173.39,148.93c-0.47,34.6,13.57,67.9,39.53,93.74
				c32.21,32.07,79.55,49.95,129.88,49.06C273.48,395.42,297.74,390.24,319.6,381.33z"/>
		</g>
	</g>
	<g>
		<g>
			
				<linearGradient id="SVGID_00000052092376424900869400000003221460283093145788_" gradientUnits="userSpaceOnUse" x1="-8721.7871" y1="-1577.1924" x2="-8376.1523" y2="-1577.1924" gradientTransform="matrix(-0.9262 0.3771 -0.3771 -0.9262 -8262.4971 2013.3955)">
				<stop  offset="0" style="stop-color:#DF7800"/>
				<stop  offset="0.3789" style="stop-color:#DA3AA7"/>
				<stop  offset="0.7304" style="stop-color:#243DF5"/>
				<stop  offset="1" style="stop-color:#7DEBB2"/>
			</linearGradient>
			<path style="fill:url(#SVGID_00000052092376424900869400000003221460283093145788_);" d="M184.64,103.85
				c10.92-4.45,22.45-7.93,34.51-10.3c45.4-8.95,91.29-1.1,129.22,22.1c37.95,23.22,63.39,59.02,71.63,100.82
				c17.01,86.27-45.4,171.49-139.14,189.97c-93.74,18.49-183.84-36.66-200.85-122.92l0.68-0.13l-0.68,0.13
				C65.18,208.36,110.68,133.97,184.64,103.85z M314.84,394.86c73.37-29.88,118.49-103.6,103.79-178.12
				c-8.17-41.41-33.38-76.9-70.99-99.91c-37.63-23.02-83.17-30.81-128.22-21.92c-11.96,2.36-23.42,5.82-34.26,10.23
				c-73.37,29.87-118.49,103.6-103.79,178.12c16.86,85.52,106.23,140.17,199.22,121.83C292.55,402.73,304.01,399.27,314.84,394.86z"
				/>
		</g>
	</g>
	<g>
		<g>
			
				<linearGradient id="SVGID_00000170268950293003390220000002728819685145857176_" gradientUnits="userSpaceOnUse" x1="-8722.2539" y1="-1577.1924" x2="-8375.6572" y2="-1577.1924" gradientTransform="matrix(-0.9262 0.3771 -0.3771 -0.9262 -8262.4971 2013.3955)">
				<stop  offset="0" style="stop-color:#DF7800"/>
				<stop  offset="0.3789" style="stop-color:#DA3AA7"/>
				<stop  offset="0.7304" style="stop-color:#243DF5"/>
				<stop  offset="1" style="stop-color:#7DEBB2"/>
			</linearGradient>
			<path style="fill:url(#SVGID_00000170268950293003390220000002728819685145857176_);" d="M184.64,89.5
				c88.5-36.04,189.82,6.64,225.86,95.14s-6.64,189.82-95.14,225.86c-88.5,36.04-189.82-6.64-225.86-95.14S96.14,125.54,184.64,89.5
				z M314.81,409.16c87.76-35.74,130.09-136.21,94.35-223.97S272.95,55.1,185.19,90.84S55.1,227.05,90.84,314.81
				S227.05,444.9,314.81,409.16z"/>
		</g>
	</g>
</g>
</svg>
