<?xml version="1.0" encoding="UTF-8"?>
<svg width="172px" height="33px" viewBox="0 0 172 33" version="1.1" xmlns="http://www.w3.org/2000/svg" xmlns:xlink="http://www.w3.org/1999/xlink">
    <title>Logo-white</title>
    <defs>
        <path d="M4.74907317,20.5578947 L4.74907317,15.4117895 L8.27843902,15.4117895 L10.9254634,20.5578947 L16.2973659,20.5578947 L12.5084878,14.4833684 C14.6105366,13.3692632 15.7523902,11.3002105 15.7523902,8.48842105 C15.7523902,4.35031579 13.001561,1.96294737 8.17463415,1.96294737 L0,1.96294737 L0,20.5578947 L4.74907317,20.5578947 Z M8.20058537,11.5389474 L4.74907317,11.5389474 L4.74907317,5.83578947 L8.20058537,5.83578947 C10.1209756,5.83578947 11.236878,6.81726316 11.236878,8.64757895 C11.236878,10.5309474 10.1209756,11.5389474 8.20058537,11.5389474 Z M25.0515772,20.7435789 C26.7903089,20.7435789 28.217626,20.0273684 29.1778211,18.7541053 L29.1778211,20.5578947 L33.7971382,20.5578947 L33.7971382,6.20715789 L29.1778211,6.20715789 L29.1778211,8.064 C28.1916748,6.76421053 26.7124553,6.02147368 24.9218211,6.048 C21.0550894,6.048 18.5118699,8.93936842 18.5118699,13.3162105 C18.5118699,17.7726316 21.1069919,20.7435789 25.0515772,20.7435789 Z M26.1934309,17.0298947 C24.3768455,17.0298947 23.1571382,15.5709474 23.1571382,13.4488421 C23.1571382,11.3267368 24.3768455,9.86778947 26.1934309,9.86778947 C27.8543089,9.86778947 28.9961626,11.088 29.1778211,12.9713684 L29.1778211,13.9263158 C28.9961626,15.7831579 27.8543089,17.0298947 26.1934309,17.0298947 Z M42.8108618,20.5578947 L42.8108618,13.2366316 C43.0444228,11.2471579 44.7572033,10.08 47.326374,10.3452632 L47.326374,6.02147368 C45.3540813,6.02147368 43.7710569,6.94989474 42.8108618,8.59452632 L42.8108618,6.20715789 L38.1915447,6.20715789 L38.1915447,20.5578947 L42.8108618,20.5578947 Z M56.6515122,20.7170526 C59.2985366,20.7170526 61.4524878,19.7621053 63.0874146,17.7991579 L60.4922927,15.4117895 C59.4542439,16.5524211 58.2345366,17.1625263 56.988878,17.1625263 C55.6394146,17.1625263 54.6013659,16.4463158 54.0823415,15.1995789 L63.4766829,12.8917895 C63.372878,8.64757895 60.5960976,6.02147368 56.392,6.048 C51.902439,6.07452632 49.0737561,9.04547368 49.0737561,13.4488421 C49.0737561,17.8256842 52.1100488,20.7170526 56.6515122,20.7170526 Z M53.7190244,12.6 C53.8747317,10.5309474 54.9387317,9.39031579 56.5996098,9.39031579 C57.7414634,9.39031579 58.5978537,10.0004211 58.9352195,11.2736842 L53.7190244,12.6 Z M70.9852358,20.7701053 C72.308748,20.7701053 73.7101138,20.4252632 74.7222114,19.8151579 L73.8398699,16.4728421 C73.2429919,16.7911579 72.6980163,16.9503158 72.2049431,16.9503158 C71.3485528,16.9503158 70.8295285,16.3932632 70.8295285,15.2261053 L70.8295285,10.0269474 L74.4886504,10.0269474 L74.4886504,6.89684211 L70.8295285,6.89684211 L70.8295285,2.91789474 L66.2621138,2.91789474 L66.2621138,15.9688421 C66.2621138,19.0193684 68.2084553,20.7701053 70.9852358,20.7701053 Z M84.2549593,20.7170526 C88.8742764,20.7170526 91.9365203,17.7991579 91.9365203,13.3692632 C91.9365203,8.96589474 88.8742764,6.048 84.2549593,6.048 C79.6356423,6.048 76.5993496,8.96589474 76.5993496,13.3692632 C76.5993496,17.7991579 79.6356423,20.7170526 84.2549593,20.7170526 Z M84.2549593,17.0033684 C82.4643252,17.0033684 81.2446179,15.5709474 81.2446179,13.4223158 C81.2446179,11.3002105 82.4643252,9.86778947 84.2549593,9.86778947 C86.0715447,9.86778947 87.291252,11.3002105 87.291252,13.4223158 C87.291252,15.5709474 86.0715447,17.0033684 84.2549593,17.0033684 Z M100.145756,20.7701053 C103.571317,20.7701053 106.088654,19.0989474 106.088654,16.1545263 C106.114537,11.1675789 98.7443902,12.0694737 98.7443902,10.1861053 C98.7443902,9.576 99.2893659,9.28421053 100.067902,9.28421053 C101.209756,9.28421053 102.79278,9.81473684 104.531512,10.7431579 L106.088654,7.66610526 C104.323902,6.57852632 102.273756,5.99494737 100.249561,5.99494737 C96.9537561,5.99494737 94.4883902,7.63957895 94.4883902,10.6370526 C94.4883902,15.5974737 101.72878,14.616 101.72878,16.5789474 C101.72878,17.1625263 101.105951,17.4543158 100.249561,17.4543158 C98.6924878,17.4543158 96.8759024,16.8176842 95.2669268,15.6770526 L93.8136585,18.7275789 C95.526439,20.0804211 97.7841951,20.7701053 100.145756,20.7701053 Z M114.194016,20.5578947 L114.194016,13.4753684 C114.194016,11.592 115.232065,10.2656842 116.944846,10.2391579 C118.424065,10.2391579 119.332358,11.2471579 119.332358,12.8652632 L119.332358,20.5578947 L123.951675,20.5578947 L123.951675,11.5124211 C123.951675,8.14357895 121.92748,6.02147368 118.839285,6.02147368 C116.789138,6.02147368 115.180163,6.89684211 114.194016,8.54147368 L114.194016,0.875368421 L109.574699,0.875368421 L109.574699,20.5578947 L114.194016,20.5578947 Z M130.24052,4.32378947 C131.460228,4.32378947 132.342569,3.42189474 132.342569,2.17515789 C132.342569,0.901894737 131.460228,0 130.24052,0 C129.020813,0 128.138472,0.901894737 128.138472,2.17515789 C128.138472,3.42189474 129.020813,4.32378947 130.24052,4.32378947 Z M132.524228,20.5578947 L132.524228,6.20715789 L127.930862,6.20715789 L127.930862,20.5578947 L132.524228,20.5578947 Z" id="path-1"></path>
        <path d="M28,24 L14,16 L14,32 L0,24 L0,8 L14,0 L14,16 L28,8 L28,24 Z" id="path-3"></path>
    </defs>
    <g id="Logo-white" stroke="none" stroke-width="1" fill="none" fill-rule="evenodd">
        <g id="Group-2" transform="translate(0.000000, 0.500000)">
            <g id="Colors-/-dark-grey" transform="translate(39.000000, 5.000000)">
                <mask id="mask-2" fill="white">
                    <use xlink:href="#path-1"></use>
                </mask>
                <use id="Mask" fill="#232323" fill-rule="nonzero" xlink:href="#path-1"></use>
                <g id="Group" mask="url(#mask-2)">
                    <g transform="translate(-3.243902, -13.263158)" id="Colors-/-dark-grey">
                        <rect id="Rectangle-Copy-8" fill="#FFFFFF" x="0" y="0" width="139" height="41"></rect>
                    </g>
                </g>
            </g>
            <mask id="mask-4" fill="white">
                <use xlink:href="#path-3"></use>
            </mask>
            <use id="Combined-Shape" fill="#FFFFFF" xlink:href="#path-3"></use>
        </g>
    </g>
</svg>