<?xml version="1.0" encoding="utf-8"?>
<!-- Generator: Adobe Illustrator 25.4.0, SVG Export Plug-In . SVG Version: 6.00 Build 0)  -->
<svg version="1.1" id="Layer_1" xmlns="http://www.w3.org/2000/svg" xmlns:xlink="http://www.w3.org/1999/xlink" x="0px" y="0px"
	 viewBox="0 0 500 500" style="enable-background:new 0 0 500 500;" xml:space="preserve">
<style type="text/css">
	.st0{fill:url(#SVGID_1_);}
	.st1{fill:url(#SVGID_00000102513156190475512890000012463813986073432733_);}
	.st2{fill:url(#SVGID_00000173160031371413198310000009464028261710024843_);}
	.st3{fill:url(#SVGID_00000067944503024128672840000017502386331797034143_);}
	.st4{fill:url(#SVGID_00000124873043560871232490000005830697117110410671_);}
	.st5{fill:url(#SVGID_00000073696276380491142050000016546605565584812211_);}
	.st6{fill:url(#SVGID_00000144329359023415024940000000513124661639898286_);}
	.st7{fill:url(#SVGID_00000042694602273446796070000005403186768268619142_);}
	.st8{fill:url(#SVGID_00000090999791816249821490000015774442055241032323_);}
	.st9{fill:url(#SVGID_00000182508268947554824860000001113517929181421715_);}
	.st10{fill:url(#SVGID_00000171708312248116525440000008778085800488946315_);}
	.st11{fill:url(#SVGID_00000077304799088021175510000009045905316340933036_);}
	.st12{fill:url(#SVGID_00000074427815941833184850000005292421356874811325_);}
	.st13{fill:url(#SVGID_00000023270655467026834340000000603838278327566491_);}
	.st14{fill:url(#SVGID_00000091702659353070484760000002204236584025030054_);}
	.st15{fill:url(#SVGID_00000113341350029401278930000015858670635705926794_);}
	.st16{fill:url(#SVGID_00000134249221567766856520000013731577902192352186_);}
	.st17{fill:url(#SVGID_00000121250725742795127190000008212887527795364527_);}
	.st18{fill:url(#SVGID_00000015345521655373698790000012816990446947407018_);}
	.st19{fill:url(#SVGID_00000020390469733616658710000002841772929427877008_);}
	.st20{fill:url(#SVGID_00000057827982631486558260000010478450314099629193_);}
	.st21{fill:#FFFFFF;}
	.st22{fill-rule:evenodd;clip-rule:evenodd;}
	.st23{fill-rule:evenodd;clip-rule:evenodd;fill:#FFFFFF;}
	.st24{fill:#F1F1F1;}
	.st25{fill:#EFED00;}
	.st26{fill:url(#SVGID_00000072250571362920740450000016112480087827889320_);}
	.st27{fill:url(#SVGID_00000022535365019598440090000018320127669540185524_);}
	.st28{fill:url(#SVGID_00000037674717606010726150000016784992740419239576_);}
	.st29{fill:url(#SVGID_00000056430022906630657070000017739526769207304083_);}
</style>
<path d="M400.41,386.44l-71.88-71.88c44.59-51.91,42.26-130.11-6.66-179.36c-24.96-24.96-58.23-38.6-93.18-38.6
	s-68.55,13.64-93.18,38.6c-51.58,51.58-51.58,135.1,0,186.68c24.96,24.96,58.23,38.6,93.18,38.6c31.95,0,61.9-11.31,85.85-31.95
	l71.88,71.88c2,2,4.66,2.99,6.99,2.99s4.99-1,6.99-2.99C404.07,396.42,404.07,390.1,400.41,386.44z M149.17,307.9
	c-43.59-43.59-43.59-114.81,0-158.4c21.3-21.3,49.25-32.94,79.2-32.94s57.9,11.65,79.2,32.94c43.59,43.59,43.59,114.81,0,158.4
	c-21.3,21.3-49.25,32.94-79.2,32.94C198.42,340.85,170.47,328.87,149.17,307.9z"/>
</svg>
