<?xml version="1.0" encoding="utf-8"?>
<!-- Generator: Adobe Illustrator 25.4.0, SVG Export Plug-In . SVG Version: 6.00 Build 0)  -->
<svg version="1.1" id="Layer_1" xmlns="http://www.w3.org/2000/svg" xmlns:xlink="http://www.w3.org/1999/xlink" x="0px" y="0px"
	 viewBox="0 0 500 500" style="enable-background:new 0 0 500 500;" xml:space="preserve">
<style type="text/css">
	.st0{fill:url(#SVGID_1_);}
	.st1{fill:url(#SVGID_00000126283653585094634070000010346296824289854387_);}
	.st2{fill:url(#SVGID_00000079487851116345333340000008938625497628075454_);}
	.st3{fill:url(#SVGID_00000067208691029450734410000018308030197698322569_);}
	.st4{fill:url(#SVGID_00000008844077101718720910000005124457055467868552_);}
	.st5{fill:url(#SVGID_00000044875318129685163830000009577539312395364482_);}
	.st6{fill:url(#SVGID_00000080179075746806320870000004546298464301832087_);}
	.st7{fill:url(#SVGID_00000173157964576721104960000011764630943993027006_);}
	.st8{fill:url(#SVGID_00000084510521387097818810000015371912337203660421_);}
	.st9{fill:url(#SVGID_00000050656610065615019130000005802845631557936817_);}
	.st10{fill:url(#SVGID_00000151508820568496021540000012944538035543506111_);}
	.st11{fill:url(#SVGID_00000075153539710736845920000002253708211020661685_);}
	.st12{fill:url(#SVGID_00000095333421289800221990000000250391375085762202_);}
	.st13{fill:url(#SVGID_00000083058607737462587750000015901172945751170731_);}
	.st14{fill:url(#SVGID_00000047043025002857123030000017756442689145641622_);}
	.st15{fill:url(#SVGID_00000126292406144072214270000009018219350807707277_);}
	.st16{fill:url(#SVGID_00000106852859014129474170000003830501991919250862_);}
	.st17{fill:url(#SVGID_00000103244931165461881100000000730800340175760288_);}
	.st18{fill:url(#SVGID_00000108298306392736887160000011993969083955197838_);}
	.st19{fill:url(#SVGID_00000150095793672754340200000001704995632330958730_);}
	.st20{fill:url(#SVGID_00000170279069832806290270000008250261107535882668_);}
	.st21{fill:#FFFFFF;}
	.st22{fill-rule:evenodd;clip-rule:evenodd;}
	.st23{fill-rule:evenodd;clip-rule:evenodd;fill:#FFFFFF;}
	.st24{fill:#F1F1F1;}
	.st25{fill:#EFED00;}
	.st26{fill:url(#SVGID_00000163789842910385846050000003312797356466814083_);}
	.st27{fill:url(#SVGID_00000090252384864001563150000003790764874014916514_);}
	.st28{fill:url(#SVGID_00000055694208841540341620000009498589350849437353_);}
	.st29{fill:url(#SVGID_00000158004169720033035930000016827327645898410883_);}
</style>
<path class="st24" d="M214.4,254.11c0.08,1.01,0.17,2.03,0.25,3.04c27.82,4.08,51.85-10.28,79.81-19.58
	c-23.17,14.34-44.1,26.83-64.53,40.11c-13.12,8.53-25.61,14.59-41.87,7.45c-5.15-2.26-12.91,0.23-19.08,1.94
	c-3.78,1.05-6.83,4.75-10.21,7.25c0.55,0.7,1.1,1.4,1.64,2.1c10.03-1.13,20.05-2.25,30.08-3.38c0.08,0.96,0.17,1.92,0.25,2.88
	c-2.35,1.97-4.69,3.94-7.04,5.91c0.43,0.85,0.86,1.7,1.29,2.56c27.96,0.4,50.68-16.53,75.53-25.73
	c25.42-9.42,49.38-22.79,76.43-35.6c0,9.82,0.39,18.42-0.07,26.98c-1.32,24.49-14.02,36.29-38.52,34.96
	c-18.34-1-33.95,4.18-48.69,15.18c-8.37,6.25-18.65,12.75-28.55,13.62c-28.35,2.49-53.8-5.57-72.78-28.63
	c-16.58-20.14-25.32-43.25-25.58-69.22c-0.17-17.1,9.86-23.32,25.54-16.98c3.55,1.44,7.12,2.87,10.76,4.03
	c23.94,7.62,53.77,0.36,68.13-16.1c-10.91-6.17-21.44-14.1-33.29-18.29c-12-4.24-25.31-4.78-39.28-7.15
	c32.55-13.45,34.64-45.14,44.08-73.88c-27.09,2.98-46.8,16.79-63.19,36.37c-17.31,20.68-24.48,45.43-30.82,71.16
	c-11.84,48.05-5.22,92.36,27.28,129.6c39.91,45.73,91.57,61.21,150.54,46.45c56.3-14.09,88.51-52.49,102.33-107.81
	c1.11-4.45,4.22-9.13,7.75-12.12c10.42-8.81,10.61-15.79,1.81-25.65c-8.77-9.83-17.34-20.25-23.63-31.71
	c-3.91-7.12-4.25-16.63-4.41-25.11c-0.05-2.59,5.88-5.21,8.9-8c0.93-0.86,1.9-2.38,1.82-3.53c-0.72-11.29,5.91-23.59-4.89-33.62
	c-1.59-1.48-1.29-5.16-1.57-7.85c-2.71-26.03-27.89-40.58-50.52-27.44c-11.04,6.41-19.44,17.41-28.89,26.5
	c-8.49,8.17-16.47,16.89-25.3,24.67c-3.55,3.13-8.74,4.4-13.18,6.51c0.19,0.9,0.37,1.8,0.56,2.7c7.46,0,14.91,0,22.93,0
	c-13.74,18.51-38.3,8.2-55.73,22.2c16.26,2.63,30.02,4.86,45.83,7.42c-17.04,8.68-34.29,13.87-46,29.5c12.56,0,23.49,0,34.42,0
	c0.39,0.6,0.79,1.2,1.18,1.8C242.1,237.79,228.25,245.95,214.4,254.11z"/>
</svg>
