<svg viewBox="0 0 96 96" xmlns="http://www.w3.org/2000/svg" xmlns:xlink="http://www.w3.org/1999/xlink" id="Icons_HillScene" overflow="hidden"><style>
.MsftOfcThm_Accent2_Fill {
 fill:#64C24A; 
}
</style>
<path d="M42.33 63C48.7105 59.6893 55.8125 58.0126 63 58.12L63.42 58.12C57.9993 53.7651 51.3009 51.3064 44.35 51.12 39.7259 51.1043 35.1549 52.1045 30.96 54.05 35.3309 56.2105 39.2034 59.2587 42.33 63Z" class="MsftOfcThm_Accent2_Fill" fill="#64C24A"/><path d="M12.51 74C28.45 72.74 36.76 66.78 37.31 66.38 38.0804 65.7234 38.8884 65.1124 39.73 64.55 27.4 50.29 5 52 5 52L5 74.31Z" class="MsftOfcThm_Accent2_Fill" fill="#64C24A"/><path d="M87.46 69.41C86.6869 68.6877 85.8649 68.0194 85 67.41L85 55.7C88.3886 54.5271 90.6183 51.2839 90.5 47.7 90.5 42.7 84.62 31.52 83 31.52 81.38 31.52 75.5 42.74 75.5 47.7 75.3817 51.2839 77.6114 54.5271 81 55.7L81 65.08C77.2142 63.2662 73.1633 62.0678 69 61.53L69 41.76C73.64 40.76 77.14 36.06 77.14 29.51 77.14 22.05 69.43 6 67 6 64.57 6 56.86 22.05 56.86 29.51 56.86 36.06 60.36 40.72 65 41.76L65 61.17C64.32 61.17 63.64 61.12 63 61.12 53.62 61.12 44.94 63.91 39.24 68.75 39.14 68.82 30.35 75.65 12.73 77.02L5 77 5 88 91 88 91 72.21Z" class="MsftOfcThm_Accent2_Fill" fill="#64C24A"/><rect x="16" y="18" width="5" height="2" class="MsftOfcThm_Accent2_Fill" fill="#64C24A"/><path d="M22.84 14.34 19.36 10.79 20.78 9.34 24.25 12.89 22.84 14.34Z" class="MsftOfcThm_Accent2_Fill" fill="#64C24A"/><circle cx="29" cy="19.12" r="6" class="MsftOfcThm_Accent2_Fill" fill="#64C24A"/><rect x="28" y="6" width="2" height="5" class="MsftOfcThm_Accent2_Fill" fill="#64C24A"/><rect x="37" y="18" width="5" height="2" class="MsftOfcThm_Accent2_Fill" fill="#64C24A"/><path d="M35.16 14.34 38.64 10.79 37.22 9.34 33.75 12.89 35.16 14.34Z" class="MsftOfcThm_Accent2_Fill" fill="#64C24A"/><path d="M22.84 23.77 19.36 27.33 20.78 28.77 24.25 25.22 22.84 23.77Z" class="MsftOfcThm_Accent2_Fill" fill="#64C24A"/><rect x="28" y="27.12" width="2" height="5" class="MsftOfcThm_Accent2_Fill" fill="#64C24A"/><path d="M35.16 23.77 38.64 27.33 37.22 28.77 33.75 25.22 35.16 23.77Z" class="MsftOfcThm_Accent2_Fill" fill="#64C24A"/></svg>