<?xml version="1.0" encoding="utf-8"?>
<!-- Generator: Adobe Illustrator 25.4.0, SVG Export Plug-In . SVG Version: 6.00 Build 0)  -->
<svg version="1.1" id="Layer_1" xmlns="http://www.w3.org/2000/svg" xmlns:xlink="http://www.w3.org/1999/xlink" x="0px" y="0px"
	 viewBox="0 0 500 500" style="enable-background:new 0 0 500 500;" xml:space="preserve">
<style type="text/css">
	.st0{fill:url(#SVGID_1_);}
	.st1{fill:url(#SVGID_00000011002807460903434160000014155622861527012513_);}
	.st2{fill:url(#SVGID_00000167375784047844629890000017967493082789832121_);}
	.st3{fill:url(#SVGID_00000005973967588938529960000002259804285369323183_);}
	.st4{fill:url(#SVGID_00000024719990539614606470000010745827108794383519_);}
	.st5{fill:url(#SVGID_00000096053204321084039670000016910121431076909188_);}
	.st6{fill:url(#SVGID_00000142887298755307313630000011741474702545998492_);}
	.st7{fill:url(#SVGID_00000073705397516658509510000006119457742057661363_);}
	.st8{fill:url(#SVGID_00000119089278320257182050000004573875425144501662_);}
	.st9{fill:url(#SVGID_00000019640613982814072660000007720689194358317459_);}
	.st10{fill:url(#SVGID_00000072279268142900955760000006197463591026769327_);}
	.st11{fill:url(#SVGID_00000003816620525221155600000014725483577297982624_);}
	.st12{fill:url(#SVGID_00000016760312964940508050000005957977642718461571_);}
	.st13{fill:url(#SVGID_00000067924743118329949600000011531444408131445182_);}
	.st14{fill:url(#SVGID_00000153673581675684731930000009882612342605118139_);}
	.st15{fill:url(#SVGID_00000173119880951393689340000015765223285349160875_);}
	.st16{fill:url(#SVGID_00000017509994816832921160000011318029470667409073_);}
	.st17{fill:url(#SVGID_00000025445110960025905480000006318073167443445645_);}
	.st18{fill:url(#SVGID_00000066483189846033175030000014685208982490342846_);}
	.st19{fill:url(#SVGID_00000024722403387687917490000010204552513409376386_);}
	.st20{fill:url(#SVGID_00000062890579784200684300000006745859431843472003_);}
	.st21{fill:#FFFFFF;}
	.st22{fill-rule:evenodd;clip-rule:evenodd;}
	.st23{fill-rule:evenodd;clip-rule:evenodd;fill:#FFFFFF;}
	.st24{fill:#F1F1F1;}
	.st25{fill:#EFED00;}
	.st26{fill:url(#SVGID_00000065066343084367884530000007421531631783415700_);}
	.st27{fill:url(#SVGID_00000128472974832754313630000010285485545232220601_);}
	.st28{fill:url(#SVGID_00000099638148108421518000000017916281972087509922_);}
	.st29{fill:url(#SVGID_00000054983527186118122370000011183009426753913267_);}
</style>
<g>
	<circle cx="250" cy="250" r="196.42"/>
	<g>
		<path class="st21" d="M250,235.67c-23.75,0-42.99-19.25-42.99-42.99s19.25-42.99,42.99-42.99s42.99,19.25,42.99,42.99
			S273.75,235.67,250,235.67z M250,164.01c-15.83,0-28.66,12.83-28.66,28.66s12.83,28.66,28.66,28.66s28.66-12.83,28.66-28.66
			S265.83,164.01,250,164.01z"/>
		<path class="st21" d="M296.58,350.32h-93.15c-25.72,0-46.58-20.85-46.58-46.58c0-25.72,20.85-46.58,46.58-46.58h93.15
			c25.72,0,46.58,20.85,46.58,46.58C343.15,329.47,322.3,350.32,296.58,350.32z M203.42,271.5c-17.81,0-32.25,14.44-32.25,32.25
			s14.44,32.25,32.25,32.25h93.15c17.81,0,32.25-14.44,32.25-32.25s-14.44-32.25-32.25-32.25H203.42z"/>
	</g>
</g>
</svg>
