<?xml version="1.0" encoding="utf-8"?>
<!-- Generator: Adobe Illustrator 25.4.2, SVG Export Plug-In . SVG Version: 6.00 Build 0)  -->
<svg version="1.1" id="Layer_1" xmlns="http://www.w3.org/2000/svg" xmlns:xlink="http://www.w3.org/1999/xlink" x="0px" y="0px"
	 viewBox="0 0 90 90" style="enable-background:new 0 0 90 90;" xml:space="preserve">
<style type="text/css">
	.st0{fill-rule:evenodd;clip-rule:evenodd;fill:#6ED8E0;}
	.st1{fill:#6ED8E0;}
</style>
<g>
	<g>
		<g transform="translate(-964 -1135)">
			<g>
				<g transform="translate(964 1135) translate(0 24)">
					<path class="st0" d="M78.7,45.7L48.6,59.5c-1.1,0.5-3.2,0.9-4.4,0.9H18.5v-14l14.7-8.3c0.9-0.5,2.8-0.7,3.7-0.5L52.8,42
						c0.5,0,0.7,0.5,0.9,0.7c0.2,0.5,0.2,0.7,0,1.1c-0.2,0.9-1.6,1.8-2.5,1.8l-12.9-1.1c-0.9,0-1.6,0.7-1.6,1.4
						c0,0.9,0.7,1.6,1.4,1.6l13.1,0.9h0.2c1.8,0,3.7-1.1,4.8-2.8l22-3.7c0.7-0.2,1.6,0.5,1.6,1.1C80.1,44.3,79.4,45.2,78.7,45.7z
						 M10,62.5h5.3v-20H10V62.5L10,62.5z M83.1,42.7L83.1,42.7L83.1,42.7L83.1,42.7c-0.5-2.5-3-4.1-5.3-3.7l-20.7,3.4
						c0-0.5-0.2-1.1-0.5-1.6c-0.7-1.1-1.6-1.8-3-2.3l-15.8-4.4c-1.8-0.5-4.4-0.2-6.2,0.7l-13.1,7.3V39H6.8v26.6h11.7v-2.3H44
						c1.6,0,4.1-0.5,5.7-1.1l30.1-13.8C82.2,47.5,83.5,45,83.1,42.7L83.1,42.7z"/>
				</g>
			</g>
		</g>
	</g>
	<g>
		<path class="st1" d="M45,0.3c-6.5,0-12.6,2.5-17.2,7.2c-4.6,4.6-7.1,10.7-7.1,17.2C20.7,38,31.6,49,45,49c6.5,0,12.6-2.5,17.2-7.2
			c4.6-4.6,7.1-10.7,7.1-17.2C69.3,11.2,58.4,0.3,45,0.3z M65.9,24.6c0,5.6-2.2,10.9-6.1,14.8c-4.1,3.9-9.4,6.1-14.8,6.1
			c-11.5,0-20.9-9.4-20.9-20.9c0-5.6,2.2-10.9,6.1-14.8S39.4,3.7,45,3.7C56.5,3.7,65.9,13.1,65.9,24.6z"/>
		<path class="st1" d="M54,22.4c0.4-1.9-1.2-4.2-4.4-5.1l0.9-2.8L48,13.9l-0.9,2.8c-0.7-0.2-1.2-0.4-1.9-0.4l0.9-2.8l-2.5-0.5
			l-0.9,2.8l-4.4-1.1l-0.4,1.9l1.8,0.4c0.9,0.4,1.1,0.9,1.1,1.2l-2.8,9.7c-0.2,0.4-0.5,0.7-1.1,0.5l-1.8-0.4l-1.1,2.5l4.4,1.1
			L37.6,35l2.5,0.5l0.9-3.2c0.7,0.2,1.2,0.4,1.9,0.4l-0.9,3l2.5,0.5l0.9-3.2c4.2,0.7,7.2-0.4,8.1-3c0.7-2.3,0-3.9-1.8-5.1
			C52.6,25.1,53.8,24,54,22.4z M49.1,29.1c-0.9,2.8-5.8,1.2-7.4,0.9l1.2-4.8C44.7,25.6,50,26.3,49.1,29.1z M50,22.3
			c-0.7,2.5-4.8,1.2-6.4,0.9l1.1-4.4C46.2,19.1,50.5,19.8,50,22.3L50,22.3z"/>
	</g>
</g>
</svg>
