<?xml version="1.0" standalone="no"?>
<!DOCTYPE svg PUBLIC "-//W3C//DTD SVG 20010904//EN"
 "http://www.w3.org/TR/2001/REC-SVG-20010904/DTD/svg10.dtd">
<svg version="1.0" xmlns="http://www.w3.org/2000/svg"
 width="600.000000pt" height="600.000000pt" viewBox="0 0 600.000000 600.000000"
 preserveAspectRatio="xMidYMid meet">
<metadata>
Created by potrace 1.14, written by Peter Selinger 2001-2017
</metadata>
<g transform="translate(0.000000,600.000000) scale(0.100000,-0.100000)"
fill="#000000" stroke="none">
<path d="M0 3000 l0 -3000 3000 0 3000 0 0 3000 0 3000 -3000 0 -3000 0 0
-3000z m3177 2355 c322 -52 597 -260 738 -557 68 -144 89 -243 89 -418 0 -160
-15 -262 -65 -435 -140 -487 -443 -916 -730 -1032 -90 -36 -187 -49 -268 -35
-154 26 -256 85 -402 232 -205 207 -385 546 -473 892 -84 326 -71 566 43 803
193 401 622 622 1068 550z m1839 -2579 c246 -42 364 -89 499 -197 160 -130
276 -312 327 -515 18 -73 22 -115 22 -234 -1 -174 -18 -245 -96 -419 -99 -220
-176 -338 -303 -467 -139 -139 -302 -231 -513 -286 -112 -30 -125 -32 -327
-32 -164 -1 -232 3 -310 17 -305 57 -559 144 -869 299 -187 93 -308 164 -576
336 -646 416 -1064 620 -1425 697 -108 23 -283 25 -355 3 -155 -48 -260 -199
-262 -379 -2 -185 163 -296 532 -360 159 -27 606 -36 999 -19 319 13 323 13
354 -40 27 -45 22 -87 -15 -121 -179 -165 -685 -335 -1122 -378 -159 -16 -421
-14 -542 4 -292 44 -479 128 -636 285 -74 75 -94 102 -137 191 -28 58 -63 149
-78 204 -23 88 -26 119 -26 260 -1 175 10 242 62 384 80 218 255 437 406 507
104 48 227 89 361 120 111 26 134 28 329 28 297 0 401 -24 775 -178 459 -190
924 -447 1235 -681 329 -248 660 -395 1085 -481 218 -45 347 -32 496 51 106
59 189 149 252 275 102 204 107 332 17 437 -78 92 -319 219 -510 268 -147 38
-226 45 -345 29 -273 -36 -576 -123 -805 -233 -71 -34 -138 -61 -151 -61 -37
0 -75 40 -81 85 -4 35 0 46 31 87 70 91 221 202 394 288 279 138 520 213 775
240 117 12 426 4 533 -14z"/>
</g>
</svg>
