<?xml version="1.0" encoding="utf-8"?>
<!-- Generator: Adobe Illustrator 25.4.0, SVG Export Plug-In . SVG Version: 6.00 Build 0)  -->
<svg version="1.1" id="Layer_1" xmlns="http://www.w3.org/2000/svg" xmlns:xlink="http://www.w3.org/1999/xlink" x="0px" y="0px"
	 viewBox="0 0 500 500" style="enable-background:new 0 0 500 500;" xml:space="preserve">
<style type="text/css">
	.st0{fill:url(#SVGID_1_);}
	.st1{fill:url(#SVGID_00000059310540538374310100000007232707093768272290_);}
	.st2{fill:url(#SVGID_00000166660984808403487600000010114794466861125535_);}
	.st3{fill:url(#SVGID_00000037675361564802259840000015399950465322917764_);}
	.st4{fill:url(#SVGID_00000044176556022582150870000013563049745581484672_);}
	.st5{fill:url(#SVGID_00000117676824252275122900000007300147572645609136_);}
	.st6{fill:url(#SVGID_00000181046921794028653930000002799859637767502984_);}
	.st7{fill:url(#SVGID_00000047772985006416029120000015481038235613485475_);}
	.st8{fill:url(#SVGID_00000066490187596185684920000006062523262576152714_);}
	.st9{fill:url(#SVGID_00000125574194229068653870000000051558570329766308_);}
	.st10{fill:url(#SVGID_00000062157055694852661870000018275609420828607905_);}
	.st11{fill:url(#SVGID_00000099622760942545151420000000067823340521159834_);}
	.st12{fill:url(#SVGID_00000052783134426678085150000018427094311299910050_);}
	.st13{fill:url(#SVGID_00000106851137452907445410000005523887380152093368_);}
	.st14{fill:url(#SVGID_00000162350785265834821350000001749385629306869898_);}
	.st15{fill:url(#SVGID_00000173119029941548544530000014771060022227679679_);}
	.st16{fill:url(#SVGID_00000134929533604165023190000018041794213287131302_);}
	.st17{fill:url(#SVGID_00000161594103414780655780000010836099589779715736_);}
	.st18{fill:url(#SVGID_00000085965250475577279970000000637882288065234597_);}
	.st19{fill:url(#SVGID_00000003089352303757904630000003197239365519245217_);}
	.st20{fill:url(#SVGID_00000169549915774732642070000018077510734838528181_);}
	.st21{fill:#FFFFFF;}
	.st22{fill-rule:evenodd;clip-rule:evenodd;}
	.st23{fill-rule:evenodd;clip-rule:evenodd;fill:#FFFFFF;}
	.st24{fill:#F1F1F1;}
	.st25{fill:#EFED00;}
	.st26{fill:url(#SVGID_00000134242034762195525920000007542469698948017325_);}
	.st27{fill:url(#SVGID_00000116229923791726257420000001898137068561397679_);}
	.st28{fill:url(#SVGID_00000096746882695303398160000000451039895589159838_);}
	.st29{fill:url(#SVGID_00000115516168661901337640000005430439318248582785_);}
</style>
<path d="M273.8,133c8.83,2.58,16.75,6.56,21.57,14.89c6.6,11.42,6.81,23.01-0.69,33.94c-7.57,11.03-18.36,15.63-31.7,13.08
	c-3.14-0.6-5.16,0.04-7.39,2.31c-11.08,11.3-22.35,22.42-33.54,33.62c-3.5,3.5-3.5,14.49,0,18c11.41,11.42,22.79,22.88,34.34,34.16
	c1.2,1.17,3.65,2.15,5.14,1.76c14.78-3.83,33.37,4.61,37.77,23.37c4.61,19.66-9.59,35.56-24.34,37.82
	c-0.41,0.06-0.77,0.48-1.15,0.73c-3.17,0-6.33,0-9.5,0c-7.08-1.95-13.69-4.69-18.69-10.4c-6.92-7.9-9.43-17.01-7.32-27.25
	c0.58-2.8,0.17-4.64-1.9-6.68c-10.61-10.4-21.11-20.92-31.54-31.51c-1.89-1.92-3.39-2.35-6.13-1.45
	c-17.4,5.7-35.23-3.63-40.22-20.78c-5.04-17.33,4.88-35.08,22.67-38.9c5.72-1.23,12.06,0.5,18.12,0.69
	c1.62,0.05,3.81-0.06,4.81-1.05c11.09-10.82,22.03-21.79,32.88-32.85c1-1.02,1.68-3.08,1.45-4.49c-3.13-19.96,5.58-33.4,25.12-38.47
	c0.28-0.07,0.5-0.36,0.75-0.55C267.47,133,270.63,133,273.8,133z"/>
</svg>
