<?xml version="1.0" encoding="utf-8"?>
<!-- Generator: Adobe Illustrator 25.4.0, SVG Export Plug-In . SVG Version: 6.00 Build 0)  -->
<svg version="1.1" id="Layer_1" xmlns="http://www.w3.org/2000/svg" xmlns:xlink="http://www.w3.org/1999/xlink" x="0px" y="0px"
	 viewBox="0 0 500 500" style="enable-background:new 0 0 500 500;" xml:space="preserve">
<style type="text/css">
	.st0{fill:url(#SVGID_1_);}
	.st1{fill:url(#SVGID_00000139292326859407676370000013664097921270309793_);}
	.st2{fill:url(#SVGID_00000070817289573236450050000001274880284590442417_);}
	.st3{fill:url(#SVGID_00000129177804075596804720000018092119887288488332_);}
	.st4{fill:url(#SVGID_00000017485342715690677430000009717511920258380954_);}
	.st5{fill:url(#SVGID_00000136406688852662390550000011025788644769214867_);}
	.st6{fill:url(#SVGID_00000105426110344760235350000014894346518446714543_);}
	.st7{fill:url(#SVGID_00000058584392899574584530000003877259151256522157_);}
	.st8{fill:url(#SVGID_00000159448342192112349480000001451026947741912743_);}
	.st9{fill:url(#SVGID_00000153699363116701983060000018090220852071402405_);}
	.st10{fill:url(#SVGID_00000054988484230272224850000013101300476999724440_);}
	.st11{fill:url(#SVGID_00000034772292444166720200000008023838480720630413_);}
	.st12{fill:url(#SVGID_00000026124648199156236590000016401115297114286483_);}
	.st13{fill:url(#SVGID_00000013880222306340796880000004572110621947234481_);}
	.st14{fill:url(#SVGID_00000137823152811328490450000012997691851488228742_);}
	.st15{fill:url(#SVGID_00000015350592188942238350000017834981554047124138_);}
	.st16{fill:url(#SVGID_00000109735164972258309820000003264706683292229052_);}
	.st17{fill:url(#SVGID_00000065773821073689517500000013025841229411612050_);}
	.st18{fill:url(#SVGID_00000096738431212211712520000011565408151481069744_);}
	.st19{fill:url(#SVGID_00000008135613942808424720000002544531125099273875_);}
	.st20{fill:url(#SVGID_00000158730398957926500290000001297003894433868468_);}
	.st21{fill:#FFFFFF;}
	.st22{fill-rule:evenodd;clip-rule:evenodd;}
	.st23{fill-rule:evenodd;clip-rule:evenodd;fill:#FFFFFF;}
	.st24{fill:#F1F1F1;}
	.st25{fill:#EFED00;}
	.st26{fill:url(#SVGID_00000098938476179168223900000007748835672647042458_);}
	.st27{fill:url(#SVGID_00000182500207064252316430000004915929895436832691_);}
	.st28{fill:url(#SVGID_00000135676709602952506590000011417242225753472923_);}
	.st29{fill:url(#SVGID_00000132796100812266504980000010826404917492963762_);}
</style>
<g>
	<path d="M188.33,435.68c-1.85,3.93-0.18,8.62,3.76,10.48c1.08,0.52,2.23,0.75,3.35,0.75c2.95,0,5.78-1.67,7.13-4.52l68.6-145.26
		c0.07,0.01,0.13,0.05,0.2,0.06v141.84c0,4.35,3.52,7.88,7.88,7.88c4.35,0,7.88-3.52,7.88-7.88V297.2c0.07-0.01,0.13-0.04,0.19-0.06
		l68.61,145.26c1.35,2.85,4.18,4.52,7.13,4.52c1.12,0,2.27-0.24,3.35-0.75c3.94-1.86,5.62-6.55,3.76-10.48l-68.32-144.65
		c11.3-7.47,18.33-20.09,18.33-34.1c0-22.61-18.35-40.96-40.96-40.96c-22.53,0-40.88,18.35-40.88,40.96
		c0,14.01,7.03,26.63,18.28,34.09L188.33,435.68z"/>
	<path d="M66,313.97l9.85,15.36c5.51,8.51,14.73,13.08,24.1,13.08c5.36,0,10.71-1.42,15.44-4.49l35.13-22.57
		c-1.27-1.5-2.47-3.07-3.56-4.75l-34.33-53.46c-1.09-1.68-1.87-3.49-2.71-5.27l-35.25,22.65C61.35,283.01,57.49,300.74,66,313.97z"
		/>
	<path d="M121.93,227.01c1.65-7.48,6.07-13.86,12.52-17.96l70.5-45.37c1.18,3.62,2.76,7.01,4.73,10.24l28.52,44.35
		c-9.61,10.08-15.6,23.63-15.6,38.68c0,11.97,3.7,23.24,10.24,32.53l-33.08,21.27c-4.73,3.07-10.08,4.49-15.36,4.49
		c-9.45,0-18.67-4.65-24.18-13.15l-34.34-53.49C121.69,242.14,120.35,234.5,121.93,227.01z"/>
	<path d="M379.22,67.05l51.68,80.39c4.88-8.15,7.62-17.56,7.62-27.48c0-29.38-23.87-53.33-53.33-53.33
		C383.18,66.63,381.19,66.83,379.22,67.05z"/>
	<path d="M231.58,125.87l111.31-71.53c1.81-1.18,3.94-1.5,5.99-1.1c2.05,0.47,3.78,1.65,4.96,3.47l75.7,117.76
		c1.1,1.73,1.5,3.86,1.1,5.91c-0.47,2.05-1.73,3.86-3.47,4.96l-92.56,59.47c-5.59-25.44-28.28-44.59-55.38-44.59
		c-10.56,0-20.32,2.92-28.83,7.96l-27.41-42.77c-3.07-4.81-4.49-10.16-4.49-15.44C218.5,140.52,223.07,131.3,231.58,125.87z"/>
</g>
</svg>
