<?xml version="1.0" encoding="utf-8"?>
<!-- Generator: Adobe Illustrator 25.4.0, SVG Export Plug-In . SVG Version: 6.00 Build 0)  -->
<svg version="1.1" id="Layer_1" xmlns="http://www.w3.org/2000/svg" xmlns:xlink="http://www.w3.org/1999/xlink" x="0px" y="0px"
	 viewBox="0 0 500 500" style="enable-background:new 0 0 500 500;" xml:space="preserve">
<style type="text/css">
	.st0{fill:url(#SVGID_1_);}
	.st1{fill:url(#SVGID_00000132767746918733276000000000963321475805293998_);}
	.st2{fill:url(#SVGID_00000026123455963712827210000004036019460840179072_);}
	.st3{fill:url(#SVGID_00000060025853139707946480000013048979113875133322_);}
	.st4{fill:url(#SVGID_00000137837563712882503430000011098732031884663192_);}
	.st5{fill:url(#SVGID_00000104671158019771687360000017646447486004751243_);}
	.st6{fill:url(#SVGID_00000150068243108102526920000006387319898369152148_);}
	.st7{fill:url(#SVGID_00000168078384073890879280000010952996038236471936_);}
	.st8{fill:url(#SVGID_00000179643741631066573280000014811031309936952756_);}
	.st9{fill:url(#SVGID_00000132080508227767978060000013277545523926780332_);}
	.st10{fill:url(#SVGID_00000125562386761471120850000012733886126876433823_);}
	.st11{fill:url(#SVGID_00000019669165871799171680000000836219987440514475_);}
	.st12{fill:url(#SVGID_00000169539202016885362860000009104397312159690628_);}
	.st13{fill:url(#SVGID_00000091728469564572275540000004198679417597313180_);}
	.st14{fill:url(#SVGID_00000172438138748961513970000005183078664223316670_);}
	.st15{fill:url(#SVGID_00000173841468665384363640000000331505726347643064_);}
	.st16{fill:url(#SVGID_00000026865484863298185680000005072270123951708597_);}
	.st17{fill:url(#SVGID_00000029759953074800466180000017261903021139707014_);}
	.st18{fill:url(#SVGID_00000101096224912304247360000017613291150679112845_);}
	.st19{fill:url(#SVGID_00000138567928817413027390000012562120026182462647_);}
	.st20{fill:url(#SVGID_00000009550843028466025190000010253552313279179145_);}
	.st21{fill:#FFFFFF;}
	.st22{fill-rule:evenodd;clip-rule:evenodd;}
	.st23{fill-rule:evenodd;clip-rule:evenodd;fill:#FFFFFF;}
	.st24{fill:#F1F1F1;}
	.st25{fill:#EFED00;}
	.st26{fill:url(#SVGID_00000057133025812870665380000006790546860895241876_);}
	.st27{fill:url(#SVGID_00000100343185156941061270000007689905080983143862_);}
	.st28{fill:url(#SVGID_00000039856430691471226520000003121775298754065340_);}
	.st29{fill:url(#SVGID_00000050641958771308693180000008850893199189853827_);}
</style>
<path class="st22" d="M387.36,200.58c0.01-4.72-0.53-9.36-2.01-13.84c-4.33-13.07-11.6-23.91-23.8-30.96
	c-28.33-16.36-56.68-32.68-84.94-49.15c-7.68-4.48-15.87-6.73-24.67-6.97c-9.69-0.25-18.91,1.5-27.44,6.46
	c-28.53,16.55-57.23,32.83-85.63,49.61c-16.93,10.01-25.84,25.39-26.05,45.05c-0.35,32.86-0.08,65.72-0.11,98.58
	c0,5.06,0.62,10.01,2.3,14.78c4.47,12.7,11.69,23.24,23.64,30.12c28.11,16.19,56.22,32.37,84.23,48.72
	c7.36,4.3,15.11,6.84,23.57,7.3c10.33,0.57,20.15-1.11,29.25-6.39c28.34-16.45,56.68-32.88,85.12-49.17
	c7.93-4.55,14.05-10.74,18.71-18.48c4.49-7.47,7.66-15.44,7.74-24.27c0.14-17.31,0.04-34.63,0.04-51.94h0.04
	C387.35,233.54,387.33,217.05,387.36,200.58z"/>
<path class="st23" d="M273.88,187.48v0.11c0.01,1.9,0.56,29.42,29.44,31.14c0,25.6,0.01,0,0.01,21.26
	c-2.17,0.13-19.01-1.09-29.49-10.43l-0.03,41.39c0.26,18.74-10.17,37.12-29.71,40.83c-5.47,1.04-10.4,1.15-18.67-0.65
	c-47.65-14.25-31.82-84.93,16.03-77.37c0,22.82,0.01-0.01,0.01,22.82c-19.77-2.91-26.38,13.54-21.13,25.31
	c4.78,10.72,24.46,13.04,31.33-2.08c0.78-2.96,1.17-6.33,1.17-10.12v-82.19H273.88z"/>
</svg>
