<?xml version="1.0" encoding="utf-8"?>
<!-- Generator: Adobe Illustrator 25.4.0, SVG Export Plug-In . SVG Version: 6.00 Build 0)  -->
<svg version="1.1" id="Layer_1" xmlns="http://www.w3.org/2000/svg" xmlns:xlink="http://www.w3.org/1999/xlink" x="0px" y="0px"
	 viewBox="0 0 500 500" style="enable-background:new 0 0 500 500;" xml:space="preserve">
<style type="text/css">
	.st0{fill:url(#SVGID_1_);}
	.st1{fill:url(#SVGID_00000170258612492742094220000001460202265484198843_);}
	.st2{fill:url(#SVGID_00000124884158702497557460000010516958015354981295_);}
	.st3{fill:url(#SVGID_00000061432890990668192090000015502536575154435491_);}
	.st4{fill:url(#SVGID_00000160890216772571354300000006046720014706772136_);}
	.st5{fill:url(#SVGID_00000000225071816849798950000001130340663229356706_);}
	.st6{fill:url(#SVGID_00000057841009859540652310000015157820244613362822_);}
	.st7{fill:url(#SVGID_00000173154590151484989830000011848051226240492223_);}
	.st8{fill:url(#SVGID_00000039120126760889597680000012703534669937517708_);}
	.st9{fill:url(#SVGID_00000167384412492708637230000013953848176634388925_);}
	.st10{fill:url(#SVGID_00000043450067483608981070000000557051571498393233_);}
	.st11{fill:url(#SVGID_00000138572558434775642030000005232967346543587246_);}
	.st12{fill:url(#SVGID_00000091698660886871426720000011990012967247504261_);}
	.st13{fill:url(#SVGID_00000044869285676681594470000000760432802967941051_);}
	.st14{fill:url(#SVGID_00000013882478859561464230000005597375444140602027_);}
	.st15{fill:url(#SVGID_00000123404017444909571280000017252939553616756910_);}
	.st16{fill:url(#SVGID_00000026856332498002730980000001563610063646062214_);}
	.st17{fill:url(#SVGID_00000004545373649565593210000017862226225289136295_);}
	.st18{fill:url(#SVGID_00000175321155199959339230000009761696909517964475_);}
	.st19{fill:url(#SVGID_00000167381871492839623470000014718848352681083068_);}
	.st20{fill:url(#SVGID_00000171716889386335480360000011140846333016062863_);}
	.st21{fill:#FFFFFF;}
	.st22{fill-rule:evenodd;clip-rule:evenodd;}
	.st23{fill-rule:evenodd;clip-rule:evenodd;fill:#FFFFFF;}
	.st24{fill:#F1F1F1;}
	.st25{fill:#EFED00;}
	.st26{fill:url(#SVGID_00000146489490660153921850000015935096807592597420_);}
	.st27{fill:url(#SVGID_00000081611664132953651410000002689491088544659851_);}
	.st28{fill:url(#SVGID_00000129168493882038861110000013804060612538230179_);}
	.st29{fill:url(#SVGID_00000147187631689895888650000012268320477018176938_);}
</style>
<g>
	<path d="M343.99,241.48c-3.77,0-6.98,2.47-8.09,5.87h-0.45V250c0,47.12-38.34,85.46-85.46,85.46s-85.46-38.33-85.46-85.46
		s38.34-85.46,85.46-85.46c21.05,0,41.53,7.9,57.12,21.86h-10.11c-4.69,0-8.51,3.82-8.51,8.51c0,4.69,3.82,8.51,8.51,8.51h29.35
		c4.7,0,8.52-3.82,8.52-8.51v-29.34c0-4.69-3.82-8.51-8.52-8.51c-4.69,0-8.51,3.82-8.51,8.51v7.6
		c-18.72-16.6-42.58-25.68-67.84-25.68c-56.52,0-102.5,45.98-102.5,102.5S193.48,352.5,250,352.5c56.52,0,102.5-45.98,102.5-102.5
		C352.5,245.3,348.68,241.48,343.99,241.48z"/>
	<path d="M244.6,256.51l27.31,22.75c1.54,1.28,3.43,1.96,5.41,1.96c0.27,0,0.53-0.01,0.8-0.04c2.26-0.21,4.31-1.29,5.74-3.02
		c1.45-1.73,2.13-3.94,1.93-6.2c-0.21-2.27-1.28-4.31-3.02-5.76l-24.26-20.19l0.03-43c0-4.68-3.81-8.49-8.49-8.49
		c-4.69,0-8.5,3.81-8.5,8.49l0.01,4.84l-0.03,42.14C241.54,252.5,242.65,254.87,244.6,256.51z"/>
</g>
</svg>
