<?xml version="1.0" encoding="utf-8"?>
<!-- Generator: Adobe Illustrator 25.4.0, SVG Export Plug-In . SVG Version: 6.00 Build 0)  -->
<svg version="1.1" id="Layer_1" xmlns="http://www.w3.org/2000/svg" xmlns:xlink="http://www.w3.org/1999/xlink" x="0px" y="0px"
	 viewBox="0 0 500 500" style="enable-background:new 0 0 500 500;" xml:space="preserve">
<style type="text/css">
	.st0{fill:url(#SVGID_1_);}
	.st1{fill:url(#SVGID_00000021099554666335904720000009950591515363896720_);}
	.st2{fill:url(#SVGID_00000114755676673720797810000002066280972715557518_);}
	.st3{fill:url(#SVGID_00000097488676567221064260000008517950072359324044_);}
	.st4{fill:url(#SVGID_00000000901591093982530180000004966081163030590894_);}
	.st5{fill:url(#SVGID_00000127013084973621018180000017693211757600990373_);}
	.st6{fill:url(#SVGID_00000068644198246571538480000009470588687054998917_);}
	.st7{fill:url(#SVGID_00000029762404928142549500000014957208837845202324_);}
	.st8{fill:url(#SVGID_00000047745788065349790980000017255335452960826255_);}
	.st9{fill:url(#SVGID_00000069385494376973752390000014371516945933533577_);}
	.st10{fill:url(#SVGID_00000052788335730805547540000002985861951036893362_);}
	.st11{fill:url(#SVGID_00000173847274740738337390000013296613496128978826_);}
	.st12{fill:url(#SVGID_00000114038079741331117410000007046117556896517261_);}
	.st13{fill:url(#SVGID_00000168836434590922970750000012582425896622755474_);}
	.st14{fill:url(#SVGID_00000139972265647029046140000013100631554995452340_);}
	.st15{fill:url(#SVGID_00000001645254579606969810000016547428741782102196_);}
	.st16{fill:url(#SVGID_00000021817325805130563570000017492169550951896473_);}
	.st17{fill:url(#SVGID_00000155842599215134228390000016914515926653225109_);}
	.st18{fill:url(#SVGID_00000106142595831558087310000014800804891062827684_);}
	.st19{fill:url(#SVGID_00000160180988698282627500000017116953858191014784_);}
	.st20{fill:url(#SVGID_00000019678249610069466830000007332075727134941060_);}
	.st21{fill:#FFFFFF;}
	.st22{fill-rule:evenodd;clip-rule:evenodd;}
	.st23{fill-rule:evenodd;clip-rule:evenodd;fill:#FFFFFF;}
	.st24{fill:#F1F1F1;}
	.st25{fill:#EFED00;}
	.st26{fill:url(#SVGID_00000072988422349591124690000005811165413302393002_);}
	.st27{fill:url(#SVGID_00000008855160711861776390000005670250755009226645_);}
	.st28{fill:url(#SVGID_00000129174085023736189720000013271860689707554472_);}
	.st29{fill:url(#SVGID_00000049217406961545475340000017704018438227769229_);}
</style>
<g>
	<linearGradient id="SVGID_1_" gradientUnits="userSpaceOnUse" x1="147.5" y1="250" x2="352.5" y2="250">
		<stop  offset="0" style="stop-color:#DF7800"/>
		<stop  offset="0.3789" style="stop-color:#DA3AA7"/>
		<stop  offset="0.7304" style="stop-color:#243DF5"/>
		<stop  offset="1" style="stop-color:#7DEBB2"/>
	</linearGradient>
	<path class="st0" d="M343.99,241.48c-3.77,0-6.98,2.47-8.09,5.87h-0.45V250c0,47.12-38.34,85.46-85.46,85.46
		s-85.46-38.33-85.46-85.46s38.34-85.46,85.46-85.46c21.05,0,41.53,7.9,57.12,21.86h-10.11c-4.69,0-8.51,3.82-8.51,8.51
		c0,4.69,3.82,8.51,8.51,8.51h29.35c4.7,0,8.52-3.82,8.52-8.51v-29.34c0-4.69-3.82-8.51-8.52-8.51c-4.69,0-8.51,3.82-8.51,8.51v7.6
		c-18.72-16.6-42.58-25.68-67.84-25.68c-56.52,0-102.5,45.98-102.5,102.5S193.48,352.5,250,352.5c56.52,0,102.5-45.98,102.5-102.5
		C352.5,245.3,348.68,241.48,343.99,241.48z"/>
	
		<linearGradient id="SVGID_00000030467520727859509330000017684761863957669806_" gradientUnits="userSpaceOnUse" x1="241.5361" y1="237.8649" x2="285.8362" y2="237.8649">
		<stop  offset="0" style="stop-color:#DF7800"/>
		<stop  offset="0.3789" style="stop-color:#DA3AA7"/>
		<stop  offset="0.7304" style="stop-color:#243DF5"/>
		<stop  offset="1" style="stop-color:#7DEBB2"/>
	</linearGradient>
	<path style="fill:url(#SVGID_00000030467520727859509330000017684761863957669806_);" d="M244.6,256.51l27.31,22.75
		c1.54,1.28,3.43,1.96,5.41,1.96c0.27,0,0.53-0.01,0.8-0.04c2.26-0.21,4.31-1.29,5.74-3.02c1.45-1.73,2.13-3.94,1.93-6.2
		c-0.21-2.27-1.28-4.31-3.02-5.76l-24.26-20.19l0.03-43c0-4.68-3.81-8.49-8.49-8.49c-4.69,0-8.5,3.81-8.5,8.49l0.01,4.84
		l-0.03,42.14C241.54,252.5,242.65,254.87,244.6,256.51z"/>
</g>
</svg>
