<?xml version="1.0" encoding="utf-8"?>
<!-- Generator: Adobe Illustrator 25.4.0, SVG Export Plug-In . SVG Version: 6.00 Build 0)  -->
<svg version="1.1" id="Layer_1" xmlns="http://www.w3.org/2000/svg" xmlns:xlink="http://www.w3.org/1999/xlink" x="0px" y="0px"
	 viewBox="0 0 500 500" style="enable-background:new 0 0 500 500;" xml:space="preserve">
<style type="text/css">
	.st0{fill:url(#SVGID_1_);}
	.st1{fill:url(#SVGID_00000117651424843597473130000000910447750410521747_);}
	.st2{fill:url(#SVGID_00000119102373320770010540000003995961719336760483_);}
	.st3{fill:url(#SVGID_00000005955280661417140490000007468216662846131894_);}
	.st4{fill:url(#SVGID_00000105408615630240665150000009313899220688376989_);}
	.st5{fill:url(#SVGID_00000119827201237704745520000011813750481218555284_);}
	.st6{fill:url(#SVGID_00000157305034647150054660000004760542109062134189_);}
	.st7{fill:url(#SVGID_00000132766686859209376810000005564441860893955978_);}
	.st8{fill:url(#SVGID_00000061449825310415893110000016258238540323845276_);}
	.st9{fill:url(#SVGID_00000125566918215696380180000017469952922279420545_);}
	.st10{fill:url(#SVGID_00000046338897993604713020000015282535478094249120_);}
	.st11{fill:url(#SVGID_00000042708562860765912250000014539078040101522304_);}
	.st12{fill:url(#SVGID_00000052807928713973478040000003062311922338573452_);}
	.st13{fill:url(#SVGID_00000031173529004977131510000016862708918363894147_);}
	.st14{fill:url(#SVGID_00000070834098344575222670000014342565169498578822_);}
	.st15{fill:url(#SVGID_00000087388691559019725200000014471241919661346442_);}
	.st16{fill:url(#SVGID_00000003085533194562448390000009068197800277160332_);}
	.st17{fill:url(#SVGID_00000005265795420081929000000007395547262379432070_);}
	.st18{fill:url(#SVGID_00000163057852246401361140000008059352965288963235_);}
	.st19{fill:url(#SVGID_00000076565836125387102660000003961656907878392231_);}
	.st20{fill:url(#SVGID_00000123402252374072121660000008716608943084736428_);}
	.st21{fill:#FFFFFF;}
	.st22{fill-rule:evenodd;clip-rule:evenodd;}
	.st23{fill-rule:evenodd;clip-rule:evenodd;fill:#FFFFFF;}
	.st24{fill:#F1F1F1;}
	.st25{fill:#EFED00;}
	.st26{fill:url(#SVGID_00000148633247733920563110000008873539718762160062_);}
	.st27{fill:url(#SVGID_00000174565181409184290060000017151943308849955234_);}
	.st28{fill:url(#SVGID_00000157273461311669242700000015863850323627188411_);}
	.st29{fill:url(#SVGID_00000106130820701937124470000012388626213999922100_);}
</style>
<g>
	<path class="st23" d="M387.36,200.58c0.01-4.72-0.53-9.36-2.01-13.84c-4.33-13.07-11.6-23.91-23.8-30.96
		c-28.33-16.36-56.68-32.68-84.94-49.15c-7.68-4.48-15.87-6.73-24.67-6.97c-9.69-0.25-18.91,1.5-27.44,6.46
		c-28.53,16.55-57.23,32.83-85.63,49.61c-16.93,10.01-25.84,25.39-26.05,45.05c-0.35,32.86-0.08,65.72-0.11,98.58
		c0,5.06,0.62,10.01,2.3,14.78c4.47,12.7,11.69,23.24,23.64,30.12c28.11,16.19,56.22,32.37,84.23,48.72
		c7.36,4.3,15.11,6.84,23.57,7.3c10.33,0.57,20.15-1.11,29.25-6.39c28.34-16.45,56.68-32.88,85.12-49.17
		c7.93-4.55,14.05-10.74,18.71-18.48c4.49-7.47,7.66-15.44,7.74-24.27c0.14-17.31,0.04-34.63,0.04-51.94h0.04
		C387.35,233.54,387.33,217.05,387.36,200.58z"/>
	<path d="M247.07,227.85c0-3.83-0.26-7.34,0.04-10.8c1.8-20.83,22.11-32.47,41.01-23.55c1.87,0.88,3.7,1.93,5.39,3.13
		c1.78,1.27,3.71,2.03,5.83,1.86c4.85-0.38,9.69-0.92,14.53-1.5c1.34-0.16,2.52-0.19,3.33,1.04c0.8,1.22,0.38,2.35-0.35,3.48
		c-1.49,2.29-2.91,4.62-4.58,7.27c1.67,0,3.05,0.03,4.43-0.01c1.27-0.03,2.37,0.2,2.99,1.47c0.66,1.36,0.05,2.4-0.83,3.38
		c-1.51,1.68-2.9,3.5-4.55,5.03c-4.63,4.3-6.89,9.68-7.9,15.8c-1.77,10.73-4.6,21.15-9.63,30.86
		c-11.74,22.68-29.74,37.43-54.97,42.62c-17.78,3.66-34.91,0.89-51.41-6.35c-2.56-1.12-5.02-2.45-7.52-3.7
		c-1.49-0.75-3.17-1.43-2.78-3.6c0.28-1.58,1.43-2.14,4.16-2.13c5.91,0.01,11.77-0.41,17.53-1.84c4.05-1.01,7.93-2.45,11.45-4.72
		c-3.32-2.55-6.73-4.86-9.76-7.59c-2.95-2.65-5.67-5.6-8.17-8.68c-1.22-1.5-1.97-3.53-2.48-5.44c-0.74-2.79,0.75-4.14,3.61-3.64
		c0.38,0.07,0.77,0.04,1.31,0.07c-1.78-1.98-3.51-3.77-5.08-5.69c-4.42-5.43-7.67-11.45-8.93-18.42c-0.51-2.8,1.05-4.18,3.79-3.43
		c1.01,0.28,2.06,0.38,3.42,0.63c-0.47-0.97-0.76-1.6-1.07-2.22c-3.88-7.87-5.46-16.07-3.44-24.75c0.31-1.31,0.76-2.69,1.52-3.77
		c0.52-0.74,1.73-1.43,2.59-1.38c0.76,0.04,1.55,1.05,2.18,1.76c0.5,0.55,0.66,1.42,1.18,1.93c11.13,11.01,23.77,19.47,39.46,22.27
		C237.92,228.02,242.7,227.67,247.07,227.85z"/>
</g>
</svg>
