<?xml version="1.0" encoding="utf-8"?>
<!-- Generator: Adobe Illustrator 25.4.0, SVG Export Plug-In . SVG Version: 6.00 Build 0)  -->
<svg version="1.1" id="Layer_1" xmlns="http://www.w3.org/2000/svg" xmlns:xlink="http://www.w3.org/1999/xlink" x="0px" y="0px"
	 viewBox="0 0 500 500" style="enable-background:new 0 0 500 500;" xml:space="preserve">
<style type="text/css">
	.st0{fill:url(#SVGID_1_);}
	.st1{fill:url(#SVGID_00000165210667168434726300000003444238957593500545_);}
	.st2{fill:url(#SVGID_00000106121874048712633990000008649795226271391109_);}
	.st3{fill:url(#SVGID_00000157306454183559904370000015116516641609285822_);}
	.st4{fill:url(#SVGID_00000175306864028407432820000011710906998474117545_);}
	.st5{fill:url(#SVGID_00000127732679989930520870000004469629818425875123_);}
	.st6{fill:url(#SVGID_00000090981048505907284380000017307480468043977380_);}
	.st7{fill:url(#SVGID_00000007387228641313751230000005839957835488040623_);}
	.st8{fill:url(#SVGID_00000079483289854928079270000011611113064483128495_);}
	.st9{fill:url(#SVGID_00000152226356110791428760000007418641588870348674_);}
	.st10{fill:url(#SVGID_00000154418418973121369160000005316486497559054249_);}
	.st11{fill:url(#SVGID_00000069383523658086178870000002704937713122278026_);}
	.st12{fill:url(#SVGID_00000075878491417630400500000001131995882568800419_);}
	.st13{fill:url(#SVGID_00000096758135659552133090000011258853794489390490_);}
	.st14{fill:url(#SVGID_00000014616599869563680450000008373208507742568870_);}
	.st15{fill:url(#SVGID_00000005254119875617714930000014865633356598161036_);}
	.st16{fill:url(#SVGID_00000070116341437338614270000007926956660322159006_);}
	.st17{fill:url(#SVGID_00000036242396951889885800000010458792533454011299_);}
	.st18{fill:url(#SVGID_00000014631755263448218050000007460596435527570597_);}
	.st19{fill:url(#SVGID_00000161625617159935810740000006063691790781925815_);}
	.st20{fill:url(#SVGID_00000060747123814780949710000001142194309185735090_);}
	.st21{fill:#FFFFFF;}
	.st22{fill-rule:evenodd;clip-rule:evenodd;}
	.st23{fill-rule:evenodd;clip-rule:evenodd;fill:#FFFFFF;}
	.st24{fill:#F1F1F1;}
	.st25{fill:#EFED00;}
	.st26{fill:url(#SVGID_00000093169428482309961540000013344636552510570653_);}
	.st27{fill:url(#SVGID_00000055670903156763696990000010869916415653949066_);}
	.st28{fill:url(#SVGID_00000135667127594141509080000013577666102406847409_);}
	.st29{fill:url(#SVGID_00000060732887648649595490000004901861769411875714_);}
</style>
<path class="st22" d="M387.36,200.58c0.01-4.72-0.53-9.36-2.01-13.84c-4.33-13.07-11.6-23.91-23.8-30.96
	c-28.33-16.36-56.68-32.68-84.94-49.15c-7.68-4.48-15.87-6.73-24.67-6.97c-9.69-0.25-18.91,1.5-27.44,6.46
	c-28.53,16.55-57.23,32.83-85.63,49.61c-16.93,10.01-25.84,25.39-26.05,45.05c-0.35,32.86-0.08,65.72-0.11,98.58
	c0,5.06,0.62,10.01,2.3,14.78c4.47,12.7,11.69,23.24,23.64,30.12c28.11,16.19,56.22,32.37,84.23,48.72
	c7.36,4.3,15.11,6.84,23.57,7.3c10.33,0.57,20.15-1.11,29.25-6.39c28.34-16.45,56.68-32.88,85.12-49.17
	c7.93-4.55,14.05-10.74,18.71-18.48c4.49-7.47,7.66-15.44,7.74-24.27c0.14-17.31,0.04-34.63,0.04-51.94h0.04
	C387.35,233.54,387.33,217.05,387.36,200.58z"/>
<g>
	<path class="st21" d="M185.22,308.31c0-31.93,0-63.86,0-95.79c0.23-0.25,0.57-0.45,0.68-0.75c2.63-7.17,5.24-14.35,7.86-21.53
		c40.34,0,80.68,0,121.01,0c0,27.72,0,55.44,0,83.16c-0.52,0.4-1.09,0.76-1.55,1.22c-10.85,10.83-21.67,21.68-32.55,32.47
		c-0.61,0.6-1.66,1.05-2.52,1.06c-7.91,0.08-15.82,0.01-23.73,0.09c-0.86,0.01-1.92,0.45-2.54,1.05
		c-5.17,5.05-10.26,10.18-15.37,15.3c-0.33,0.33-0.55,0.77-0.83,1.16c-6.06,0-12.13,0-18.19,0c0-5.78,0-11.57,0-17.55
		c-2.63,0-5.14-0.01-7.66,0C201.65,308.24,193.44,308.27,185.22,308.31z M206.03,202.11c0,28.46,0,56.71,0,85.19
		c8.79,0,17.47,0,26.33,0c0,5.89,0,11.53,0,17.53c0.76-0.7,1.25-1.13,1.72-1.59c4.9-4.9,9.82-9.78,14.68-14.72
		c0.89-0.9,1.75-1.31,3.04-1.3c9.65,0.06,19.3,0.06,28.95-0.02c0.91-0.01,2.04-0.48,2.69-1.12c6.18-6.06,12.26-12.23,18.43-18.31
		c0.87-0.86,1.17-1.73,1.17-2.92c-0.03-20.23-0.02-40.46-0.02-60.69c0-0.66,0-1.31,0-2.05
		C270.55,202.11,238.35,202.11,206.03,202.11z"/>
	<path class="st21" d="M238.15,225.7c3.99,0,7.85,0,11.83,0c0,11.74,0,23.4,0,35.2c-3.9,0-7.81,0-11.83,0
		C238.15,249.22,238.15,237.57,238.15,225.7z"/>
	<path class="st21" d="M270.45,225.7c3.98,0,7.84,0,11.82,0c0,11.74,0,23.4,0,35.2c-3.89,0-7.8,0-11.82,0
		C270.45,249.23,270.45,237.57,270.45,225.7z"/>
</g>
</svg>
