<?xml version="1.0" encoding="utf-8"?>
<!-- Generator: Adobe Illustrator 25.4.0, SVG Export Plug-In . SVG Version: 6.00 Build 0)  -->
<svg version="1.1" id="Layer_1" xmlns="http://www.w3.org/2000/svg" xmlns:xlink="http://www.w3.org/1999/xlink" x="0px" y="0px"
	 viewBox="0 0 500 500" style="enable-background:new 0 0 500 500;" xml:space="preserve">
<style type="text/css">
	.st0{fill:url(#SVGID_1_);}
	.st1{fill:url(#SVGID_00000139257626780847815220000006405418609575241863_);}
	.st2{fill:url(#SVGID_00000032611765487806959710000009553979920874852257_);}
	.st3{fill:url(#SVGID_00000122694018044988992700000012802609813329972102_);}
	.st4{fill:url(#SVGID_00000101801358881818266980000004183502575740006071_);}
	.st5{fill:url(#SVGID_00000032623375823174410710000012804264446463451062_);}
	.st6{fill:url(#SVGID_00000054982762778041861250000007780617623180126390_);}
	.st7{fill:url(#SVGID_00000125603243099470005750000017921259326555774371_);}
	.st8{fill:url(#SVGID_00000165211924424710151120000006910212512577776303_);}
	.st9{fill:url(#SVGID_00000141454390432577047180000002976967807020880054_);}
	.st10{fill:url(#SVGID_00000160156671991079806870000010105451749536003758_);}
	.st11{fill:url(#SVGID_00000130618014108564226600000000584710162708099496_);}
	.st12{fill:url(#SVGID_00000094584457674810178540000015398113580204543623_);}
	.st13{fill:url(#SVGID_00000033369926162737377730000010045354966309367742_);}
	.st14{fill:url(#SVGID_00000011734452170218851600000003359555885018037634_);}
	.st15{fill:url(#SVGID_00000004519022680122682240000002418992800834009750_);}
	.st16{fill:url(#SVGID_00000165227035542387865330000012338423570314018713_);}
	.st17{fill:url(#SVGID_00000165913890634480872700000008534856544442873487_);}
	.st18{fill:url(#SVGID_00000006695910191559051290000015598411631109797557_);}
	.st19{fill:url(#SVGID_00000130642108711313013010000012137466932693599155_);}
	.st20{fill:url(#SVGID_00000181776829387645893360000008978527087825044156_);}
	.st21{fill:#FFFFFF;}
	.st22{fill-rule:evenodd;clip-rule:evenodd;}
	.st23{fill-rule:evenodd;clip-rule:evenodd;fill:#FFFFFF;}
	.st24{fill:#F1F1F1;}
	.st25{fill:#EFED00;}
	.st26{fill:url(#SVGID_00000051345211993801804160000018370647841130691475_);}
	.st27{fill:url(#SVGID_00000140727000048990626960000008153597855632675479_);}
	.st28{fill:url(#SVGID_00000110462232428996427830000014433758224176606875_);}
	.st29{fill:url(#SVGID_00000142170557068262969580000015362090106186015669_);}
</style>
<g>
	<circle cx="243.89" cy="249.34" r="196.42"/>
	<g transform="translate(0,-952.36218)">
		<path class="st21" d="M159.31,1112.14c-10.94,0-19.9,8.96-19.9,19.9v141.81c0,9.56,7.85,17.42,17.42,17.42h174.15
			c9.56,0,17.42-7.85,17.42-17.42v-114.44c0-9.56-7.85-17.42-17.42-17.42h-12.44v-24.88c0-2.61-2.37-4.98-4.98-4.98H159.31z
			 M159.31,1122.09h149.27v19.9H159.31c-5.6,0-9.95-4.35-9.95-9.95C149.35,1126.44,153.71,1122.09,159.31,1122.09z M149.35,1149.22
			c2.93,1.71,6.33,2.72,9.95,2.72c56.04-0.05,123.5,0,171.67,0c4.22,0,7.46,3.24,7.46,7.46v24.88h-72.15
			c-6.81,0-12.44,5.63-12.44,12.44v39.81c0,6.81,5.63,12.44,12.44,12.44h72.15v24.88c0,4.22-3.24,7.46-7.46,7.46H156.82
			c-4.22,0-7.46-3.24-7.46-7.46V1149.22z M266.29,1194.24h72.15v44.78h-72.15c-1.46,0-2.49-1.02-2.49-2.49v-39.81
			C263.8,1195.26,264.82,1194.24,266.29,1194.24z M291.16,1204.11c-6.81,0-12.44,5.63-12.44,12.44c0,6.81,5.63,12.44,12.44,12.44
			c6.81,0,12.44-5.63,12.44-12.44C303.6,1209.74,297.98,1204.11,291.16,1204.11z M291.16,1214.07c1.43,0,2.49,1.05,2.49,2.49
			c0,1.43-1.05,2.49-2.49,2.49c-1.43,0-2.49-1.06-2.49-2.49C288.68,1215.12,289.73,1214.07,291.16,1214.07z"/>
	</g>
</g>
</svg>
