<?xml version="1.0" encoding="utf-8"?>
<!-- Generator: Adobe Illustrator 25.4.0, SVG Export Plug-In . SVG Version: 6.00 Build 0)  -->
<svg version="1.1" id="Layer_1" xmlns="http://www.w3.org/2000/svg" xmlns:xlink="http://www.w3.org/1999/xlink" x="0px" y="0px"
	 viewBox="0 0 500 500" style="enable-background:new 0 0 500 500;" xml:space="preserve">
<style type="text/css">
	.st0{fill:url(#SVGID_1_);}
	.st1{fill:url(#SVGID_00000072277033712395588840000005064934889491813548_);}
	.st2{fill:url(#SVGID_00000166648381457374354420000017968011776717860514_);}
	.st3{fill:url(#SVGID_00000020397373124087490620000015660621530568964007_);}
	.st4{fill:url(#SVGID_00000098217328424461846500000006421859803562666154_);}
	.st5{fill:url(#SVGID_00000015350542740958669820000016506856402721186214_);}
	.st6{fill:url(#SVGID_00000105407774915672197360000003022572093796033679_);}
	.st7{fill:url(#SVGID_00000177474101009395398960000010586378167447762342_);}
	.st8{fill:url(#SVGID_00000093157272630535666710000016483271664014451336_);}
	.st9{fill:url(#SVGID_00000109737408717778960380000011758212265735202212_);}
	.st10{fill:url(#SVGID_00000107571955371918804880000010640996909952567444_);}
	.st11{fill:url(#SVGID_00000026859225150810681700000016355476566706709428_);}
	.st12{fill:url(#SVGID_00000168801320123451562570000005508217689387335063_);}
	.st13{fill:url(#SVGID_00000088819751003964078820000006796670426714862474_);}
	.st14{fill:url(#SVGID_00000143600400870643245940000006124045208320651684_);}
	.st15{fill:url(#SVGID_00000121970168695239192420000012714379907406141589_);}
	.st16{fill:url(#SVGID_00000028321904560594273680000002148654007667455638_);}
	.st17{fill:url(#SVGID_00000180325673049560098320000003758994084282821250_);}
	.st18{fill:url(#SVGID_00000013161561280519410820000011735093040209133977_);}
	.st19{fill:url(#SVGID_00000103946301888512906740000000700455627726091951_);}
	.st20{fill:url(#SVGID_00000157295907886939440430000011550362135841989549_);}
	.st21{fill:#FFFFFF;}
	.st22{fill-rule:evenodd;clip-rule:evenodd;}
	.st23{fill-rule:evenodd;clip-rule:evenodd;fill:#FFFFFF;}
	.st24{fill:#F1F1F1;}
	.st25{fill:#EFED00;}
	.st26{fill:url(#SVGID_00000158745750754818879530000015599070916133254291_);}
	.st27{fill:url(#SVGID_00000074422116583532436400000014363886945187621761_);}
	.st28{fill:url(#SVGID_00000129190910751725222530000007576123794903690911_);}
	.st29{fill:url(#SVGID_00000031182473265144577610000014477359985382067872_);}
</style>
<path class="st22" d="M387.36,200.58c0.01-4.72-0.53-9.36-2.01-13.84c-4.33-13.07-11.6-23.91-23.8-30.96
	c-28.33-16.36-56.68-32.68-84.94-49.15c-7.68-4.48-15.87-6.73-24.67-6.97c-9.69-0.25-18.91,1.5-27.44,6.46
	c-28.53,16.55-57.23,32.83-85.63,49.61c-16.93,10.01-25.84,25.39-26.05,45.05c-0.35,32.86-0.08,65.72-0.11,98.58
	c0,5.06,0.62,10.01,2.3,14.78c4.47,12.7,11.69,23.24,23.64,30.12c28.11,16.19,56.22,32.37,84.23,48.72
	c7.36,4.3,15.11,6.84,23.57,7.3c10.33,0.57,20.15-1.11,29.25-6.39c28.34-16.45,56.68-32.88,85.12-49.17
	c7.93-4.55,14.05-10.74,18.71-18.48c4.49-7.47,7.66-15.44,7.74-24.27c0.14-17.31,0.04-34.63,0.04-51.94h0.04
	C387.35,233.54,387.33,217.05,387.36,200.58z"/>
<path class="st23" d="M238.39,293.11c-7.31,7.32-17.04,11.34-27.38,11.34c-10.34,0-20.07-4.03-27.39-11.34
	c-15.1-15.1-15.1-39.67,0-54.77l19.88-19.88c9.82-9.82,24.28-13.62,37.7-9.93c2.61,0.72,4.14,3.42,3.43,6.03
	c-0.72,2.61-3.41,4.14-6.03,3.43c-10.04-2.77-20.83,0.07-28.16,7.41l-19.88,19.88c-11.27,11.28-11.27,29.63,0,40.91
	c5.46,5.46,12.73,8.47,20.46,8.47c7.72,0,14.99-3.01,20.45-8.47l19.87-19.88c7.34-7.33,10.17-18.12,7.41-28.16
	c-0.72-2.61,0.81-5.31,3.43-6.03c2.6-0.72,5.31,0.81,6.03,3.43c3.7,13.43-0.1,27.88-9.93,37.7L238.39,293.11z M316.73,262.61
	l-19.88,19.88c-7.34,7.34-17.25,11.32-27.4,11.32c-3.43,0-6.9-0.46-10.3-1.4c-2.61-0.72-4.14-3.42-3.43-6.03
	c0.72-2.61,3.43-4.14,6.03-3.42c10.03,2.76,20.83-0.07,28.16-7.41l19.88-19.88c11.27-11.28,11.27-29.63,0-40.91
	c-5.46-5.46-12.73-8.47-20.46-8.47c-7.72,0-14.99,3.01-20.45,8.47l-19.87,19.88c-7.33,7.33-10.17,18.12-7.41,28.16
	c0.72,2.61-0.81,5.31-3.43,6.03c-2.6,0.71-5.31-0.81-6.03-3.43c-3.7-13.43,0.1-27.88,9.93-37.7l19.87-19.88
	c7.31-7.31,17.04-11.34,27.38-11.34c10.34,0,20.07,4.03,27.39,11.34C331.83,222.94,331.83,247.51,316.73,262.61z"/>
</svg>
