<?xml version="1.0" encoding="utf-8"?>
<!-- Generator: Adobe Illustrator 25.4.0, SVG Export Plug-In . SVG Version: 6.00 Build 0)  -->
<svg version="1.1" id="Layer_1" xmlns="http://www.w3.org/2000/svg" xmlns:xlink="http://www.w3.org/1999/xlink" x="0px" y="0px"
	 viewBox="0 0 500 500" style="enable-background:new 0 0 500 500;" xml:space="preserve">
<style type="text/css">
	.st0{fill:url(#SVGID_1_);}
	.st1{fill:url(#SVGID_00000134962810506546373680000016692682736003382657_);}
	.st2{fill:url(#SVGID_00000068634861318828205320000001523951039150304640_);}
	.st3{fill:url(#SVGID_00000129924836963991554240000003372785682053742007_);}
	.st4{fill:url(#SVGID_00000107582036114432778880000006495229899161290634_);}
	.st5{fill:url(#SVGID_00000180327818258105331910000013340236401563270281_);}
	.st6{fill:url(#SVGID_00000006676927122203334730000002580884741013524358_);}
	.st7{fill:url(#SVGID_00000181086618242974355660000002221762948557535935_);}
	.st8{fill:url(#SVGID_00000126286080793491153520000014480985571481868954_);}
	.st9{fill:url(#SVGID_00000152942479509195234130000008486203962426467518_);}
	.st10{fill:url(#SVGID_00000013904805250422199320000012782612780723465150_);}
	.st11{fill:url(#SVGID_00000176005946686380075430000013093743735883349650_);}
	.st12{fill:url(#SVGID_00000080165269447232412940000000169214576932939945_);}
	.st13{fill:url(#SVGID_00000057828870620585704960000003996487419160326060_);}
	.st14{fill:url(#SVGID_00000044857752054818000580000003418444570520098234_);}
	.st15{fill:url(#SVGID_00000047020438056115247730000004459301790375184263_);}
	.st16{fill:url(#SVGID_00000075849361131883638230000011460647066848503694_);}
	.st17{fill:url(#SVGID_00000006680777901641993880000000123078730593757885_);}
	.st18{fill:url(#SVGID_00000033341143582761146120000016962199175984479167_);}
	.st19{fill:url(#SVGID_00000002349761376180409680000015087925026502593171_);}
	.st20{fill:url(#SVGID_00000038406963671066701250000003580654063597495204_);}
	.st21{fill:#FFFFFF;}
	.st22{fill-rule:evenodd;clip-rule:evenodd;}
	.st23{fill-rule:evenodd;clip-rule:evenodd;fill:#FFFFFF;}
	.st24{fill:#F1F1F1;}
	.st25{fill:#EFED00;}
	.st26{fill:url(#SVGID_00000131365428634080398370000009312178298423231124_);}
	.st27{fill:url(#SVGID_00000039112595758044094910000006580138883099895444_);}
	.st28{fill:url(#SVGID_00000094614744342304971450000010436867486432622253_);}
	.st29{fill:url(#SVGID_00000181796475508897151910000014757023907244320415_);}
</style>
<path class="st22" d="M387.36,200.58c0.01-4.72-0.53-9.36-2.01-13.84c-4.33-13.07-11.6-23.91-23.8-30.96
	c-28.33-16.36-56.68-32.68-84.94-49.15c-7.68-4.48-15.87-6.73-24.67-6.97c-9.69-0.25-18.91,1.5-27.44,6.46
	c-28.53,16.55-57.23,32.83-85.63,49.61c-16.93,10.01-25.84,25.39-26.05,45.05c-0.35,32.86-0.08,65.72-0.11,98.58
	c0,5.06,0.62,10.01,2.3,14.78c4.47,12.7,11.69,23.24,23.64,30.12c28.11,16.19,56.22,32.37,84.23,48.72
	c7.36,4.3,15.11,6.84,23.57,7.3c10.33,0.57,20.15-1.11,29.25-6.39c28.34-16.45,56.68-32.88,85.12-49.17
	c7.93-4.55,14.05-10.74,18.71-18.48c4.49-7.47,7.66-15.44,7.74-24.27c0.14-17.31,0.04-34.63,0.04-51.94h0.04
	C387.35,233.54,387.33,217.05,387.36,200.58z"/>
<g>
	<path class="st21" d="M334.32,207.36c-2.02-7.62-7.99-13.62-15.56-15.66C305.04,188,250,188,250,188s-55.04,0-68.76,3.7
		c-7.57,2.04-13.54,8.04-15.56,15.66C162,221.18,162,250,162,250s0,28.82,3.68,42.64c2.02,7.62,7.99,13.62,15.56,15.66
		C194.96,312,250,312,250,312s55.04,0,68.76-3.7c7.57-2.04,13.54-8.04,15.56-15.66C338,278.82,338,250,338,250
		S338,221.18,334.32,207.36z"/>
	<polygon points="232,276.17 232,223.83 278,250 	"/>
</g>
</svg>
